%TF.GenerationSoftware,KiCad,Pcbnew,8.0.6*%
%TF.CreationDate,2024-11-18T21:06:19-07:00*%
%TF.ProjectId,SparkFun_RTK_Postcard_panelized,53706172-6b46-4756-9e5f-52544b5f506f,rev?*%
%TF.SameCoordinates,Original*%
%TF.FileFunction,Soldermask,Bot*%
%TF.FilePolarity,Negative*%
%FSLAX46Y46*%
G04 Gerber Fmt 4.6, Leading zero omitted, Abs format (unit mm)*
G04 Created by KiCad (PCBNEW 8.0.6) date 2024-11-18 21:06:19*
%MOMM*%
%LPD*%
G01*
G04 APERTURE LIST*
G04 Aperture macros list*
%AMRoundRect*
0 Rectangle with rounded corners*
0 $1 Rounding radius*
0 $2 $3 $4 $5 $6 $7 $8 $9 X,Y pos of 4 corners*
0 Add a 4 corners polygon primitive as box body*
4,1,4,$2,$3,$4,$5,$6,$7,$8,$9,$2,$3,0*
0 Add four circle primitives for the rounded corners*
1,1,$1+$1,$2,$3*
1,1,$1+$1,$4,$5*
1,1,$1+$1,$6,$7*
1,1,$1+$1,$8,$9*
0 Add four rect primitives between the rounded corners*
20,1,$1+$1,$2,$3,$4,$5,0*
20,1,$1+$1,$4,$5,$6,$7,0*
20,1,$1+$1,$6,$7,$8,$9,0*
20,1,$1+$1,$8,$9,$2,$3,0*%
G04 Aperture macros list end*
%ADD10C,0.000000*%
%ADD11C,3.000000*%
%ADD12RoundRect,0.609600X-0.000010X0.000010X-0.000010X-0.000010X0.000010X-0.000010X0.000010X0.000010X0*%
%ADD13RoundRect,0.101600X-0.635000X0.330200X-0.635000X-0.330200X0.635000X-0.330200X0.635000X0.330200X0*%
%ADD14RoundRect,0.101600X-0.330200X-0.635000X0.330200X-0.635000X0.330200X0.635000X-0.330200X0.635000X0*%
%ADD15RoundRect,0.101600X0.330200X0.635000X-0.330200X0.635000X-0.330200X-0.635000X0.330200X-0.635000X0*%
%ADD16RoundRect,0.101600X0.635000X-0.330200X0.635000X0.330200X-0.635000X0.330200X-0.635000X-0.330200X0*%
%ADD17C,3.200000*%
%ADD18C,0.750000*%
%ADD19O,1.100000X1.700000*%
%ADD20O,1.100000X2.200000*%
%ADD21RoundRect,0.101600X-0.750000X-2.000000X0.750000X-2.000000X0.750000X2.000000X-0.750000X2.000000X0*%
%ADD22C,0.600000*%
%ADD23C,1.979600*%
G04 APERTURE END LIST*
D10*
%TO.C,JP5*%
G36*
X52810500Y149137500D02*
G01*
X52329500Y149137500D01*
X52329500Y149645500D01*
X52810500Y149645500D01*
X52810500Y149137500D01*
G37*
G36*
X52810500Y102409500D02*
G01*
X52329500Y102409500D01*
X52329500Y102917500D01*
X52810500Y102917500D01*
X52810500Y102409500D01*
G37*
G36*
X52810500Y55681500D02*
G01*
X52329500Y55681500D01*
X52329500Y56189500D01*
X52810500Y56189500D01*
X52810500Y55681500D01*
G37*
G36*
X52810500Y8953500D02*
G01*
X52329500Y8953500D01*
X52329500Y9461500D01*
X52810500Y9461500D01*
X52810500Y8953500D01*
G37*
G36*
X9130500Y149137500D02*
G01*
X8649500Y149137500D01*
X8649500Y149645500D01*
X9130500Y149645500D01*
X9130500Y149137500D01*
G37*
G36*
X9130500Y102409500D02*
G01*
X8649500Y102409500D01*
X8649500Y102917500D01*
X9130500Y102917500D01*
X9130500Y102409500D01*
G37*
G36*
X9130500Y55681500D02*
G01*
X8649500Y55681500D01*
X8649500Y56189500D01*
X9130500Y56189500D01*
X9130500Y55681500D01*
G37*
%TO.C,JP6*%
G36*
X79132050Y148833500D02*
G01*
X78624050Y148833500D01*
X78624050Y149314500D01*
X79132050Y149314500D01*
X79132050Y148833500D01*
G37*
G36*
X80164750Y148810500D02*
G01*
X79656750Y148810500D01*
X79656750Y149291500D01*
X80164750Y149291500D01*
X80164750Y148810500D01*
G37*
G36*
X79132050Y102105500D02*
G01*
X78624050Y102105500D01*
X78624050Y102586500D01*
X79132050Y102586500D01*
X79132050Y102105500D01*
G37*
G36*
X80164750Y102082500D02*
G01*
X79656750Y102082500D01*
X79656750Y102563500D01*
X80164750Y102563500D01*
X80164750Y102082500D01*
G37*
G36*
X79132050Y55377500D02*
G01*
X78624050Y55377500D01*
X78624050Y55858500D01*
X79132050Y55858500D01*
X79132050Y55377500D01*
G37*
G36*
X80164750Y55354500D02*
G01*
X79656750Y55354500D01*
X79656750Y55835500D01*
X80164750Y55835500D01*
X80164750Y55354500D01*
G37*
G36*
X79132050Y8649500D02*
G01*
X78624050Y8649500D01*
X78624050Y9130500D01*
X79132050Y9130500D01*
X79132050Y8649500D01*
G37*
G36*
X80164750Y8626500D02*
G01*
X79656750Y8626500D01*
X79656750Y9107500D01*
X80164750Y9107500D01*
X80164750Y8626500D01*
G37*
G36*
X35452050Y148833500D02*
G01*
X34944050Y148833500D01*
X34944050Y149314500D01*
X35452050Y149314500D01*
X35452050Y148833500D01*
G37*
G36*
X36484750Y148810500D02*
G01*
X35976750Y148810500D01*
X35976750Y149291500D01*
X36484750Y149291500D01*
X36484750Y148810500D01*
G37*
G36*
X35452050Y102105500D02*
G01*
X34944050Y102105500D01*
X34944050Y102586500D01*
X35452050Y102586500D01*
X35452050Y102105500D01*
G37*
G36*
X36484750Y102082500D02*
G01*
X35976750Y102082500D01*
X35976750Y102563500D01*
X36484750Y102563500D01*
X36484750Y102082500D01*
G37*
G36*
X35452050Y55377500D02*
G01*
X34944050Y55377500D01*
X34944050Y55858500D01*
X35452050Y55858500D01*
X35452050Y55377500D01*
G37*
G36*
X36484750Y55354500D02*
G01*
X35976750Y55354500D01*
X35976750Y55835500D01*
X36484750Y55835500D01*
X36484750Y55354500D01*
G37*
%TO.C,JP2*%
G36*
X57890500Y149137500D02*
G01*
X57409500Y149137500D01*
X57409500Y149645500D01*
X57890500Y149645500D01*
X57890500Y149137500D01*
G37*
G36*
X57890500Y102409500D02*
G01*
X57409500Y102409500D01*
X57409500Y102917500D01*
X57890500Y102917500D01*
X57890500Y102409500D01*
G37*
G36*
X57890500Y55681500D02*
G01*
X57409500Y55681500D01*
X57409500Y56189500D01*
X57890500Y56189500D01*
X57890500Y55681500D01*
G37*
G36*
X57890500Y8953500D02*
G01*
X57409500Y8953500D01*
X57409500Y9461500D01*
X57890500Y9461500D01*
X57890500Y8953500D01*
G37*
G36*
X14210500Y149137500D02*
G01*
X13729500Y149137500D01*
X13729500Y149645500D01*
X14210500Y149645500D01*
X14210500Y149137500D01*
G37*
G36*
X14210500Y102409500D02*
G01*
X13729500Y102409500D01*
X13729500Y102917500D01*
X14210500Y102917500D01*
X14210500Y102409500D01*
G37*
G36*
X14210500Y55681500D02*
G01*
X13729500Y55681500D01*
X13729500Y56189500D01*
X14210500Y56189500D01*
X14210500Y55681500D01*
G37*
%TO.C,JP1*%
G36*
X50224250Y149137500D02*
G01*
X49743250Y149137500D01*
X49743250Y149645500D01*
X50224250Y149645500D01*
X50224250Y149137500D01*
G37*
G36*
X50224250Y102409500D02*
G01*
X49743250Y102409500D01*
X49743250Y102917500D01*
X50224250Y102917500D01*
X50224250Y102409500D01*
G37*
G36*
X50224250Y55681500D02*
G01*
X49743250Y55681500D01*
X49743250Y56189500D01*
X50224250Y56189500D01*
X50224250Y55681500D01*
G37*
G36*
X50224250Y8953500D02*
G01*
X49743250Y8953500D01*
X49743250Y9461500D01*
X50224250Y9461500D01*
X50224250Y8953500D01*
G37*
G36*
X6544250Y149137500D02*
G01*
X6063250Y149137500D01*
X6063250Y149645500D01*
X6544250Y149645500D01*
X6544250Y149137500D01*
G37*
G36*
X6544250Y102409500D02*
G01*
X6063250Y102409500D01*
X6063250Y102917500D01*
X6544250Y102917500D01*
X6544250Y102409500D01*
G37*
G36*
X6544250Y55681500D02*
G01*
X6063250Y55681500D01*
X6063250Y56189500D01*
X6544250Y56189500D01*
X6544250Y55681500D01*
G37*
%TO.C,JP7*%
G36*
X74414000Y141209750D02*
G01*
X73906000Y141209750D01*
X73906000Y141690750D01*
X74414000Y141690750D01*
X74414000Y141209750D01*
G37*
G36*
X74414000Y94481750D02*
G01*
X73906000Y94481750D01*
X73906000Y94962750D01*
X74414000Y94962750D01*
X74414000Y94481750D01*
G37*
G36*
X74414000Y47753750D02*
G01*
X73906000Y47753750D01*
X73906000Y48234750D01*
X74414000Y48234750D01*
X74414000Y47753750D01*
G37*
G36*
X74414000Y1025750D02*
G01*
X73906000Y1025750D01*
X73906000Y1506750D01*
X74414000Y1506750D01*
X74414000Y1025750D01*
G37*
G36*
X30734000Y141209750D02*
G01*
X30226000Y141209750D01*
X30226000Y141690750D01*
X30734000Y141690750D01*
X30734000Y141209750D01*
G37*
G36*
X30734000Y94481750D02*
G01*
X30226000Y94481750D01*
X30226000Y94962750D01*
X30734000Y94962750D01*
X30734000Y94481750D01*
G37*
G36*
X30734000Y47753750D02*
G01*
X30226000Y47753750D01*
X30226000Y48234750D01*
X30734000Y48234750D01*
X30734000Y47753750D01*
G37*
%TO.C,JP8*%
G36*
X60430500Y149137500D02*
G01*
X59949500Y149137500D01*
X59949500Y149645500D01*
X60430500Y149645500D01*
X60430500Y149137500D01*
G37*
G36*
X60430500Y102409500D02*
G01*
X59949500Y102409500D01*
X59949500Y102917500D01*
X60430500Y102917500D01*
X60430500Y102409500D01*
G37*
G36*
X60430500Y55681500D02*
G01*
X59949500Y55681500D01*
X59949500Y56189500D01*
X60430500Y56189500D01*
X60430500Y55681500D01*
G37*
G36*
X60430500Y8953500D02*
G01*
X59949500Y8953500D01*
X59949500Y9461500D01*
X60430500Y9461500D01*
X60430500Y8953500D01*
G37*
G36*
X16750500Y149137500D02*
G01*
X16269500Y149137500D01*
X16269500Y149645500D01*
X16750500Y149645500D01*
X16750500Y149137500D01*
G37*
G36*
X16750500Y102409500D02*
G01*
X16269500Y102409500D01*
X16269500Y102917500D01*
X16750500Y102917500D01*
X16750500Y102409500D01*
G37*
G36*
X16750500Y55681500D02*
G01*
X16269500Y55681500D01*
X16269500Y56189500D01*
X16750500Y56189500D01*
X16750500Y55681500D01*
G37*
%TO.C,JP3*%
G36*
X55350500Y149137500D02*
G01*
X54869500Y149137500D01*
X54869500Y149645500D01*
X55350500Y149645500D01*
X55350500Y149137500D01*
G37*
G36*
X55350500Y102409500D02*
G01*
X54869500Y102409500D01*
X54869500Y102917500D01*
X55350500Y102917500D01*
X55350500Y102409500D01*
G37*
G36*
X55350500Y55681500D02*
G01*
X54869500Y55681500D01*
X54869500Y56189500D01*
X55350500Y56189500D01*
X55350500Y55681500D01*
G37*
G36*
X55350500Y8953500D02*
G01*
X54869500Y8953500D01*
X54869500Y9461500D01*
X55350500Y9461500D01*
X55350500Y8953500D01*
G37*
G36*
X11670500Y149137500D02*
G01*
X11189500Y149137500D01*
X11189500Y149645500D01*
X11670500Y149645500D01*
X11670500Y149137500D01*
G37*
G36*
X11670500Y102409500D02*
G01*
X11189500Y102409500D01*
X11189500Y102917500D01*
X11670500Y102917500D01*
X11670500Y102409500D01*
G37*
G36*
X11670500Y55681500D02*
G01*
X11189500Y55681500D01*
X11189500Y56189500D01*
X11670500Y56189500D01*
X11670500Y55681500D01*
G37*
%TO.C,JP4*%
G36*
X62970500Y148616800D02*
G01*
X62489500Y148616800D01*
X62489500Y149124800D01*
X62970500Y149124800D01*
X62970500Y148616800D01*
G37*
G36*
X62970500Y101888800D02*
G01*
X62489500Y101888800D01*
X62489500Y102396800D01*
X62970500Y102396800D01*
X62970500Y101888800D01*
G37*
G36*
X62970500Y55160800D02*
G01*
X62489500Y55160800D01*
X62489500Y55668800D01*
X62970500Y55668800D01*
X62970500Y55160800D01*
G37*
G36*
X62970500Y8432800D02*
G01*
X62489500Y8432800D01*
X62489500Y8940800D01*
X62970500Y8940800D01*
X62970500Y8432800D01*
G37*
G36*
X19290500Y148616800D02*
G01*
X18809500Y148616800D01*
X18809500Y149124800D01*
X19290500Y149124800D01*
X19290500Y148616800D01*
G37*
G36*
X19290500Y101888800D02*
G01*
X18809500Y101888800D01*
X18809500Y102396800D01*
X19290500Y102396800D01*
X19290500Y101888800D01*
G37*
G36*
X19290500Y55160800D02*
G01*
X18809500Y55160800D01*
X18809500Y55668800D01*
X19290500Y55668800D01*
X19290500Y55160800D01*
G37*
G36*
X19290500Y8432800D02*
G01*
X18809500Y8432800D01*
X18809500Y8940800D01*
X19290500Y8940800D01*
X19290500Y8432800D01*
G37*
%TO.C,JP3*%
G36*
X11670500Y8953500D02*
G01*
X11189500Y8953500D01*
X11189500Y9461500D01*
X11670500Y9461500D01*
X11670500Y8953500D01*
G37*
%TO.C,JP8*%
G36*
X16750500Y8953500D02*
G01*
X16269500Y8953500D01*
X16269500Y9461500D01*
X16750500Y9461500D01*
X16750500Y8953500D01*
G37*
%TO.C,JP7*%
G36*
X30734000Y1025750D02*
G01*
X30226000Y1025750D01*
X30226000Y1506750D01*
X30734000Y1506750D01*
X30734000Y1025750D01*
G37*
%TO.C,JP1*%
G36*
X6544250Y8953500D02*
G01*
X6063250Y8953500D01*
X6063250Y9461500D01*
X6544250Y9461500D01*
X6544250Y8953500D01*
G37*
%TO.C,JP2*%
G36*
X14210500Y8953500D02*
G01*
X13729500Y8953500D01*
X13729500Y9461500D01*
X14210500Y9461500D01*
X14210500Y8953500D01*
G37*
%TO.C,JP6*%
G36*
X35452050Y8649500D02*
G01*
X34944050Y8649500D01*
X34944050Y9130500D01*
X35452050Y9130500D01*
X35452050Y8649500D01*
G37*
G36*
X36484750Y8626500D02*
G01*
X35976750Y8626500D01*
X35976750Y9107500D01*
X36484750Y9107500D01*
X36484750Y8626500D01*
G37*
%TO.C,JP5*%
G36*
X9130500Y8953500D02*
G01*
X8649500Y8953500D01*
X8649500Y9461500D01*
X9130500Y9461500D01*
X9130500Y8953500D01*
G37*
%TD*%
D11*
%TO.C,*%
X88947500Y184412000D03*
%TD*%
%TO.C,*%
X-2087500Y184412000D03*
%TD*%
%TO.C,*%
X-2087500Y-1048000D03*
%TD*%
D12*
%TO.C,TP6*%
X52887500Y163679000D03*
%TD*%
%TO.C,TP6*%
X52887500Y116951000D03*
%TD*%
%TO.C,TP6*%
X52887500Y70223000D03*
%TD*%
%TO.C,TP6*%
X52887500Y23495000D03*
%TD*%
%TO.C,TP6*%
X9207500Y163679000D03*
%TD*%
%TO.C,TP6*%
X9207500Y116951000D03*
%TD*%
%TO.C,TP6*%
X9207500Y70223000D03*
%TD*%
D13*
%TO.C,JP5*%
X52570000Y149912200D03*
X52570000Y148870800D03*
%TD*%
%TO.C,JP5*%
X52570000Y103184200D03*
X52570000Y102142800D03*
%TD*%
%TO.C,JP5*%
X52570000Y56456200D03*
X52570000Y55414800D03*
%TD*%
%TO.C,JP5*%
X52570000Y9728200D03*
X52570000Y8686800D03*
%TD*%
%TO.C,JP5*%
X8890000Y149912200D03*
X8890000Y148870800D03*
%TD*%
%TO.C,JP5*%
X8890000Y103184200D03*
X8890000Y102142800D03*
%TD*%
%TO.C,JP5*%
X8890000Y56456200D03*
X8890000Y55414800D03*
%TD*%
D14*
%TO.C,JP6*%
X78357350Y149074000D03*
X79398750Y149074000D03*
D15*
X80440150Y149074000D03*
%TD*%
D14*
%TO.C,JP6*%
X78357350Y102346000D03*
X79398750Y102346000D03*
D15*
X80440150Y102346000D03*
%TD*%
D14*
%TO.C,JP6*%
X78357350Y55618000D03*
X79398750Y55618000D03*
D15*
X80440150Y55618000D03*
%TD*%
D14*
%TO.C,JP6*%
X78357350Y8890000D03*
X79398750Y8890000D03*
D15*
X80440150Y8890000D03*
%TD*%
D14*
%TO.C,JP6*%
X34677350Y149074000D03*
X35718750Y149074000D03*
D15*
X36760150Y149074000D03*
%TD*%
D14*
%TO.C,JP6*%
X34677350Y102346000D03*
X35718750Y102346000D03*
D15*
X36760150Y102346000D03*
%TD*%
D14*
%TO.C,JP6*%
X34677350Y55618000D03*
X35718750Y55618000D03*
D15*
X36760150Y55618000D03*
%TD*%
D13*
%TO.C,JP2*%
X57650000Y149912200D03*
X57650000Y148870800D03*
%TD*%
%TO.C,JP2*%
X57650000Y103184200D03*
X57650000Y102142800D03*
%TD*%
%TO.C,JP2*%
X57650000Y56456200D03*
X57650000Y55414800D03*
%TD*%
%TO.C,JP2*%
X57650000Y9728200D03*
X57650000Y8686800D03*
%TD*%
%TO.C,JP2*%
X13970000Y149912200D03*
X13970000Y148870800D03*
%TD*%
%TO.C,JP2*%
X13970000Y103184200D03*
X13970000Y102142800D03*
%TD*%
%TO.C,JP2*%
X13970000Y56456200D03*
X13970000Y55414800D03*
%TD*%
D12*
%TO.C,TP3*%
X54792500Y152249000D03*
%TD*%
%TO.C,TP3*%
X54792500Y105521000D03*
%TD*%
%TO.C,TP3*%
X54792500Y58793000D03*
%TD*%
%TO.C,TP3*%
X54792500Y12065000D03*
%TD*%
%TO.C,TP3*%
X11112500Y152249000D03*
%TD*%
%TO.C,TP3*%
X11112500Y105521000D03*
%TD*%
%TO.C,TP3*%
X11112500Y58793000D03*
%TD*%
D13*
%TO.C,JP1*%
X49983750Y149912200D03*
X49983750Y148870800D03*
%TD*%
%TO.C,JP1*%
X49983750Y103184200D03*
X49983750Y102142800D03*
%TD*%
%TO.C,JP1*%
X49983750Y56456200D03*
X49983750Y55414800D03*
%TD*%
%TO.C,JP1*%
X49983750Y9728200D03*
X49983750Y8686800D03*
%TD*%
%TO.C,JP1*%
X6303750Y149912200D03*
X6303750Y148870800D03*
%TD*%
%TO.C,JP1*%
X6303750Y103184200D03*
X6303750Y102142800D03*
%TD*%
%TO.C,JP1*%
X6303750Y56456200D03*
X6303750Y55414800D03*
%TD*%
D12*
%TO.C,TP4*%
X58285000Y152249000D03*
%TD*%
%TO.C,TP4*%
X58285000Y105521000D03*
%TD*%
%TO.C,TP4*%
X58285000Y58793000D03*
%TD*%
%TO.C,TP4*%
X58285000Y12065000D03*
%TD*%
%TO.C,TP4*%
X14605000Y152249000D03*
%TD*%
%TO.C,TP4*%
X14605000Y105521000D03*
%TD*%
%TO.C,TP4*%
X14605000Y58793000D03*
%TD*%
%TO.C,TP2*%
X54792500Y154154000D03*
%TD*%
%TO.C,TP2*%
X54792500Y107426000D03*
%TD*%
%TO.C,TP2*%
X54792500Y60698000D03*
%TD*%
%TO.C,TP2*%
X54792500Y13970000D03*
%TD*%
%TO.C,TP2*%
X11112500Y154154000D03*
%TD*%
%TO.C,TP2*%
X11112500Y107426000D03*
%TD*%
%TO.C,TP2*%
X11112500Y60698000D03*
%TD*%
D14*
%TO.C,JP7*%
X73639300Y141450250D03*
X74680700Y141450250D03*
%TD*%
%TO.C,JP7*%
X73639300Y94722250D03*
X74680700Y94722250D03*
%TD*%
%TO.C,JP7*%
X73639300Y47994250D03*
X74680700Y47994250D03*
%TD*%
%TO.C,JP7*%
X73639300Y1266250D03*
X74680700Y1266250D03*
%TD*%
%TO.C,JP7*%
X29959300Y141450250D03*
X31000700Y141450250D03*
%TD*%
%TO.C,JP7*%
X29959300Y94722250D03*
X31000700Y94722250D03*
%TD*%
%TO.C,JP7*%
X29959300Y47994250D03*
X31000700Y47994250D03*
%TD*%
D16*
%TO.C,JP8*%
X60190000Y148870800D03*
X60190000Y149912200D03*
%TD*%
%TO.C,JP8*%
X60190000Y102142800D03*
X60190000Y103184200D03*
%TD*%
%TO.C,JP8*%
X60190000Y55414800D03*
X60190000Y56456200D03*
%TD*%
%TO.C,JP8*%
X60190000Y8686800D03*
X60190000Y9728200D03*
%TD*%
%TO.C,JP8*%
X16510000Y148870800D03*
X16510000Y149912200D03*
%TD*%
%TO.C,JP8*%
X16510000Y102142800D03*
X16510000Y103184200D03*
%TD*%
%TO.C,JP8*%
X16510000Y55414800D03*
X16510000Y56456200D03*
%TD*%
D13*
%TO.C,JP3*%
X55110000Y149912200D03*
X55110000Y148870800D03*
%TD*%
%TO.C,JP3*%
X55110000Y103184200D03*
X55110000Y102142800D03*
%TD*%
%TO.C,JP3*%
X55110000Y56456200D03*
X55110000Y55414800D03*
%TD*%
%TO.C,JP3*%
X55110000Y9728200D03*
X55110000Y8686800D03*
%TD*%
%TO.C,JP3*%
X11430000Y149912200D03*
X11430000Y148870800D03*
%TD*%
%TO.C,JP3*%
X11430000Y103184200D03*
X11430000Y102142800D03*
%TD*%
%TO.C,JP3*%
X11430000Y56456200D03*
X11430000Y55414800D03*
%TD*%
D12*
%TO.C,TP1*%
X58285000Y155424000D03*
%TD*%
%TO.C,TP1*%
X58285000Y108696000D03*
%TD*%
%TO.C,TP1*%
X58285000Y61968000D03*
%TD*%
%TO.C,TP1*%
X58285000Y15240000D03*
%TD*%
%TO.C,TP1*%
X14605000Y155424000D03*
%TD*%
%TO.C,TP1*%
X14605000Y108696000D03*
%TD*%
%TO.C,TP1*%
X14605000Y61968000D03*
%TD*%
D16*
%TO.C,JP4*%
X62730000Y148350100D03*
X62730000Y149391500D03*
D13*
X62730000Y150432900D03*
%TD*%
D16*
%TO.C,JP4*%
X62730000Y101622100D03*
X62730000Y102663500D03*
D13*
X62730000Y103704900D03*
%TD*%
D16*
%TO.C,JP4*%
X62730000Y54894100D03*
X62730000Y55935500D03*
D13*
X62730000Y56976900D03*
%TD*%
D16*
%TO.C,JP4*%
X62730000Y8166100D03*
X62730000Y9207500D03*
D13*
X62730000Y10248900D03*
%TD*%
D16*
%TO.C,JP4*%
X19050000Y148350100D03*
X19050000Y149391500D03*
D13*
X19050000Y150432900D03*
%TD*%
D16*
%TO.C,JP4*%
X19050000Y101622100D03*
X19050000Y102663500D03*
D13*
X19050000Y103704900D03*
%TD*%
D16*
%TO.C,JP4*%
X19050000Y54894100D03*
X19050000Y55935500D03*
D13*
X19050000Y56976900D03*
%TD*%
D17*
%TO.C,ST4*%
X84320000Y142724000D03*
%TD*%
%TO.C,ST4*%
X84320000Y95996000D03*
%TD*%
%TO.C,ST4*%
X84320000Y49268000D03*
%TD*%
%TO.C,ST4*%
X84320000Y2540000D03*
%TD*%
%TO.C,ST4*%
X40640000Y142724000D03*
%TD*%
%TO.C,ST4*%
X40640000Y95996000D03*
%TD*%
%TO.C,ST4*%
X40640000Y49268000D03*
%TD*%
%TO.C,ST3*%
X46220000Y142724000D03*
%TD*%
%TO.C,ST3*%
X46220000Y95996000D03*
%TD*%
%TO.C,ST3*%
X46220000Y49268000D03*
%TD*%
%TO.C,ST3*%
X46220000Y2540000D03*
%TD*%
%TO.C,ST3*%
X2540000Y142724000D03*
%TD*%
%TO.C,ST3*%
X2540000Y95996000D03*
%TD*%
%TO.C,ST3*%
X2540000Y49268000D03*
%TD*%
%TO.C,ST1*%
X46220000Y180824000D03*
%TD*%
%TO.C,ST1*%
X46220000Y134096000D03*
%TD*%
%TO.C,ST1*%
X46220000Y87368000D03*
%TD*%
%TO.C,ST1*%
X46220000Y40640000D03*
%TD*%
%TO.C,ST1*%
X2540000Y180824000D03*
%TD*%
%TO.C,ST1*%
X2540000Y134096000D03*
%TD*%
%TO.C,ST1*%
X2540000Y87368000D03*
%TD*%
%TO.C,ST2*%
X84320000Y180824000D03*
%TD*%
%TO.C,ST2*%
X84320000Y134096000D03*
%TD*%
%TO.C,ST2*%
X84320000Y87368000D03*
%TD*%
%TO.C,ST2*%
X84320000Y40640000D03*
%TD*%
%TO.C,ST2*%
X40640000Y180824000D03*
%TD*%
%TO.C,ST2*%
X40640000Y134096000D03*
%TD*%
%TO.C,ST2*%
X40640000Y87368000D03*
%TD*%
D18*
%TO.C,J1*%
X71270000Y145089000D03*
X77050000Y145089000D03*
D19*
X69842000Y141439000D03*
D20*
X69842000Y145619000D03*
X78478000Y145619000D03*
D19*
X78478000Y141439000D03*
%TD*%
D18*
%TO.C,J1*%
X71270000Y98361000D03*
X77050000Y98361000D03*
D19*
X69842000Y94711000D03*
D20*
X69842000Y98891000D03*
X78478000Y98891000D03*
D19*
X78478000Y94711000D03*
%TD*%
D18*
%TO.C,J1*%
X71270000Y51633000D03*
X77050000Y51633000D03*
D19*
X69842000Y47983000D03*
D20*
X69842000Y52163000D03*
X78478000Y52163000D03*
D19*
X78478000Y47983000D03*
%TD*%
D18*
%TO.C,J1*%
X71270000Y4905000D03*
X77050000Y4905000D03*
D19*
X69842000Y1255000D03*
D20*
X69842000Y5435000D03*
X78478000Y5435000D03*
D19*
X78478000Y1255000D03*
%TD*%
D18*
%TO.C,J1*%
X27590000Y145089000D03*
X33370000Y145089000D03*
D19*
X26162000Y141439000D03*
D20*
X26162000Y145619000D03*
X34798000Y145619000D03*
D19*
X34798000Y141439000D03*
%TD*%
D18*
%TO.C,J1*%
X27590000Y98361000D03*
X33370000Y98361000D03*
D19*
X26162000Y94711000D03*
D20*
X26162000Y98891000D03*
X34798000Y98891000D03*
D19*
X34798000Y94711000D03*
%TD*%
D18*
%TO.C,J1*%
X27590000Y51633000D03*
X33370000Y51633000D03*
D19*
X26162000Y47983000D03*
D20*
X26162000Y52163000D03*
X34798000Y52163000D03*
D19*
X34798000Y47983000D03*
%TD*%
D21*
%TO.C,J2*%
X71620000Y181141500D03*
X76700000Y181141500D03*
%TD*%
%TO.C,J2*%
X71620000Y134413500D03*
X76700000Y134413500D03*
%TD*%
%TO.C,J2*%
X71620000Y87685500D03*
X76700000Y87685500D03*
%TD*%
%TO.C,J2*%
X71620000Y40957500D03*
X76700000Y40957500D03*
%TD*%
%TO.C,J2*%
X27940000Y181141500D03*
X33020000Y181141500D03*
%TD*%
%TO.C,J2*%
X27940000Y134413500D03*
X33020000Y134413500D03*
%TD*%
%TO.C,J2*%
X27940000Y87685500D03*
X33020000Y87685500D03*
%TD*%
D22*
%TO.C,FID1*%
X85907500Y182411500D03*
%TD*%
%TO.C,FID1*%
X85907500Y135683500D03*
%TD*%
%TO.C,FID1*%
X85907500Y88955500D03*
%TD*%
%TO.C,FID1*%
X85907500Y42227500D03*
%TD*%
%TO.C,FID1*%
X42227500Y182411500D03*
%TD*%
%TO.C,FID1*%
X42227500Y135683500D03*
%TD*%
%TO.C,FID1*%
X42227500Y88955500D03*
%TD*%
%TO.C,FID2*%
X44632500Y141136500D03*
%TD*%
%TO.C,FID2*%
X44632500Y94408500D03*
%TD*%
%TO.C,FID2*%
X44632500Y47680500D03*
%TD*%
%TO.C,FID2*%
X44632500Y952500D03*
%TD*%
%TO.C,FID2*%
X952500Y141136500D03*
%TD*%
%TO.C,FID2*%
X952500Y94408500D03*
%TD*%
%TO.C,FID2*%
X952500Y47680500D03*
%TD*%
D23*
%TO.C,J11*%
X85590000Y177014000D03*
X85590000Y174474000D03*
X85590000Y171934000D03*
X85590000Y169394000D03*
X85590000Y166854000D03*
X85590000Y164314000D03*
X85590000Y161774000D03*
X85590000Y159234000D03*
X85590000Y156694000D03*
X85590000Y154154000D03*
%TD*%
%TO.C,J11*%
X85590000Y130286000D03*
X85590000Y127746000D03*
X85590000Y125206000D03*
X85590000Y122666000D03*
X85590000Y120126000D03*
X85590000Y117586000D03*
X85590000Y115046000D03*
X85590000Y112506000D03*
X85590000Y109966000D03*
X85590000Y107426000D03*
%TD*%
%TO.C,J11*%
X85590000Y83558000D03*
X85590000Y81018000D03*
X85590000Y78478000D03*
X85590000Y75938000D03*
X85590000Y73398000D03*
X85590000Y70858000D03*
X85590000Y68318000D03*
X85590000Y65778000D03*
X85590000Y63238000D03*
X85590000Y60698000D03*
%TD*%
%TO.C,J11*%
X85590000Y36830000D03*
X85590000Y34290000D03*
X85590000Y31750000D03*
X85590000Y29210000D03*
X85590000Y26670000D03*
X85590000Y24130000D03*
X85590000Y21590000D03*
X85590000Y19050000D03*
X85590000Y16510000D03*
X85590000Y13970000D03*
%TD*%
%TO.C,J11*%
X41910000Y177014000D03*
X41910000Y174474000D03*
X41910000Y171934000D03*
X41910000Y169394000D03*
X41910000Y166854000D03*
X41910000Y164314000D03*
X41910000Y161774000D03*
X41910000Y159234000D03*
X41910000Y156694000D03*
X41910000Y154154000D03*
%TD*%
%TO.C,J11*%
X41910000Y130286000D03*
X41910000Y127746000D03*
X41910000Y125206000D03*
X41910000Y122666000D03*
X41910000Y120126000D03*
X41910000Y117586000D03*
X41910000Y115046000D03*
X41910000Y112506000D03*
X41910000Y109966000D03*
X41910000Y107426000D03*
%TD*%
%TO.C,J11*%
X41910000Y83558000D03*
X41910000Y81018000D03*
X41910000Y78478000D03*
X41910000Y75938000D03*
X41910000Y73398000D03*
X41910000Y70858000D03*
X41910000Y68318000D03*
X41910000Y65778000D03*
X41910000Y63238000D03*
X41910000Y60698000D03*
%TD*%
%TO.C,J5*%
X44950000Y154154000D03*
X44950000Y156694000D03*
X44950000Y159234000D03*
X44950000Y161774000D03*
X44950000Y164314000D03*
X44950000Y166854000D03*
X44950000Y169394000D03*
X44950000Y171934000D03*
X44950000Y174474000D03*
%TD*%
%TO.C,J5*%
X44950000Y107426000D03*
X44950000Y109966000D03*
X44950000Y112506000D03*
X44950000Y115046000D03*
X44950000Y117586000D03*
X44950000Y120126000D03*
X44950000Y122666000D03*
X44950000Y125206000D03*
X44950000Y127746000D03*
%TD*%
%TO.C,J5*%
X44950000Y60698000D03*
X44950000Y63238000D03*
X44950000Y65778000D03*
X44950000Y68318000D03*
X44950000Y70858000D03*
X44950000Y73398000D03*
X44950000Y75938000D03*
X44950000Y78478000D03*
X44950000Y81018000D03*
%TD*%
%TO.C,J5*%
X44950000Y13970000D03*
X44950000Y16510000D03*
X44950000Y19050000D03*
X44950000Y21590000D03*
X44950000Y24130000D03*
X44950000Y26670000D03*
X44950000Y29210000D03*
X44950000Y31750000D03*
X44950000Y34290000D03*
%TD*%
%TO.C,J5*%
X1270000Y154154000D03*
X1270000Y156694000D03*
X1270000Y159234000D03*
X1270000Y161774000D03*
X1270000Y164314000D03*
X1270000Y166854000D03*
X1270000Y169394000D03*
X1270000Y171934000D03*
X1270000Y174474000D03*
%TD*%
%TO.C,J5*%
X1270000Y107426000D03*
X1270000Y109966000D03*
X1270000Y112506000D03*
X1270000Y115046000D03*
X1270000Y117586000D03*
X1270000Y120126000D03*
X1270000Y122666000D03*
X1270000Y125206000D03*
X1270000Y127746000D03*
%TD*%
%TO.C,J5*%
X1270000Y60698000D03*
X1270000Y63238000D03*
X1270000Y65778000D03*
X1270000Y68318000D03*
X1270000Y70858000D03*
X1270000Y73398000D03*
X1270000Y75938000D03*
X1270000Y78478000D03*
X1270000Y81018000D03*
%TD*%
%TO.C,J5*%
X1270000Y13970000D03*
X1270000Y16510000D03*
X1270000Y19050000D03*
X1270000Y21590000D03*
X1270000Y24130000D03*
X1270000Y26670000D03*
X1270000Y29210000D03*
X1270000Y31750000D03*
X1270000Y34290000D03*
%TD*%
%TO.C,J11*%
X41910000Y36830000D03*
X41910000Y34290000D03*
X41910000Y31750000D03*
X41910000Y29210000D03*
X41910000Y26670000D03*
X41910000Y24130000D03*
X41910000Y21590000D03*
X41910000Y19050000D03*
X41910000Y16510000D03*
X41910000Y13970000D03*
%TD*%
D22*
%TO.C,FID2*%
X952500Y952500D03*
%TD*%
%TO.C,FID1*%
X42227500Y42227500D03*
%TD*%
D21*
%TO.C,J2*%
X27940000Y40957500D03*
X33020000Y40957500D03*
%TD*%
D18*
%TO.C,J1*%
X27590000Y4905000D03*
X33370000Y4905000D03*
D19*
X26162000Y1255000D03*
D20*
X26162000Y5435000D03*
X34798000Y5435000D03*
D19*
X34798000Y1255000D03*
%TD*%
D17*
%TO.C,ST2*%
X40640000Y40640000D03*
%TD*%
%TO.C,ST1*%
X2540000Y40640000D03*
%TD*%
%TO.C,ST3*%
X2540000Y2540000D03*
%TD*%
%TO.C,ST4*%
X40640000Y2540000D03*
%TD*%
D16*
%TO.C,JP4*%
X19050000Y8166100D03*
X19050000Y9207500D03*
D13*
X19050000Y10248900D03*
%TD*%
D12*
%TO.C,TP1*%
X14605000Y15240000D03*
%TD*%
D13*
%TO.C,JP3*%
X11430000Y9728200D03*
X11430000Y8686800D03*
%TD*%
D16*
%TO.C,JP8*%
X16510000Y8686800D03*
X16510000Y9728200D03*
%TD*%
D14*
%TO.C,JP7*%
X29959300Y1266250D03*
X31000700Y1266250D03*
%TD*%
D12*
%TO.C,TP2*%
X11112500Y13970000D03*
%TD*%
%TO.C,TP4*%
X14605000Y12065000D03*
%TD*%
D13*
%TO.C,JP1*%
X6303750Y9728200D03*
X6303750Y8686800D03*
%TD*%
D12*
%TO.C,TP3*%
X11112500Y12065000D03*
%TD*%
D13*
%TO.C,JP2*%
X13970000Y9728200D03*
X13970000Y8686800D03*
%TD*%
D14*
%TO.C,JP6*%
X34677350Y8890000D03*
X35718750Y8890000D03*
D15*
X36760150Y8890000D03*
%TD*%
D13*
%TO.C,JP5*%
X8890000Y9728200D03*
X8890000Y8686800D03*
%TD*%
D12*
%TO.C,TP6*%
X9207500Y23495000D03*
%TD*%
M02*
