%TF.GenerationSoftware,KiCad,Pcbnew,8.0.7*%
%TF.CreationDate,2025-01-02T13:45:23-07:00*%
%TF.ProjectId,SparkFun_RTK_Postcard_panelized,53706172-6b46-4756-9e5f-52544b5f506f,rev?*%
%TF.SameCoordinates,Original*%
%TF.FileFunction,Paste,Top*%
%TF.FilePolarity,Positive*%
%FSLAX46Y46*%
G04 Gerber Fmt 4.6, Leading zero omitted, Abs format (unit mm)*
G04 Created by KiCad (PCBNEW 8.0.7) date 2025-01-02 13:45:23*
%MOMM*%
%LPD*%
G01*
G04 APERTURE LIST*
G04 Aperture macros list*
%AMRoundRect*
0 Rectangle with rounded corners*
0 $1 Rounding radius*
0 $2 $3 $4 $5 $6 $7 $8 $9 X,Y pos of 4 corners*
0 Add a 4 corners polygon primitive as box body*
4,1,4,$2,$3,$4,$5,$6,$7,$8,$9,$2,$3,0*
0 Add four circle primitives for the rounded corners*
1,1,$1+$1,$2,$3*
1,1,$1+$1,$4,$5*
1,1,$1+$1,$6,$7*
1,1,$1+$1,$8,$9*
0 Add four rect primitives between the rounded corners*
20,1,$1+$1,$2,$3,$4,$5,0*
20,1,$1+$1,$4,$5,$6,$7,0*
20,1,$1+$1,$6,$7,$8,$9,0*
20,1,$1+$1,$8,$9,$2,$3,0*%
G04 Aperture macros list end*
%ADD10C,0.000000*%
%ADD11RoundRect,0.200000X-0.275000X0.200000X-0.275000X-0.200000X0.275000X-0.200000X0.275000X0.200000X0*%
%ADD12R,0.630000X0.830000*%
%ADD13RoundRect,0.225000X0.225000X0.250000X-0.225000X0.250000X-0.225000X-0.250000X0.225000X-0.250000X0*%
%ADD14RoundRect,0.140000X-0.170000X0.140000X-0.170000X-0.140000X0.170000X-0.140000X0.170000X0.140000X0*%
%ADD15RoundRect,0.200000X0.275000X-0.200000X0.275000X0.200000X-0.275000X0.200000X-0.275000X-0.200000X0*%
%ADD16RoundRect,0.200000X0.200000X0.275000X-0.200000X0.275000X-0.200000X-0.275000X0.200000X-0.275000X0*%
%ADD17R,0.640000X0.320000*%
%ADD18R,0.320000X0.640000*%
%ADD19R,0.560000X0.560000*%
%ADD20RoundRect,0.225000X0.250000X-0.225000X0.250000X0.225000X-0.250000X0.225000X-0.250000X-0.225000X0*%
%ADD21R,1.050000X1.000000*%
%ADD22R,2.200000X0.850000*%
%ADD23R,0.300000X0.660000*%
%ADD24R,1.000000X0.900000*%
%ADD25RoundRect,0.200000X-0.200000X-0.275000X0.200000X-0.275000X0.200000X0.275000X-0.200000X0.275000X0*%
%ADD26R,1.200000X0.550000*%
%ADD27R,1.350000X0.600000*%
%ADD28R,2.000000X1.200000*%
%ADD29RoundRect,0.140000X0.140000X0.170000X-0.140000X0.170000X-0.140000X-0.170000X0.140000X-0.170000X0*%
%ADD30RoundRect,0.225000X-0.250000X0.225000X-0.250000X-0.225000X0.250000X-0.225000X0.250000X0.225000X0*%
%ADD31RoundRect,0.250000X0.295000X-0.295000X0.295000X0.295000X-0.295000X0.295000X-0.295000X-0.295000X0*%
%ADD32RoundRect,0.056250X0.056250X-0.315000X0.056250X0.315000X-0.056250X0.315000X-0.056250X-0.315000X0*%
%ADD33RoundRect,0.056250X0.315000X-0.056250X0.315000X0.056250X-0.315000X0.056250X-0.315000X-0.056250X0*%
%ADD34RoundRect,0.135000X0.185000X-0.135000X0.185000X0.135000X-0.185000X0.135000X-0.185000X-0.135000X0*%
%ADD35R,1.600000X1.800000*%
%ADD36RoundRect,0.218750X0.256250X-0.218750X0.256250X0.218750X-0.256250X0.218750X-0.256250X-0.218750X0*%
%ADD37R,0.600000X1.700000*%
%ADD38R,1.000000X2.700000*%
%ADD39R,0.830000X0.630000*%
%ADD40R,0.300000X1.000000*%
%ADD41R,0.600000X1.000000*%
%ADD42O,1.000000X1.600000*%
%ADD43O,1.000000X2.100000*%
%ADD44RoundRect,0.135000X-0.135000X-0.185000X0.135000X-0.185000X0.135000X0.185000X-0.135000X0.185000X0*%
%ADD45R,0.720000X1.350000*%
%ADD46C,0.900000*%
%ADD47R,0.900000X0.900000*%
G04 APERTURE END LIST*
D10*
%TO.C,U5*%
G36*
X54780000Y168454000D02*
G01*
X53980000Y168454000D01*
X53980000Y169254000D01*
X54780000Y169254000D01*
X54780000Y168454000D01*
G37*
G36*
X54780000Y166454000D02*
G01*
X53980000Y166454000D01*
X53980000Y167254000D01*
X54780000Y167254000D01*
X54780000Y166454000D01*
G37*
G36*
X54780000Y164454000D02*
G01*
X53980000Y164454000D01*
X53980000Y165254000D01*
X54780000Y165254000D01*
X54780000Y164454000D01*
G37*
G36*
X56780000Y168454000D02*
G01*
X55980000Y168454000D01*
X55980000Y169254000D01*
X56780000Y169254000D01*
X56780000Y168454000D01*
G37*
G36*
X56780000Y166454000D02*
G01*
X55980000Y166454000D01*
X55980000Y167254000D01*
X56780000Y167254000D01*
X56780000Y166454000D01*
G37*
G36*
X56780000Y164454000D02*
G01*
X55980000Y164454000D01*
X55980000Y165254000D01*
X56780000Y165254000D01*
X56780000Y164454000D01*
G37*
G36*
X58780000Y168454000D02*
G01*
X57980000Y168454000D01*
X57980000Y169254000D01*
X58780000Y169254000D01*
X58780000Y168454000D01*
G37*
G36*
X58780000Y166454000D02*
G01*
X57980000Y166454000D01*
X57980000Y167254000D01*
X58780000Y167254000D01*
X58780000Y166454000D01*
G37*
G36*
X58780000Y164454000D02*
G01*
X57980000Y164454000D01*
X57980000Y165254000D01*
X58780000Y165254000D01*
X58780000Y164454000D01*
G37*
G36*
X54780000Y121726000D02*
G01*
X53980000Y121726000D01*
X53980000Y122526000D01*
X54780000Y122526000D01*
X54780000Y121726000D01*
G37*
G36*
X54780000Y119726000D02*
G01*
X53980000Y119726000D01*
X53980000Y120526000D01*
X54780000Y120526000D01*
X54780000Y119726000D01*
G37*
G36*
X54780000Y117726000D02*
G01*
X53980000Y117726000D01*
X53980000Y118526000D01*
X54780000Y118526000D01*
X54780000Y117726000D01*
G37*
G36*
X56780000Y121726000D02*
G01*
X55980000Y121726000D01*
X55980000Y122526000D01*
X56780000Y122526000D01*
X56780000Y121726000D01*
G37*
G36*
X56780000Y119726000D02*
G01*
X55980000Y119726000D01*
X55980000Y120526000D01*
X56780000Y120526000D01*
X56780000Y119726000D01*
G37*
G36*
X56780000Y117726000D02*
G01*
X55980000Y117726000D01*
X55980000Y118526000D01*
X56780000Y118526000D01*
X56780000Y117726000D01*
G37*
G36*
X58780000Y121726000D02*
G01*
X57980000Y121726000D01*
X57980000Y122526000D01*
X58780000Y122526000D01*
X58780000Y121726000D01*
G37*
G36*
X58780000Y119726000D02*
G01*
X57980000Y119726000D01*
X57980000Y120526000D01*
X58780000Y120526000D01*
X58780000Y119726000D01*
G37*
G36*
X58780000Y117726000D02*
G01*
X57980000Y117726000D01*
X57980000Y118526000D01*
X58780000Y118526000D01*
X58780000Y117726000D01*
G37*
G36*
X54780000Y74998000D02*
G01*
X53980000Y74998000D01*
X53980000Y75798000D01*
X54780000Y75798000D01*
X54780000Y74998000D01*
G37*
G36*
X54780000Y72998000D02*
G01*
X53980000Y72998000D01*
X53980000Y73798000D01*
X54780000Y73798000D01*
X54780000Y72998000D01*
G37*
G36*
X54780000Y70998000D02*
G01*
X53980000Y70998000D01*
X53980000Y71798000D01*
X54780000Y71798000D01*
X54780000Y70998000D01*
G37*
G36*
X56780000Y74998000D02*
G01*
X55980000Y74998000D01*
X55980000Y75798000D01*
X56780000Y75798000D01*
X56780000Y74998000D01*
G37*
G36*
X56780000Y72998000D02*
G01*
X55980000Y72998000D01*
X55980000Y73798000D01*
X56780000Y73798000D01*
X56780000Y72998000D01*
G37*
G36*
X56780000Y70998000D02*
G01*
X55980000Y70998000D01*
X55980000Y71798000D01*
X56780000Y71798000D01*
X56780000Y70998000D01*
G37*
G36*
X58780000Y74998000D02*
G01*
X57980000Y74998000D01*
X57980000Y75798000D01*
X58780000Y75798000D01*
X58780000Y74998000D01*
G37*
G36*
X58780000Y72998000D02*
G01*
X57980000Y72998000D01*
X57980000Y73798000D01*
X58780000Y73798000D01*
X58780000Y72998000D01*
G37*
G36*
X58780000Y70998000D02*
G01*
X57980000Y70998000D01*
X57980000Y71798000D01*
X58780000Y71798000D01*
X58780000Y70998000D01*
G37*
G36*
X54780000Y28270000D02*
G01*
X53980000Y28270000D01*
X53980000Y29070000D01*
X54780000Y29070000D01*
X54780000Y28270000D01*
G37*
G36*
X54780000Y26270000D02*
G01*
X53980000Y26270000D01*
X53980000Y27070000D01*
X54780000Y27070000D01*
X54780000Y26270000D01*
G37*
G36*
X54780000Y24270000D02*
G01*
X53980000Y24270000D01*
X53980000Y25070000D01*
X54780000Y25070000D01*
X54780000Y24270000D01*
G37*
G36*
X56780000Y28270000D02*
G01*
X55980000Y28270000D01*
X55980000Y29070000D01*
X56780000Y29070000D01*
X56780000Y28270000D01*
G37*
G36*
X56780000Y26270000D02*
G01*
X55980000Y26270000D01*
X55980000Y27070000D01*
X56780000Y27070000D01*
X56780000Y26270000D01*
G37*
G36*
X56780000Y24270000D02*
G01*
X55980000Y24270000D01*
X55980000Y25070000D01*
X56780000Y25070000D01*
X56780000Y24270000D01*
G37*
G36*
X58780000Y28270000D02*
G01*
X57980000Y28270000D01*
X57980000Y29070000D01*
X58780000Y29070000D01*
X58780000Y28270000D01*
G37*
G36*
X58780000Y26270000D02*
G01*
X57980000Y26270000D01*
X57980000Y27070000D01*
X58780000Y27070000D01*
X58780000Y26270000D01*
G37*
G36*
X58780000Y24270000D02*
G01*
X57980000Y24270000D01*
X57980000Y25070000D01*
X58780000Y25070000D01*
X58780000Y24270000D01*
G37*
G36*
X11100000Y168454000D02*
G01*
X10300000Y168454000D01*
X10300000Y169254000D01*
X11100000Y169254000D01*
X11100000Y168454000D01*
G37*
G36*
X11100000Y166454000D02*
G01*
X10300000Y166454000D01*
X10300000Y167254000D01*
X11100000Y167254000D01*
X11100000Y166454000D01*
G37*
G36*
X11100000Y164454000D02*
G01*
X10300000Y164454000D01*
X10300000Y165254000D01*
X11100000Y165254000D01*
X11100000Y164454000D01*
G37*
G36*
X13100000Y168454000D02*
G01*
X12300000Y168454000D01*
X12300000Y169254000D01*
X13100000Y169254000D01*
X13100000Y168454000D01*
G37*
G36*
X13100000Y166454000D02*
G01*
X12300000Y166454000D01*
X12300000Y167254000D01*
X13100000Y167254000D01*
X13100000Y166454000D01*
G37*
G36*
X13100000Y164454000D02*
G01*
X12300000Y164454000D01*
X12300000Y165254000D01*
X13100000Y165254000D01*
X13100000Y164454000D01*
G37*
G36*
X15100000Y168454000D02*
G01*
X14300000Y168454000D01*
X14300000Y169254000D01*
X15100000Y169254000D01*
X15100000Y168454000D01*
G37*
G36*
X15100000Y166454000D02*
G01*
X14300000Y166454000D01*
X14300000Y167254000D01*
X15100000Y167254000D01*
X15100000Y166454000D01*
G37*
G36*
X15100000Y164454000D02*
G01*
X14300000Y164454000D01*
X14300000Y165254000D01*
X15100000Y165254000D01*
X15100000Y164454000D01*
G37*
G36*
X11100000Y121726000D02*
G01*
X10300000Y121726000D01*
X10300000Y122526000D01*
X11100000Y122526000D01*
X11100000Y121726000D01*
G37*
G36*
X11100000Y119726000D02*
G01*
X10300000Y119726000D01*
X10300000Y120526000D01*
X11100000Y120526000D01*
X11100000Y119726000D01*
G37*
G36*
X11100000Y117726000D02*
G01*
X10300000Y117726000D01*
X10300000Y118526000D01*
X11100000Y118526000D01*
X11100000Y117726000D01*
G37*
G36*
X13100000Y121726000D02*
G01*
X12300000Y121726000D01*
X12300000Y122526000D01*
X13100000Y122526000D01*
X13100000Y121726000D01*
G37*
G36*
X13100000Y119726000D02*
G01*
X12300000Y119726000D01*
X12300000Y120526000D01*
X13100000Y120526000D01*
X13100000Y119726000D01*
G37*
G36*
X13100000Y117726000D02*
G01*
X12300000Y117726000D01*
X12300000Y118526000D01*
X13100000Y118526000D01*
X13100000Y117726000D01*
G37*
G36*
X15100000Y121726000D02*
G01*
X14300000Y121726000D01*
X14300000Y122526000D01*
X15100000Y122526000D01*
X15100000Y121726000D01*
G37*
G36*
X15100000Y119726000D02*
G01*
X14300000Y119726000D01*
X14300000Y120526000D01*
X15100000Y120526000D01*
X15100000Y119726000D01*
G37*
G36*
X15100000Y117726000D02*
G01*
X14300000Y117726000D01*
X14300000Y118526000D01*
X15100000Y118526000D01*
X15100000Y117726000D01*
G37*
G36*
X11100000Y74998000D02*
G01*
X10300000Y74998000D01*
X10300000Y75798000D01*
X11100000Y75798000D01*
X11100000Y74998000D01*
G37*
G36*
X11100000Y72998000D02*
G01*
X10300000Y72998000D01*
X10300000Y73798000D01*
X11100000Y73798000D01*
X11100000Y72998000D01*
G37*
G36*
X11100000Y70998000D02*
G01*
X10300000Y70998000D01*
X10300000Y71798000D01*
X11100000Y71798000D01*
X11100000Y70998000D01*
G37*
G36*
X13100000Y74998000D02*
G01*
X12300000Y74998000D01*
X12300000Y75798000D01*
X13100000Y75798000D01*
X13100000Y74998000D01*
G37*
G36*
X13100000Y72998000D02*
G01*
X12300000Y72998000D01*
X12300000Y73798000D01*
X13100000Y73798000D01*
X13100000Y72998000D01*
G37*
G36*
X13100000Y70998000D02*
G01*
X12300000Y70998000D01*
X12300000Y71798000D01*
X13100000Y71798000D01*
X13100000Y70998000D01*
G37*
G36*
X15100000Y74998000D02*
G01*
X14300000Y74998000D01*
X14300000Y75798000D01*
X15100000Y75798000D01*
X15100000Y74998000D01*
G37*
G36*
X15100000Y72998000D02*
G01*
X14300000Y72998000D01*
X14300000Y73798000D01*
X15100000Y73798000D01*
X15100000Y72998000D01*
G37*
G36*
X15100000Y70998000D02*
G01*
X14300000Y70998000D01*
X14300000Y71798000D01*
X15100000Y71798000D01*
X15100000Y70998000D01*
G37*
%TO.C,BT1*%
G36*
X63200000Y153421145D02*
G01*
X63200000Y155906500D01*
X65685355Y155906500D01*
X63200000Y153421145D01*
G37*
G36*
X68605000Y151701500D02*
G01*
X66905000Y151701500D01*
X66905000Y155901500D01*
X68605000Y155901500D01*
X68605000Y151701500D01*
G37*
G36*
X63200000Y106693145D02*
G01*
X63200000Y109178500D01*
X65685355Y109178500D01*
X63200000Y106693145D01*
G37*
G36*
X68605000Y104973500D02*
G01*
X66905000Y104973500D01*
X66905000Y109173500D01*
X68605000Y109173500D01*
X68605000Y104973500D01*
G37*
G36*
X63200000Y59965145D02*
G01*
X63200000Y62450500D01*
X65685355Y62450500D01*
X63200000Y59965145D01*
G37*
G36*
X68605000Y58245500D02*
G01*
X66905000Y58245500D01*
X66905000Y62445500D01*
X68605000Y62445500D01*
X68605000Y58245500D01*
G37*
G36*
X63200000Y13237145D02*
G01*
X63200000Y15722500D01*
X65685355Y15722500D01*
X63200000Y13237145D01*
G37*
G36*
X68605000Y11517500D02*
G01*
X66905000Y11517500D01*
X66905000Y15717500D01*
X68605000Y15717500D01*
X68605000Y11517500D01*
G37*
G36*
X19520000Y153421145D02*
G01*
X19520000Y155906500D01*
X22005355Y155906500D01*
X19520000Y153421145D01*
G37*
G36*
X24925000Y151701500D02*
G01*
X23225000Y151701500D01*
X23225000Y155901500D01*
X24925000Y155901500D01*
X24925000Y151701500D01*
G37*
G36*
X19520000Y106693145D02*
G01*
X19520000Y109178500D01*
X22005355Y109178500D01*
X19520000Y106693145D01*
G37*
G36*
X24925000Y104973500D02*
G01*
X23225000Y104973500D01*
X23225000Y109173500D01*
X24925000Y109173500D01*
X24925000Y104973500D01*
G37*
G36*
X19520000Y59965145D02*
G01*
X19520000Y62450500D01*
X22005355Y62450500D01*
X19520000Y59965145D01*
G37*
G36*
X24925000Y58245500D02*
G01*
X23225000Y58245500D01*
X23225000Y62445500D01*
X24925000Y62445500D01*
X24925000Y58245500D01*
G37*
G36*
X19520000Y13237145D02*
G01*
X19520000Y15722500D01*
X22005355Y15722500D01*
X19520000Y13237145D01*
G37*
G36*
X24925000Y11517500D02*
G01*
X23225000Y11517500D01*
X23225000Y15717500D01*
X24925000Y15717500D01*
X24925000Y11517500D01*
G37*
%TO.C,U5*%
G36*
X11100000Y28270000D02*
G01*
X10300000Y28270000D01*
X10300000Y29070000D01*
X11100000Y29070000D01*
X11100000Y28270000D01*
G37*
G36*
X11100000Y26270000D02*
G01*
X10300000Y26270000D01*
X10300000Y27070000D01*
X11100000Y27070000D01*
X11100000Y26270000D01*
G37*
G36*
X11100000Y24270000D02*
G01*
X10300000Y24270000D01*
X10300000Y25070000D01*
X11100000Y25070000D01*
X11100000Y24270000D01*
G37*
G36*
X13100000Y28270000D02*
G01*
X12300000Y28270000D01*
X12300000Y29070000D01*
X13100000Y29070000D01*
X13100000Y28270000D01*
G37*
G36*
X13100000Y26270000D02*
G01*
X12300000Y26270000D01*
X12300000Y27070000D01*
X13100000Y27070000D01*
X13100000Y26270000D01*
G37*
G36*
X13100000Y24270000D02*
G01*
X12300000Y24270000D01*
X12300000Y25070000D01*
X13100000Y25070000D01*
X13100000Y24270000D01*
G37*
G36*
X15100000Y28270000D02*
G01*
X14300000Y28270000D01*
X14300000Y29070000D01*
X15100000Y29070000D01*
X15100000Y28270000D01*
G37*
G36*
X15100000Y26270000D02*
G01*
X14300000Y26270000D01*
X14300000Y27070000D01*
X15100000Y27070000D01*
X15100000Y26270000D01*
G37*
G36*
X15100000Y24270000D02*
G01*
X14300000Y24270000D01*
X14300000Y25070000D01*
X15100000Y25070000D01*
X15100000Y24270000D01*
G37*
%TD*%
D11*
%TO.C,R18*%
X77970000Y149581500D03*
X77970000Y147931500D03*
%TD*%
%TO.C,R18*%
X77970000Y102853500D03*
X77970000Y101203500D03*
%TD*%
%TO.C,R18*%
X77970000Y56125500D03*
X77970000Y54475500D03*
%TD*%
%TO.C,R18*%
X77970000Y9397500D03*
X77970000Y7747500D03*
%TD*%
%TO.C,R18*%
X34290000Y149581500D03*
X34290000Y147931500D03*
%TD*%
%TO.C,R18*%
X34290000Y102853500D03*
X34290000Y101203500D03*
%TD*%
%TO.C,R18*%
X34290000Y56125500D03*
X34290000Y54475500D03*
%TD*%
D12*
%TO.C,D8*%
X80072500Y151137750D03*
X77772500Y151137750D03*
%TD*%
%TO.C,D8*%
X80072500Y104409750D03*
X77772500Y104409750D03*
%TD*%
%TO.C,D8*%
X80072500Y57681750D03*
X77772500Y57681750D03*
%TD*%
%TO.C,D8*%
X80072500Y10953750D03*
X77772500Y10953750D03*
%TD*%
%TO.C,D8*%
X36392500Y151137750D03*
X34092500Y151137750D03*
%TD*%
%TO.C,D8*%
X36392500Y104409750D03*
X34092500Y104409750D03*
%TD*%
%TO.C,D8*%
X36392500Y57681750D03*
X34092500Y57681750D03*
%TD*%
D11*
%TO.C,R7*%
X65905000Y158789000D03*
X65905000Y157139000D03*
%TD*%
%TO.C,R7*%
X65905000Y112061000D03*
X65905000Y110411000D03*
%TD*%
%TO.C,R7*%
X65905000Y65333000D03*
X65905000Y63683000D03*
%TD*%
%TO.C,R7*%
X65905000Y18605000D03*
X65905000Y16955000D03*
%TD*%
%TO.C,R7*%
X22225000Y158789000D03*
X22225000Y157139000D03*
%TD*%
%TO.C,R7*%
X22225000Y112061000D03*
X22225000Y110411000D03*
%TD*%
%TO.C,R7*%
X22225000Y65333000D03*
X22225000Y63683000D03*
%TD*%
D13*
%TO.C,C11*%
X53522500Y152249000D03*
X51972500Y152249000D03*
%TD*%
%TO.C,C11*%
X53522500Y105521000D03*
X51972500Y105521000D03*
%TD*%
%TO.C,C11*%
X53522500Y58793000D03*
X51972500Y58793000D03*
%TD*%
%TO.C,C11*%
X53522500Y12065000D03*
X51972500Y12065000D03*
%TD*%
%TO.C,C11*%
X9842500Y152249000D03*
X8292500Y152249000D03*
%TD*%
%TO.C,C11*%
X9842500Y105521000D03*
X8292500Y105521000D03*
%TD*%
%TO.C,C11*%
X9842500Y58793000D03*
X8292500Y58793000D03*
%TD*%
D14*
%TO.C,L1*%
X71620000Y176541500D03*
X71620000Y175581500D03*
%TD*%
%TO.C,L1*%
X71620000Y129813500D03*
X71620000Y128853500D03*
%TD*%
%TO.C,L1*%
X71620000Y83085500D03*
X71620000Y82125500D03*
%TD*%
%TO.C,L1*%
X71620000Y36357500D03*
X71620000Y35397500D03*
%TD*%
%TO.C,L1*%
X27940000Y176541500D03*
X27940000Y175581500D03*
%TD*%
%TO.C,L1*%
X27940000Y129813500D03*
X27940000Y128853500D03*
%TD*%
%TO.C,L1*%
X27940000Y83085500D03*
X27940000Y82125500D03*
%TD*%
D15*
%TO.C,R16*%
X50982500Y148566500D03*
X50982500Y150216500D03*
%TD*%
%TO.C,R16*%
X50982500Y101838500D03*
X50982500Y103488500D03*
%TD*%
%TO.C,R16*%
X50982500Y55110500D03*
X50982500Y56760500D03*
%TD*%
%TO.C,R16*%
X50982500Y8382500D03*
X50982500Y10032500D03*
%TD*%
%TO.C,R16*%
X7302500Y148566500D03*
X7302500Y150216500D03*
%TD*%
%TO.C,R16*%
X7302500Y101838500D03*
X7302500Y103488500D03*
%TD*%
%TO.C,R16*%
X7302500Y55110500D03*
X7302500Y56760500D03*
%TD*%
D13*
%TO.C,C3*%
X67315000Y178284000D03*
X65765000Y178284000D03*
%TD*%
%TO.C,C3*%
X67315000Y131556000D03*
X65765000Y131556000D03*
%TD*%
%TO.C,C3*%
X67315000Y84828000D03*
X65765000Y84828000D03*
%TD*%
%TO.C,C3*%
X67315000Y38100000D03*
X65765000Y38100000D03*
%TD*%
%TO.C,C3*%
X23635000Y178284000D03*
X22085000Y178284000D03*
%TD*%
%TO.C,C3*%
X23635000Y131556000D03*
X22085000Y131556000D03*
%TD*%
%TO.C,C3*%
X23635000Y84828000D03*
X22085000Y84828000D03*
%TD*%
D16*
%TO.C,R9*%
X79747500Y155741500D03*
X78097500Y155741500D03*
%TD*%
%TO.C,R9*%
X79747500Y109013500D03*
X78097500Y109013500D03*
%TD*%
%TO.C,R9*%
X79747500Y62285500D03*
X78097500Y62285500D03*
%TD*%
%TO.C,R9*%
X79747500Y15557500D03*
X78097500Y15557500D03*
%TD*%
%TO.C,R9*%
X36067500Y155741500D03*
X34417500Y155741500D03*
%TD*%
%TO.C,R9*%
X36067500Y109013500D03*
X34417500Y109013500D03*
%TD*%
%TO.C,R9*%
X36067500Y62285500D03*
X34417500Y62285500D03*
%TD*%
D17*
%TO.C,U5*%
X50480000Y170854000D03*
X50480000Y170054000D03*
X50480000Y169254000D03*
X50480000Y168454000D03*
X50480000Y167654000D03*
X50480000Y166854000D03*
X50480000Y166054000D03*
X50480000Y165254000D03*
X50480000Y164454000D03*
X50480000Y163654000D03*
X50480000Y162854000D03*
D18*
X51580000Y161954000D03*
X52380000Y161954000D03*
X53180000Y161954000D03*
X53980000Y161954000D03*
X54780000Y161954000D03*
X55580000Y161954000D03*
X56380000Y161954000D03*
X57180000Y161954000D03*
X57980000Y161954000D03*
X58780000Y161954000D03*
X59580000Y161954000D03*
X60380000Y161954000D03*
X61180000Y161954000D03*
D17*
X62280000Y162854000D03*
X62280000Y163654000D03*
X62280000Y164454000D03*
X62280000Y165254000D03*
X62280000Y166054000D03*
X62280000Y166854000D03*
X62280000Y167654000D03*
X62280000Y168454000D03*
X62280000Y169254000D03*
X62280000Y170054000D03*
X62280000Y170854000D03*
D18*
X61180000Y171754000D03*
X60380000Y171754000D03*
X59580000Y171754000D03*
X58780000Y171754000D03*
X57980000Y171754000D03*
X57180000Y171754000D03*
X56380000Y171754000D03*
X55580000Y171754000D03*
X54780000Y171754000D03*
X53980000Y171754000D03*
X53180000Y171754000D03*
X52380000Y171754000D03*
X51580000Y171754000D03*
D19*
X62330000Y171804000D03*
X62330000Y161904000D03*
X50430000Y161904000D03*
X50430000Y171804000D03*
%TD*%
D17*
%TO.C,U5*%
X50480000Y124126000D03*
X50480000Y123326000D03*
X50480000Y122526000D03*
X50480000Y121726000D03*
X50480000Y120926000D03*
X50480000Y120126000D03*
X50480000Y119326000D03*
X50480000Y118526000D03*
X50480000Y117726000D03*
X50480000Y116926000D03*
X50480000Y116126000D03*
D18*
X51580000Y115226000D03*
X52380000Y115226000D03*
X53180000Y115226000D03*
X53980000Y115226000D03*
X54780000Y115226000D03*
X55580000Y115226000D03*
X56380000Y115226000D03*
X57180000Y115226000D03*
X57980000Y115226000D03*
X58780000Y115226000D03*
X59580000Y115226000D03*
X60380000Y115226000D03*
X61180000Y115226000D03*
D17*
X62280000Y116126000D03*
X62280000Y116926000D03*
X62280000Y117726000D03*
X62280000Y118526000D03*
X62280000Y119326000D03*
X62280000Y120126000D03*
X62280000Y120926000D03*
X62280000Y121726000D03*
X62280000Y122526000D03*
X62280000Y123326000D03*
X62280000Y124126000D03*
D18*
X61180000Y125026000D03*
X60380000Y125026000D03*
X59580000Y125026000D03*
X58780000Y125026000D03*
X57980000Y125026000D03*
X57180000Y125026000D03*
X56380000Y125026000D03*
X55580000Y125026000D03*
X54780000Y125026000D03*
X53980000Y125026000D03*
X53180000Y125026000D03*
X52380000Y125026000D03*
X51580000Y125026000D03*
D19*
X62330000Y125076000D03*
X62330000Y115176000D03*
X50430000Y115176000D03*
X50430000Y125076000D03*
%TD*%
D17*
%TO.C,U5*%
X50480000Y77398000D03*
X50480000Y76598000D03*
X50480000Y75798000D03*
X50480000Y74998000D03*
X50480000Y74198000D03*
X50480000Y73398000D03*
X50480000Y72598000D03*
X50480000Y71798000D03*
X50480000Y70998000D03*
X50480000Y70198000D03*
X50480000Y69398000D03*
D18*
X51580000Y68498000D03*
X52380000Y68498000D03*
X53180000Y68498000D03*
X53980000Y68498000D03*
X54780000Y68498000D03*
X55580000Y68498000D03*
X56380000Y68498000D03*
X57180000Y68498000D03*
X57980000Y68498000D03*
X58780000Y68498000D03*
X59580000Y68498000D03*
X60380000Y68498000D03*
X61180000Y68498000D03*
D17*
X62280000Y69398000D03*
X62280000Y70198000D03*
X62280000Y70998000D03*
X62280000Y71798000D03*
X62280000Y72598000D03*
X62280000Y73398000D03*
X62280000Y74198000D03*
X62280000Y74998000D03*
X62280000Y75798000D03*
X62280000Y76598000D03*
X62280000Y77398000D03*
D18*
X61180000Y78298000D03*
X60380000Y78298000D03*
X59580000Y78298000D03*
X58780000Y78298000D03*
X57980000Y78298000D03*
X57180000Y78298000D03*
X56380000Y78298000D03*
X55580000Y78298000D03*
X54780000Y78298000D03*
X53980000Y78298000D03*
X53180000Y78298000D03*
X52380000Y78298000D03*
X51580000Y78298000D03*
D19*
X62330000Y78348000D03*
X62330000Y68448000D03*
X50430000Y68448000D03*
X50430000Y78348000D03*
%TD*%
D17*
%TO.C,U5*%
X50480000Y30670000D03*
X50480000Y29870000D03*
X50480000Y29070000D03*
X50480000Y28270000D03*
X50480000Y27470000D03*
X50480000Y26670000D03*
X50480000Y25870000D03*
X50480000Y25070000D03*
X50480000Y24270000D03*
X50480000Y23470000D03*
X50480000Y22670000D03*
D18*
X51580000Y21770000D03*
X52380000Y21770000D03*
X53180000Y21770000D03*
X53980000Y21770000D03*
X54780000Y21770000D03*
X55580000Y21770000D03*
X56380000Y21770000D03*
X57180000Y21770000D03*
X57980000Y21770000D03*
X58780000Y21770000D03*
X59580000Y21770000D03*
X60380000Y21770000D03*
X61180000Y21770000D03*
D17*
X62280000Y22670000D03*
X62280000Y23470000D03*
X62280000Y24270000D03*
X62280000Y25070000D03*
X62280000Y25870000D03*
X62280000Y26670000D03*
X62280000Y27470000D03*
X62280000Y28270000D03*
X62280000Y29070000D03*
X62280000Y29870000D03*
X62280000Y30670000D03*
D18*
X61180000Y31570000D03*
X60380000Y31570000D03*
X59580000Y31570000D03*
X58780000Y31570000D03*
X57980000Y31570000D03*
X57180000Y31570000D03*
X56380000Y31570000D03*
X55580000Y31570000D03*
X54780000Y31570000D03*
X53980000Y31570000D03*
X53180000Y31570000D03*
X52380000Y31570000D03*
X51580000Y31570000D03*
D19*
X62330000Y31620000D03*
X62330000Y21720000D03*
X50430000Y21720000D03*
X50430000Y31620000D03*
%TD*%
D17*
%TO.C,U5*%
X6800000Y170854000D03*
X6800000Y170054000D03*
X6800000Y169254000D03*
X6800000Y168454000D03*
X6800000Y167654000D03*
X6800000Y166854000D03*
X6800000Y166054000D03*
X6800000Y165254000D03*
X6800000Y164454000D03*
X6800000Y163654000D03*
X6800000Y162854000D03*
D18*
X7900000Y161954000D03*
X8700000Y161954000D03*
X9500000Y161954000D03*
X10300000Y161954000D03*
X11100000Y161954000D03*
X11900000Y161954000D03*
X12700000Y161954000D03*
X13500000Y161954000D03*
X14300000Y161954000D03*
X15100000Y161954000D03*
X15900000Y161954000D03*
X16700000Y161954000D03*
X17500000Y161954000D03*
D17*
X18600000Y162854000D03*
X18600000Y163654000D03*
X18600000Y164454000D03*
X18600000Y165254000D03*
X18600000Y166054000D03*
X18600000Y166854000D03*
X18600000Y167654000D03*
X18600000Y168454000D03*
X18600000Y169254000D03*
X18600000Y170054000D03*
X18600000Y170854000D03*
D18*
X17500000Y171754000D03*
X16700000Y171754000D03*
X15900000Y171754000D03*
X15100000Y171754000D03*
X14300000Y171754000D03*
X13500000Y171754000D03*
X12700000Y171754000D03*
X11900000Y171754000D03*
X11100000Y171754000D03*
X10300000Y171754000D03*
X9500000Y171754000D03*
X8700000Y171754000D03*
X7900000Y171754000D03*
D19*
X18650000Y171804000D03*
X18650000Y161904000D03*
X6750000Y161904000D03*
X6750000Y171804000D03*
%TD*%
D17*
%TO.C,U5*%
X6800000Y124126000D03*
X6800000Y123326000D03*
X6800000Y122526000D03*
X6800000Y121726000D03*
X6800000Y120926000D03*
X6800000Y120126000D03*
X6800000Y119326000D03*
X6800000Y118526000D03*
X6800000Y117726000D03*
X6800000Y116926000D03*
X6800000Y116126000D03*
D18*
X7900000Y115226000D03*
X8700000Y115226000D03*
X9500000Y115226000D03*
X10300000Y115226000D03*
X11100000Y115226000D03*
X11900000Y115226000D03*
X12700000Y115226000D03*
X13500000Y115226000D03*
X14300000Y115226000D03*
X15100000Y115226000D03*
X15900000Y115226000D03*
X16700000Y115226000D03*
X17500000Y115226000D03*
D17*
X18600000Y116126000D03*
X18600000Y116926000D03*
X18600000Y117726000D03*
X18600000Y118526000D03*
X18600000Y119326000D03*
X18600000Y120126000D03*
X18600000Y120926000D03*
X18600000Y121726000D03*
X18600000Y122526000D03*
X18600000Y123326000D03*
X18600000Y124126000D03*
D18*
X17500000Y125026000D03*
X16700000Y125026000D03*
X15900000Y125026000D03*
X15100000Y125026000D03*
X14300000Y125026000D03*
X13500000Y125026000D03*
X12700000Y125026000D03*
X11900000Y125026000D03*
X11100000Y125026000D03*
X10300000Y125026000D03*
X9500000Y125026000D03*
X8700000Y125026000D03*
X7900000Y125026000D03*
D19*
X18650000Y125076000D03*
X18650000Y115176000D03*
X6750000Y115176000D03*
X6750000Y125076000D03*
%TD*%
D17*
%TO.C,U5*%
X6800000Y77398000D03*
X6800000Y76598000D03*
X6800000Y75798000D03*
X6800000Y74998000D03*
X6800000Y74198000D03*
X6800000Y73398000D03*
X6800000Y72598000D03*
X6800000Y71798000D03*
X6800000Y70998000D03*
X6800000Y70198000D03*
X6800000Y69398000D03*
D18*
X7900000Y68498000D03*
X8700000Y68498000D03*
X9500000Y68498000D03*
X10300000Y68498000D03*
X11100000Y68498000D03*
X11900000Y68498000D03*
X12700000Y68498000D03*
X13500000Y68498000D03*
X14300000Y68498000D03*
X15100000Y68498000D03*
X15900000Y68498000D03*
X16700000Y68498000D03*
X17500000Y68498000D03*
D17*
X18600000Y69398000D03*
X18600000Y70198000D03*
X18600000Y70998000D03*
X18600000Y71798000D03*
X18600000Y72598000D03*
X18600000Y73398000D03*
X18600000Y74198000D03*
X18600000Y74998000D03*
X18600000Y75798000D03*
X18600000Y76598000D03*
X18600000Y77398000D03*
D18*
X17500000Y78298000D03*
X16700000Y78298000D03*
X15900000Y78298000D03*
X15100000Y78298000D03*
X14300000Y78298000D03*
X13500000Y78298000D03*
X12700000Y78298000D03*
X11900000Y78298000D03*
X11100000Y78298000D03*
X10300000Y78298000D03*
X9500000Y78298000D03*
X8700000Y78298000D03*
X7900000Y78298000D03*
D19*
X18650000Y78348000D03*
X18650000Y68448000D03*
X6750000Y68448000D03*
X6750000Y78348000D03*
%TD*%
D20*
%TO.C,C1*%
X79875000Y152744000D03*
X79875000Y154294000D03*
%TD*%
%TO.C,C1*%
X79875000Y106016000D03*
X79875000Y107566000D03*
%TD*%
%TO.C,C1*%
X79875000Y59288000D03*
X79875000Y60838000D03*
%TD*%
%TO.C,C1*%
X79875000Y12560000D03*
X79875000Y14110000D03*
%TD*%
%TO.C,C1*%
X36195000Y152744000D03*
X36195000Y154294000D03*
%TD*%
%TO.C,C1*%
X36195000Y106016000D03*
X36195000Y107566000D03*
%TD*%
%TO.C,C1*%
X36195000Y59288000D03*
X36195000Y60838000D03*
%TD*%
D21*
%TO.C,J6*%
X77715000Y175744000D03*
D22*
X79240000Y174369000D03*
X79240000Y177119000D03*
%TD*%
D21*
%TO.C,J6*%
X77715000Y129016000D03*
D22*
X79240000Y127641000D03*
X79240000Y130391000D03*
%TD*%
D21*
%TO.C,J6*%
X77715000Y82288000D03*
D22*
X79240000Y80913000D03*
X79240000Y83663000D03*
%TD*%
D21*
%TO.C,J6*%
X77715000Y35560000D03*
D22*
X79240000Y34185000D03*
X79240000Y36935000D03*
%TD*%
D21*
%TO.C,J6*%
X34035000Y175744000D03*
D22*
X35560000Y174369000D03*
X35560000Y177119000D03*
%TD*%
D21*
%TO.C,J6*%
X34035000Y129016000D03*
D22*
X35560000Y127641000D03*
X35560000Y130391000D03*
%TD*%
D21*
%TO.C,J6*%
X34035000Y82288000D03*
D22*
X35560000Y80913000D03*
X35560000Y83663000D03*
%TD*%
D16*
%TO.C,R6*%
X67365000Y174474000D03*
X65715000Y174474000D03*
%TD*%
%TO.C,R6*%
X67365000Y127746000D03*
X65715000Y127746000D03*
%TD*%
%TO.C,R6*%
X67365000Y81018000D03*
X65715000Y81018000D03*
%TD*%
%TO.C,R6*%
X67365000Y34290000D03*
X65715000Y34290000D03*
%TD*%
%TO.C,R6*%
X23685000Y174474000D03*
X22035000Y174474000D03*
%TD*%
%TO.C,R6*%
X23685000Y127746000D03*
X22035000Y127746000D03*
%TD*%
%TO.C,R6*%
X23685000Y81018000D03*
X22035000Y81018000D03*
%TD*%
D23*
%TO.C,Q1*%
X55730000Y155806500D03*
X56380000Y155806500D03*
X57030000Y155806500D03*
X57030000Y157646500D03*
X56380000Y157646500D03*
X55730000Y157646500D03*
%TD*%
%TO.C,Q1*%
X55730000Y109078500D03*
X56380000Y109078500D03*
X57030000Y109078500D03*
X57030000Y110918500D03*
X56380000Y110918500D03*
X55730000Y110918500D03*
%TD*%
%TO.C,Q1*%
X55730000Y62350500D03*
X56380000Y62350500D03*
X57030000Y62350500D03*
X57030000Y64190500D03*
X56380000Y64190500D03*
X55730000Y64190500D03*
%TD*%
%TO.C,Q1*%
X55730000Y15622500D03*
X56380000Y15622500D03*
X57030000Y15622500D03*
X57030000Y17462500D03*
X56380000Y17462500D03*
X55730000Y17462500D03*
%TD*%
%TO.C,Q1*%
X12050000Y155806500D03*
X12700000Y155806500D03*
X13350000Y155806500D03*
X13350000Y157646500D03*
X12700000Y157646500D03*
X12050000Y157646500D03*
%TD*%
%TO.C,Q1*%
X12050000Y109078500D03*
X12700000Y109078500D03*
X13350000Y109078500D03*
X13350000Y110918500D03*
X12700000Y110918500D03*
X12050000Y110918500D03*
%TD*%
%TO.C,Q1*%
X12050000Y62350500D03*
X12700000Y62350500D03*
X13350000Y62350500D03*
X13350000Y64190500D03*
X12700000Y64190500D03*
X12050000Y64190500D03*
%TD*%
D11*
%TO.C,R17*%
X79875000Y149581500D03*
X79875000Y147931500D03*
%TD*%
%TO.C,R17*%
X79875000Y102853500D03*
X79875000Y101203500D03*
%TD*%
%TO.C,R17*%
X79875000Y56125500D03*
X79875000Y54475500D03*
%TD*%
%TO.C,R17*%
X79875000Y9397500D03*
X79875000Y7747500D03*
%TD*%
%TO.C,R17*%
X36195000Y149581500D03*
X36195000Y147931500D03*
%TD*%
%TO.C,R17*%
X36195000Y102853500D03*
X36195000Y101203500D03*
%TD*%
%TO.C,R17*%
X36195000Y56125500D03*
X36195000Y54475500D03*
%TD*%
D24*
%TO.C,SW4*%
X53687500Y158744000D03*
X53687500Y154644000D03*
X52087500Y158744000D03*
X52087500Y154644000D03*
%TD*%
%TO.C,SW4*%
X53687500Y112016000D03*
X53687500Y107916000D03*
X52087500Y112016000D03*
X52087500Y107916000D03*
%TD*%
%TO.C,SW4*%
X53687500Y65288000D03*
X53687500Y61188000D03*
X52087500Y65288000D03*
X52087500Y61188000D03*
%TD*%
%TO.C,SW4*%
X53687500Y18560000D03*
X53687500Y14460000D03*
X52087500Y18560000D03*
X52087500Y14460000D03*
%TD*%
%TO.C,SW4*%
X10007500Y158744000D03*
X10007500Y154644000D03*
X8407500Y158744000D03*
X8407500Y154644000D03*
%TD*%
%TO.C,SW4*%
X10007500Y112016000D03*
X10007500Y107916000D03*
X8407500Y112016000D03*
X8407500Y107916000D03*
%TD*%
%TO.C,SW4*%
X10007500Y65288000D03*
X10007500Y61188000D03*
X8407500Y65288000D03*
X8407500Y61188000D03*
%TD*%
D25*
%TO.C,R13*%
X55555000Y152249000D03*
X57205000Y152249000D03*
%TD*%
%TO.C,R13*%
X55555000Y105521000D03*
X57205000Y105521000D03*
%TD*%
%TO.C,R13*%
X55555000Y58793000D03*
X57205000Y58793000D03*
%TD*%
%TO.C,R13*%
X55555000Y12065000D03*
X57205000Y12065000D03*
%TD*%
%TO.C,R13*%
X11875000Y152249000D03*
X13525000Y152249000D03*
%TD*%
%TO.C,R13*%
X11875000Y105521000D03*
X13525000Y105521000D03*
%TD*%
%TO.C,R13*%
X11875000Y58793000D03*
X13525000Y58793000D03*
%TD*%
D26*
%TO.C,U1*%
X67779900Y150024000D03*
X67779900Y149074000D03*
X67779900Y148124000D03*
X70380100Y148124000D03*
X70380000Y149074000D03*
X70380100Y150024000D03*
%TD*%
%TO.C,U1*%
X67779900Y103296000D03*
X67779900Y102346000D03*
X67779900Y101396000D03*
X70380100Y101396000D03*
X70380000Y102346000D03*
X70380100Y103296000D03*
%TD*%
%TO.C,U1*%
X67779900Y56568000D03*
X67779900Y55618000D03*
X67779900Y54668000D03*
X70380100Y54668000D03*
X70380000Y55618000D03*
X70380100Y56568000D03*
%TD*%
%TO.C,U1*%
X67779900Y9840000D03*
X67779900Y8890000D03*
X67779900Y7940000D03*
X70380100Y7940000D03*
X70380000Y8890000D03*
X70380100Y9840000D03*
%TD*%
%TO.C,U1*%
X24099900Y150024000D03*
X24099900Y149074000D03*
X24099900Y148124000D03*
X26700100Y148124000D03*
X26700000Y149074000D03*
X26700100Y150024000D03*
%TD*%
%TO.C,U1*%
X24099900Y103296000D03*
X24099900Y102346000D03*
X24099900Y101396000D03*
X26700100Y101396000D03*
X26700000Y102346000D03*
X26700100Y103296000D03*
%TD*%
%TO.C,U1*%
X24099900Y56568000D03*
X24099900Y55618000D03*
X24099900Y54668000D03*
X26700100Y54668000D03*
X26700000Y55618000D03*
X26700100Y56568000D03*
%TD*%
D27*
%TO.C,J4*%
X81780000Y147574000D03*
X81780000Y148574000D03*
X81780000Y149574000D03*
X81780000Y150574000D03*
D28*
X85455000Y151874000D03*
X85455000Y146274000D03*
%TD*%
D27*
%TO.C,J4*%
X81780000Y100846000D03*
X81780000Y101846000D03*
X81780000Y102846000D03*
X81780000Y103846000D03*
D28*
X85455000Y105146000D03*
X85455000Y99546000D03*
%TD*%
D27*
%TO.C,J4*%
X81780000Y54118000D03*
X81780000Y55118000D03*
X81780000Y56118000D03*
X81780000Y57118000D03*
D28*
X85455000Y58418000D03*
X85455000Y52818000D03*
%TD*%
D27*
%TO.C,J4*%
X81780000Y7390000D03*
X81780000Y8390000D03*
X81780000Y9390000D03*
X81780000Y10390000D03*
D28*
X85455000Y11690000D03*
X85455000Y6090000D03*
%TD*%
D27*
%TO.C,J4*%
X38100000Y147574000D03*
X38100000Y148574000D03*
X38100000Y149574000D03*
X38100000Y150574000D03*
D28*
X41775000Y151874000D03*
X41775000Y146274000D03*
%TD*%
D27*
%TO.C,J4*%
X38100000Y100846000D03*
X38100000Y101846000D03*
X38100000Y102846000D03*
X38100000Y103846000D03*
D28*
X41775000Y105146000D03*
X41775000Y99546000D03*
%TD*%
D27*
%TO.C,J4*%
X38100000Y54118000D03*
X38100000Y55118000D03*
X38100000Y56118000D03*
X38100000Y57118000D03*
D28*
X41775000Y58418000D03*
X41775000Y52818000D03*
%TD*%
D29*
%TO.C,C6*%
X70512500Y175426500D03*
X69552500Y175426500D03*
%TD*%
%TO.C,C6*%
X70512500Y128698500D03*
X69552500Y128698500D03*
%TD*%
%TO.C,C6*%
X70512500Y81970500D03*
X69552500Y81970500D03*
%TD*%
%TO.C,C6*%
X70512500Y35242500D03*
X69552500Y35242500D03*
%TD*%
%TO.C,C6*%
X26832500Y175426500D03*
X25872500Y175426500D03*
%TD*%
%TO.C,C6*%
X26832500Y128698500D03*
X25872500Y128698500D03*
%TD*%
%TO.C,C6*%
X26832500Y81970500D03*
X25872500Y81970500D03*
%TD*%
D30*
%TO.C,C10*%
X70350000Y154294000D03*
X70350000Y152744000D03*
%TD*%
%TO.C,C10*%
X70350000Y107566000D03*
X70350000Y106016000D03*
%TD*%
%TO.C,C10*%
X70350000Y60838000D03*
X70350000Y59288000D03*
%TD*%
%TO.C,C10*%
X70350000Y14110000D03*
X70350000Y12560000D03*
%TD*%
%TO.C,C10*%
X26670000Y154294000D03*
X26670000Y152744000D03*
%TD*%
%TO.C,C10*%
X26670000Y107566000D03*
X26670000Y106016000D03*
%TD*%
%TO.C,C10*%
X26670000Y60838000D03*
X26670000Y59288000D03*
%TD*%
D31*
%TO.C,U4*%
X73485000Y152844000D03*
X74835000Y152844000D03*
X73485000Y154194000D03*
X74835000Y154194000D03*
D32*
X72910000Y151556500D03*
X73410000Y151556500D03*
X73910000Y151556500D03*
X74410000Y151556500D03*
X74910000Y151556500D03*
X75410000Y151556500D03*
D33*
X76122500Y152269000D03*
X76122500Y152769000D03*
X76122500Y153269000D03*
X76122500Y153769000D03*
X76122500Y154269000D03*
X76122500Y154769000D03*
D32*
X75410000Y155481500D03*
X74910000Y155481500D03*
X74410000Y155481500D03*
X73910000Y155481500D03*
X73410000Y155481500D03*
X72910000Y155481500D03*
D33*
X72197500Y154769000D03*
X72197500Y154269000D03*
X72197500Y153769000D03*
X72197500Y153269000D03*
X72197500Y152769000D03*
X72197500Y152269000D03*
%TD*%
D31*
%TO.C,U4*%
X73485000Y106116000D03*
X74835000Y106116000D03*
X73485000Y107466000D03*
X74835000Y107466000D03*
D32*
X72910000Y104828500D03*
X73410000Y104828500D03*
X73910000Y104828500D03*
X74410000Y104828500D03*
X74910000Y104828500D03*
X75410000Y104828500D03*
D33*
X76122500Y105541000D03*
X76122500Y106041000D03*
X76122500Y106541000D03*
X76122500Y107041000D03*
X76122500Y107541000D03*
X76122500Y108041000D03*
D32*
X75410000Y108753500D03*
X74910000Y108753500D03*
X74410000Y108753500D03*
X73910000Y108753500D03*
X73410000Y108753500D03*
X72910000Y108753500D03*
D33*
X72197500Y108041000D03*
X72197500Y107541000D03*
X72197500Y107041000D03*
X72197500Y106541000D03*
X72197500Y106041000D03*
X72197500Y105541000D03*
%TD*%
D31*
%TO.C,U4*%
X73485000Y59388000D03*
X74835000Y59388000D03*
X73485000Y60738000D03*
X74835000Y60738000D03*
D32*
X72910000Y58100500D03*
X73410000Y58100500D03*
X73910000Y58100500D03*
X74410000Y58100500D03*
X74910000Y58100500D03*
X75410000Y58100500D03*
D33*
X76122500Y58813000D03*
X76122500Y59313000D03*
X76122500Y59813000D03*
X76122500Y60313000D03*
X76122500Y60813000D03*
X76122500Y61313000D03*
D32*
X75410000Y62025500D03*
X74910000Y62025500D03*
X74410000Y62025500D03*
X73910000Y62025500D03*
X73410000Y62025500D03*
X72910000Y62025500D03*
D33*
X72197500Y61313000D03*
X72197500Y60813000D03*
X72197500Y60313000D03*
X72197500Y59813000D03*
X72197500Y59313000D03*
X72197500Y58813000D03*
%TD*%
D31*
%TO.C,U4*%
X73485000Y12660000D03*
X74835000Y12660000D03*
X73485000Y14010000D03*
X74835000Y14010000D03*
D32*
X72910000Y11372500D03*
X73410000Y11372500D03*
X73910000Y11372500D03*
X74410000Y11372500D03*
X74910000Y11372500D03*
X75410000Y11372500D03*
D33*
X76122500Y12085000D03*
X76122500Y12585000D03*
X76122500Y13085000D03*
X76122500Y13585000D03*
X76122500Y14085000D03*
X76122500Y14585000D03*
D32*
X75410000Y15297500D03*
X74910000Y15297500D03*
X74410000Y15297500D03*
X73910000Y15297500D03*
X73410000Y15297500D03*
X72910000Y15297500D03*
D33*
X72197500Y14585000D03*
X72197500Y14085000D03*
X72197500Y13585000D03*
X72197500Y13085000D03*
X72197500Y12585000D03*
X72197500Y12085000D03*
%TD*%
D31*
%TO.C,U4*%
X29805000Y152844000D03*
X31155000Y152844000D03*
X29805000Y154194000D03*
X31155000Y154194000D03*
D32*
X29230000Y151556500D03*
X29730000Y151556500D03*
X30230000Y151556500D03*
X30730000Y151556500D03*
X31230000Y151556500D03*
X31730000Y151556500D03*
D33*
X32442500Y152269000D03*
X32442500Y152769000D03*
X32442500Y153269000D03*
X32442500Y153769000D03*
X32442500Y154269000D03*
X32442500Y154769000D03*
D32*
X31730000Y155481500D03*
X31230000Y155481500D03*
X30730000Y155481500D03*
X30230000Y155481500D03*
X29730000Y155481500D03*
X29230000Y155481500D03*
D33*
X28517500Y154769000D03*
X28517500Y154269000D03*
X28517500Y153769000D03*
X28517500Y153269000D03*
X28517500Y152769000D03*
X28517500Y152269000D03*
%TD*%
D31*
%TO.C,U4*%
X29805000Y106116000D03*
X31155000Y106116000D03*
X29805000Y107466000D03*
X31155000Y107466000D03*
D32*
X29230000Y104828500D03*
X29730000Y104828500D03*
X30230000Y104828500D03*
X30730000Y104828500D03*
X31230000Y104828500D03*
X31730000Y104828500D03*
D33*
X32442500Y105541000D03*
X32442500Y106041000D03*
X32442500Y106541000D03*
X32442500Y107041000D03*
X32442500Y107541000D03*
X32442500Y108041000D03*
D32*
X31730000Y108753500D03*
X31230000Y108753500D03*
X30730000Y108753500D03*
X30230000Y108753500D03*
X29730000Y108753500D03*
X29230000Y108753500D03*
D33*
X28517500Y108041000D03*
X28517500Y107541000D03*
X28517500Y107041000D03*
X28517500Y106541000D03*
X28517500Y106041000D03*
X28517500Y105541000D03*
%TD*%
D31*
%TO.C,U4*%
X29805000Y59388000D03*
X31155000Y59388000D03*
X29805000Y60738000D03*
X31155000Y60738000D03*
D32*
X29230000Y58100500D03*
X29730000Y58100500D03*
X30230000Y58100500D03*
X30730000Y58100500D03*
X31230000Y58100500D03*
X31730000Y58100500D03*
D33*
X32442500Y58813000D03*
X32442500Y59313000D03*
X32442500Y59813000D03*
X32442500Y60313000D03*
X32442500Y60813000D03*
X32442500Y61313000D03*
D32*
X31730000Y62025500D03*
X31230000Y62025500D03*
X30730000Y62025500D03*
X30230000Y62025500D03*
X29730000Y62025500D03*
X29230000Y62025500D03*
D33*
X28517500Y61313000D03*
X28517500Y60813000D03*
X28517500Y60313000D03*
X28517500Y59813000D03*
X28517500Y59313000D03*
X28517500Y58813000D03*
%TD*%
D34*
%TO.C,R19*%
X74160000Y176662750D03*
X74160000Y177682750D03*
%TD*%
%TO.C,R19*%
X74160000Y129934750D03*
X74160000Y130954750D03*
%TD*%
%TO.C,R19*%
X74160000Y83206750D03*
X74160000Y84226750D03*
%TD*%
%TO.C,R19*%
X74160000Y36478750D03*
X74160000Y37498750D03*
%TD*%
%TO.C,R19*%
X30480000Y176662750D03*
X30480000Y177682750D03*
%TD*%
%TO.C,R19*%
X30480000Y129934750D03*
X30480000Y130954750D03*
%TD*%
%TO.C,R19*%
X30480000Y83206750D03*
X30480000Y84226750D03*
%TD*%
D24*
%TO.C,SW5*%
X59072500Y154644000D03*
X59072500Y158744000D03*
X60672500Y154644000D03*
X60672500Y158744000D03*
%TD*%
%TO.C,SW5*%
X59072500Y107916000D03*
X59072500Y112016000D03*
X60672500Y107916000D03*
X60672500Y112016000D03*
%TD*%
%TO.C,SW5*%
X59072500Y61188000D03*
X59072500Y65288000D03*
X60672500Y61188000D03*
X60672500Y65288000D03*
%TD*%
%TO.C,SW5*%
X59072500Y14460000D03*
X59072500Y18560000D03*
X60672500Y14460000D03*
X60672500Y18560000D03*
%TD*%
%TO.C,SW5*%
X15392500Y154644000D03*
X15392500Y158744000D03*
X16992500Y154644000D03*
X16992500Y158744000D03*
%TD*%
%TO.C,SW5*%
X15392500Y107916000D03*
X15392500Y112016000D03*
X16992500Y107916000D03*
X16992500Y112016000D03*
%TD*%
%TO.C,SW5*%
X15392500Y61188000D03*
X15392500Y65288000D03*
X16992500Y61188000D03*
X16992500Y65288000D03*
%TD*%
D25*
%TO.C,R10*%
X55555000Y154154000D03*
X57205000Y154154000D03*
%TD*%
%TO.C,R10*%
X55555000Y107426000D03*
X57205000Y107426000D03*
%TD*%
%TO.C,R10*%
X55555000Y60698000D03*
X57205000Y60698000D03*
%TD*%
%TO.C,R10*%
X55555000Y13970000D03*
X57205000Y13970000D03*
%TD*%
%TO.C,R10*%
X11875000Y154154000D03*
X13525000Y154154000D03*
%TD*%
%TO.C,R10*%
X11875000Y107426000D03*
X13525000Y107426000D03*
%TD*%
%TO.C,R10*%
X11875000Y60698000D03*
X13525000Y60698000D03*
%TD*%
D20*
%TO.C,C7*%
X77970000Y152744000D03*
X77970000Y154294000D03*
%TD*%
%TO.C,C7*%
X77970000Y106016000D03*
X77970000Y107566000D03*
%TD*%
%TO.C,C7*%
X77970000Y59288000D03*
X77970000Y60838000D03*
%TD*%
%TO.C,C7*%
X77970000Y12560000D03*
X77970000Y14110000D03*
%TD*%
%TO.C,C7*%
X34290000Y152744000D03*
X34290000Y154294000D03*
%TD*%
%TO.C,C7*%
X34290000Y106016000D03*
X34290000Y107566000D03*
%TD*%
%TO.C,C7*%
X34290000Y59288000D03*
X34290000Y60838000D03*
%TD*%
D35*
%TO.C,F1*%
X75560000Y149074000D03*
X72760000Y149074000D03*
%TD*%
%TO.C,F1*%
X75560000Y102346000D03*
X72760000Y102346000D03*
%TD*%
%TO.C,F1*%
X75560000Y55618000D03*
X72760000Y55618000D03*
%TD*%
%TO.C,F1*%
X75560000Y8890000D03*
X72760000Y8890000D03*
%TD*%
%TO.C,F1*%
X31880000Y149074000D03*
X29080000Y149074000D03*
%TD*%
%TO.C,F1*%
X31880000Y102346000D03*
X29080000Y102346000D03*
%TD*%
%TO.C,F1*%
X31880000Y55618000D03*
X29080000Y55618000D03*
%TD*%
D20*
%TO.C,C8*%
X69715000Y157189000D03*
X69715000Y158739000D03*
%TD*%
%TO.C,C8*%
X69715000Y110461000D03*
X69715000Y112011000D03*
%TD*%
%TO.C,C8*%
X69715000Y63733000D03*
X69715000Y65283000D03*
%TD*%
%TO.C,C8*%
X69715000Y17005000D03*
X69715000Y18555000D03*
%TD*%
%TO.C,C8*%
X26035000Y157189000D03*
X26035000Y158739000D03*
%TD*%
%TO.C,C8*%
X26035000Y110461000D03*
X26035000Y112011000D03*
%TD*%
%TO.C,C8*%
X26035000Y63733000D03*
X26035000Y65283000D03*
%TD*%
D13*
%TO.C,C4*%
X67315000Y176379000D03*
X65765000Y176379000D03*
%TD*%
%TO.C,C4*%
X67315000Y129651000D03*
X65765000Y129651000D03*
%TD*%
%TO.C,C4*%
X67315000Y82923000D03*
X65765000Y82923000D03*
%TD*%
%TO.C,C4*%
X67315000Y36195000D03*
X65765000Y36195000D03*
%TD*%
%TO.C,C4*%
X23635000Y176379000D03*
X22085000Y176379000D03*
%TD*%
%TO.C,C4*%
X23635000Y129651000D03*
X22085000Y129651000D03*
%TD*%
%TO.C,C4*%
X23635000Y82923000D03*
X22085000Y82923000D03*
%TD*%
D26*
%TO.C,U2*%
X78000100Y157014000D03*
X78000100Y157964000D03*
X78000100Y158914000D03*
X75399900Y158914000D03*
X75399900Y157014000D03*
%TD*%
%TO.C,U2*%
X78000100Y110286000D03*
X78000100Y111236000D03*
X78000100Y112186000D03*
X75399900Y112186000D03*
X75399900Y110286000D03*
%TD*%
%TO.C,U2*%
X78000100Y63558000D03*
X78000100Y64508000D03*
X78000100Y65458000D03*
X75399900Y65458000D03*
X75399900Y63558000D03*
%TD*%
%TO.C,U2*%
X78000100Y16830000D03*
X78000100Y17780000D03*
X78000100Y18730000D03*
X75399900Y18730000D03*
X75399900Y16830000D03*
%TD*%
%TO.C,U2*%
X34320100Y157014000D03*
X34320100Y157964000D03*
X34320100Y158914000D03*
X31719900Y158914000D03*
X31719900Y157014000D03*
%TD*%
%TO.C,U2*%
X34320100Y110286000D03*
X34320100Y111236000D03*
X34320100Y112186000D03*
X31719900Y112186000D03*
X31719900Y110286000D03*
%TD*%
%TO.C,U2*%
X34320100Y63558000D03*
X34320100Y64508000D03*
X34320100Y65458000D03*
X31719900Y65458000D03*
X31719900Y63558000D03*
%TD*%
D27*
%TO.C,J7*%
X48760000Y150574000D03*
X48760000Y149574000D03*
X48760000Y148574000D03*
X48760000Y147574000D03*
D28*
X45085000Y146274000D03*
X45085000Y151874000D03*
%TD*%
D27*
%TO.C,J7*%
X48760000Y103846000D03*
X48760000Y102846000D03*
X48760000Y101846000D03*
X48760000Y100846000D03*
D28*
X45085000Y99546000D03*
X45085000Y105146000D03*
%TD*%
D27*
%TO.C,J7*%
X48760000Y57118000D03*
X48760000Y56118000D03*
X48760000Y55118000D03*
X48760000Y54118000D03*
D28*
X45085000Y52818000D03*
X45085000Y58418000D03*
%TD*%
D27*
%TO.C,J7*%
X48760000Y10390000D03*
X48760000Y9390000D03*
X48760000Y8390000D03*
X48760000Y7390000D03*
D28*
X45085000Y6090000D03*
X45085000Y11690000D03*
%TD*%
D27*
%TO.C,J7*%
X5080000Y150574000D03*
X5080000Y149574000D03*
X5080000Y148574000D03*
X5080000Y147574000D03*
D28*
X1405000Y146274000D03*
X1405000Y151874000D03*
%TD*%
D27*
%TO.C,J7*%
X5080000Y103846000D03*
X5080000Y102846000D03*
X5080000Y101846000D03*
X5080000Y100846000D03*
D28*
X1405000Y99546000D03*
X1405000Y105146000D03*
%TD*%
D27*
%TO.C,J7*%
X5080000Y57118000D03*
X5080000Y56118000D03*
X5080000Y55118000D03*
X5080000Y54118000D03*
D28*
X1405000Y52818000D03*
X1405000Y58418000D03*
%TD*%
D15*
%TO.C,R1*%
X79875000Y142534000D03*
X79875000Y144184000D03*
%TD*%
%TO.C,R1*%
X79875000Y95806000D03*
X79875000Y97456000D03*
%TD*%
%TO.C,R1*%
X79875000Y49078000D03*
X79875000Y50728000D03*
%TD*%
%TO.C,R1*%
X79875000Y2350000D03*
X79875000Y4000000D03*
%TD*%
%TO.C,R1*%
X36195000Y142534000D03*
X36195000Y144184000D03*
%TD*%
%TO.C,R1*%
X36195000Y95806000D03*
X36195000Y97456000D03*
%TD*%
%TO.C,R1*%
X36195000Y49078000D03*
X36195000Y50728000D03*
%TD*%
D36*
%TO.C,D9*%
X50982500Y144794000D03*
X50982500Y146369000D03*
%TD*%
%TO.C,D9*%
X50982500Y98066000D03*
X50982500Y99641000D03*
%TD*%
%TO.C,D9*%
X50982500Y51338000D03*
X50982500Y52913000D03*
%TD*%
%TO.C,D9*%
X50982500Y4610000D03*
X50982500Y6185000D03*
%TD*%
%TO.C,D9*%
X7302500Y144794000D03*
X7302500Y146369000D03*
%TD*%
%TO.C,D9*%
X7302500Y98066000D03*
X7302500Y99641000D03*
%TD*%
%TO.C,D9*%
X7302500Y51338000D03*
X7302500Y52913000D03*
%TD*%
%TO.C,D6*%
X57332500Y144794000D03*
X57332500Y146369000D03*
%TD*%
%TO.C,D6*%
X57332500Y98066000D03*
X57332500Y99641000D03*
%TD*%
%TO.C,D6*%
X57332500Y51338000D03*
X57332500Y52913000D03*
%TD*%
%TO.C,D6*%
X57332500Y4610000D03*
X57332500Y6185000D03*
%TD*%
%TO.C,D6*%
X13652500Y144794000D03*
X13652500Y146369000D03*
%TD*%
%TO.C,D6*%
X13652500Y98066000D03*
X13652500Y99641000D03*
%TD*%
%TO.C,D6*%
X13652500Y51338000D03*
X13652500Y52913000D03*
%TD*%
D25*
%TO.C,R15*%
X65715000Y182094000D03*
X67365000Y182094000D03*
%TD*%
%TO.C,R15*%
X65715000Y135366000D03*
X67365000Y135366000D03*
%TD*%
%TO.C,R15*%
X65715000Y88638000D03*
X67365000Y88638000D03*
%TD*%
%TO.C,R15*%
X65715000Y41910000D03*
X67365000Y41910000D03*
%TD*%
%TO.C,R15*%
X22035000Y182094000D03*
X23685000Y182094000D03*
%TD*%
%TO.C,R15*%
X22035000Y135366000D03*
X23685000Y135366000D03*
%TD*%
%TO.C,R15*%
X22035000Y88638000D03*
X23685000Y88638000D03*
%TD*%
D14*
%TO.C,D3*%
X72890000Y176541500D03*
X72890000Y175581500D03*
%TD*%
%TO.C,D3*%
X72890000Y129813500D03*
X72890000Y128853500D03*
%TD*%
%TO.C,D3*%
X72890000Y83085500D03*
X72890000Y82125500D03*
%TD*%
%TO.C,D3*%
X72890000Y36357500D03*
X72890000Y35397500D03*
%TD*%
%TO.C,D3*%
X29210000Y176541500D03*
X29210000Y175581500D03*
%TD*%
%TO.C,D3*%
X29210000Y129813500D03*
X29210000Y128853500D03*
%TD*%
%TO.C,D3*%
X29210000Y83085500D03*
X29210000Y82125500D03*
%TD*%
D30*
%TO.C,C12*%
X48760000Y167629000D03*
X48760000Y166079000D03*
%TD*%
%TO.C,C12*%
X48760000Y120901000D03*
X48760000Y119351000D03*
%TD*%
%TO.C,C12*%
X48760000Y74173000D03*
X48760000Y72623000D03*
%TD*%
%TO.C,C12*%
X48760000Y27445000D03*
X48760000Y25895000D03*
%TD*%
%TO.C,C12*%
X5080000Y167629000D03*
X5080000Y166079000D03*
%TD*%
%TO.C,C12*%
X5080000Y120901000D03*
X5080000Y119351000D03*
%TD*%
%TO.C,C12*%
X5080000Y74173000D03*
X5080000Y72623000D03*
%TD*%
D36*
%TO.C,D2*%
X52570000Y144794000D03*
X52570000Y146369000D03*
%TD*%
%TO.C,D2*%
X52570000Y98066000D03*
X52570000Y99641000D03*
%TD*%
%TO.C,D2*%
X52570000Y51338000D03*
X52570000Y52913000D03*
%TD*%
%TO.C,D2*%
X52570000Y4610000D03*
X52570000Y6185000D03*
%TD*%
%TO.C,D2*%
X8890000Y144794000D03*
X8890000Y146369000D03*
%TD*%
%TO.C,D2*%
X8890000Y98066000D03*
X8890000Y99641000D03*
%TD*%
%TO.C,D2*%
X8890000Y51338000D03*
X8890000Y52913000D03*
%TD*%
D20*
%TO.C,C2*%
X73525000Y157189000D03*
X73525000Y158739000D03*
%TD*%
%TO.C,C2*%
X73525000Y110461000D03*
X73525000Y112011000D03*
%TD*%
%TO.C,C2*%
X73525000Y63733000D03*
X73525000Y65283000D03*
%TD*%
%TO.C,C2*%
X73525000Y17005000D03*
X73525000Y18555000D03*
%TD*%
%TO.C,C2*%
X29845000Y157189000D03*
X29845000Y158739000D03*
%TD*%
%TO.C,C2*%
X29845000Y110461000D03*
X29845000Y112011000D03*
%TD*%
%TO.C,C2*%
X29845000Y63733000D03*
X29845000Y65283000D03*
%TD*%
D15*
%TO.C,R4*%
X55745000Y148566500D03*
X55745000Y150216500D03*
%TD*%
%TO.C,R4*%
X55745000Y101838500D03*
X55745000Y103488500D03*
%TD*%
%TO.C,R4*%
X55745000Y55110500D03*
X55745000Y56760500D03*
%TD*%
%TO.C,R4*%
X55745000Y8382500D03*
X55745000Y10032500D03*
%TD*%
%TO.C,R4*%
X12065000Y148566500D03*
X12065000Y150216500D03*
%TD*%
%TO.C,R4*%
X12065000Y101838500D03*
X12065000Y103488500D03*
%TD*%
%TO.C,R4*%
X12065000Y55110500D03*
X12065000Y56760500D03*
%TD*%
D36*
%TO.C,D1*%
X55745000Y144794000D03*
X55745000Y146369000D03*
%TD*%
%TO.C,D1*%
X55745000Y98066000D03*
X55745000Y99641000D03*
%TD*%
%TO.C,D1*%
X55745000Y51338000D03*
X55745000Y52913000D03*
%TD*%
%TO.C,D1*%
X55745000Y4610000D03*
X55745000Y6185000D03*
%TD*%
%TO.C,D1*%
X12065000Y144794000D03*
X12065000Y146369000D03*
%TD*%
%TO.C,D1*%
X12065000Y98066000D03*
X12065000Y99641000D03*
%TD*%
%TO.C,D1*%
X12065000Y51338000D03*
X12065000Y52913000D03*
%TD*%
D15*
%TO.C,R5*%
X54157500Y148566500D03*
X54157500Y150216500D03*
%TD*%
%TO.C,R5*%
X54157500Y101838500D03*
X54157500Y103488500D03*
%TD*%
%TO.C,R5*%
X54157500Y55110500D03*
X54157500Y56760500D03*
%TD*%
%TO.C,R5*%
X54157500Y8382500D03*
X54157500Y10032500D03*
%TD*%
%TO.C,R5*%
X10477500Y148566500D03*
X10477500Y150216500D03*
%TD*%
%TO.C,R5*%
X10477500Y101838500D03*
X10477500Y103488500D03*
%TD*%
%TO.C,R5*%
X10477500Y55110500D03*
X10477500Y56760500D03*
%TD*%
%TO.C,R2*%
X68445000Y142534000D03*
X68445000Y144184000D03*
%TD*%
%TO.C,R2*%
X68445000Y95806000D03*
X68445000Y97456000D03*
%TD*%
%TO.C,R2*%
X68445000Y49078000D03*
X68445000Y50728000D03*
%TD*%
%TO.C,R2*%
X68445000Y2350000D03*
X68445000Y4000000D03*
%TD*%
%TO.C,R2*%
X24765000Y142534000D03*
X24765000Y144184000D03*
%TD*%
%TO.C,R2*%
X24765000Y95806000D03*
X24765000Y97456000D03*
%TD*%
%TO.C,R2*%
X24765000Y49078000D03*
X24765000Y50728000D03*
%TD*%
D37*
%TO.C,J8*%
X61172500Y144754000D03*
X62422500Y144754000D03*
X63672500Y144754000D03*
X64922500Y144754000D03*
D38*
X66772500Y141554000D03*
X59322500Y141554000D03*
%TD*%
D37*
%TO.C,J8*%
X61172500Y98026000D03*
X62422500Y98026000D03*
X63672500Y98026000D03*
X64922500Y98026000D03*
D38*
X66772500Y94826000D03*
X59322500Y94826000D03*
%TD*%
D37*
%TO.C,J8*%
X61172500Y51298000D03*
X62422500Y51298000D03*
X63672500Y51298000D03*
X64922500Y51298000D03*
D38*
X66772500Y48098000D03*
X59322500Y48098000D03*
%TD*%
D37*
%TO.C,J8*%
X61172500Y4570000D03*
X62422500Y4570000D03*
X63672500Y4570000D03*
X64922500Y4570000D03*
D38*
X66772500Y1370000D03*
X59322500Y1370000D03*
%TD*%
D37*
%TO.C,J8*%
X17492500Y144754000D03*
X18742500Y144754000D03*
X19992500Y144754000D03*
X21242500Y144754000D03*
D38*
X23092500Y141554000D03*
X15642500Y141554000D03*
%TD*%
D37*
%TO.C,J8*%
X17492500Y98026000D03*
X18742500Y98026000D03*
X19992500Y98026000D03*
X21242500Y98026000D03*
D38*
X23092500Y94826000D03*
X15642500Y94826000D03*
%TD*%
D37*
%TO.C,J8*%
X17492500Y51298000D03*
X18742500Y51298000D03*
X19992500Y51298000D03*
X21242500Y51298000D03*
D38*
X23092500Y48098000D03*
X15642500Y48098000D03*
%TD*%
D39*
%TO.C,D5*%
X64000000Y156814000D03*
X64000000Y159114000D03*
%TD*%
%TO.C,D5*%
X64000000Y110086000D03*
X64000000Y112386000D03*
%TD*%
%TO.C,D5*%
X64000000Y63358000D03*
X64000000Y65658000D03*
%TD*%
%TO.C,D5*%
X64000000Y16630000D03*
X64000000Y18930000D03*
%TD*%
%TO.C,D5*%
X20320000Y156814000D03*
X20320000Y159114000D03*
%TD*%
%TO.C,D5*%
X20320000Y110086000D03*
X20320000Y112386000D03*
%TD*%
%TO.C,D5*%
X20320000Y63358000D03*
X20320000Y65658000D03*
%TD*%
D30*
%TO.C,C9*%
X67810000Y158739000D03*
X67810000Y157189000D03*
%TD*%
%TO.C,C9*%
X67810000Y112011000D03*
X67810000Y110461000D03*
%TD*%
%TO.C,C9*%
X67810000Y65283000D03*
X67810000Y63733000D03*
%TD*%
%TO.C,C9*%
X67810000Y18555000D03*
X67810000Y17005000D03*
%TD*%
%TO.C,C9*%
X24130000Y158739000D03*
X24130000Y157189000D03*
%TD*%
%TO.C,C9*%
X24130000Y112011000D03*
X24130000Y110461000D03*
%TD*%
%TO.C,C9*%
X24130000Y65283000D03*
X24130000Y63733000D03*
%TD*%
D40*
%TO.C,J1*%
X72910000Y146194000D03*
X73910000Y146194000D03*
X74410000Y146194000D03*
X75410000Y146194000D03*
X75910000Y146194000D03*
X74910000Y146194000D03*
X73410000Y146194000D03*
X72410000Y146194000D03*
D41*
X70935000Y146194000D03*
X77385000Y146194000D03*
D42*
X69842000Y141439000D03*
D43*
X69842000Y145619000D03*
X78478000Y145619000D03*
D42*
X78478000Y141439000D03*
D41*
X71710000Y146194000D03*
X76610000Y146194000D03*
%TD*%
D40*
%TO.C,J1*%
X72910000Y99466000D03*
X73910000Y99466000D03*
X74410000Y99466000D03*
X75410000Y99466000D03*
X75910000Y99466000D03*
X74910000Y99466000D03*
X73410000Y99466000D03*
X72410000Y99466000D03*
D41*
X70935000Y99466000D03*
X77385000Y99466000D03*
D42*
X69842000Y94711000D03*
D43*
X69842000Y98891000D03*
X78478000Y98891000D03*
D42*
X78478000Y94711000D03*
D41*
X71710000Y99466000D03*
X76610000Y99466000D03*
%TD*%
D40*
%TO.C,J1*%
X72910000Y52738000D03*
X73910000Y52738000D03*
X74410000Y52738000D03*
X75410000Y52738000D03*
X75910000Y52738000D03*
X74910000Y52738000D03*
X73410000Y52738000D03*
X72410000Y52738000D03*
D41*
X70935000Y52738000D03*
X77385000Y52738000D03*
D42*
X69842000Y47983000D03*
D43*
X69842000Y52163000D03*
X78478000Y52163000D03*
D42*
X78478000Y47983000D03*
D41*
X71710000Y52738000D03*
X76610000Y52738000D03*
%TD*%
D40*
%TO.C,J1*%
X72910000Y6010000D03*
X73910000Y6010000D03*
X74410000Y6010000D03*
X75410000Y6010000D03*
X75910000Y6010000D03*
X74910000Y6010000D03*
X73410000Y6010000D03*
X72410000Y6010000D03*
D41*
X70935000Y6010000D03*
X77385000Y6010000D03*
D42*
X69842000Y1255000D03*
D43*
X69842000Y5435000D03*
X78478000Y5435000D03*
D42*
X78478000Y1255000D03*
D41*
X71710000Y6010000D03*
X76610000Y6010000D03*
%TD*%
D40*
%TO.C,J1*%
X29230000Y146194000D03*
X30230000Y146194000D03*
X30730000Y146194000D03*
X31730000Y146194000D03*
X32230000Y146194000D03*
X31230000Y146194000D03*
X29730000Y146194000D03*
X28730000Y146194000D03*
D41*
X27255000Y146194000D03*
X33705000Y146194000D03*
D42*
X26162000Y141439000D03*
D43*
X26162000Y145619000D03*
X34798000Y145619000D03*
D42*
X34798000Y141439000D03*
D41*
X28030000Y146194000D03*
X32930000Y146194000D03*
%TD*%
D40*
%TO.C,J1*%
X29230000Y99466000D03*
X30230000Y99466000D03*
X30730000Y99466000D03*
X31730000Y99466000D03*
X32230000Y99466000D03*
X31230000Y99466000D03*
X29730000Y99466000D03*
X28730000Y99466000D03*
D41*
X27255000Y99466000D03*
X33705000Y99466000D03*
D42*
X26162000Y94711000D03*
D43*
X26162000Y98891000D03*
X34798000Y98891000D03*
D42*
X34798000Y94711000D03*
D41*
X28030000Y99466000D03*
X32930000Y99466000D03*
%TD*%
D40*
%TO.C,J1*%
X29230000Y52738000D03*
X30230000Y52738000D03*
X30730000Y52738000D03*
X31730000Y52738000D03*
X32230000Y52738000D03*
X31230000Y52738000D03*
X29730000Y52738000D03*
X28730000Y52738000D03*
D41*
X27255000Y52738000D03*
X33705000Y52738000D03*
D42*
X26162000Y47983000D03*
D43*
X26162000Y52163000D03*
X34798000Y52163000D03*
D42*
X34798000Y47983000D03*
D41*
X28030000Y52738000D03*
X32930000Y52738000D03*
%TD*%
D20*
%TO.C,C5*%
X71620000Y157189000D03*
X71620000Y158739000D03*
%TD*%
%TO.C,C5*%
X71620000Y110461000D03*
X71620000Y112011000D03*
%TD*%
%TO.C,C5*%
X71620000Y63733000D03*
X71620000Y65283000D03*
%TD*%
%TO.C,C5*%
X71620000Y17005000D03*
X71620000Y18555000D03*
%TD*%
%TO.C,C5*%
X27940000Y157189000D03*
X27940000Y158739000D03*
%TD*%
%TO.C,C5*%
X27940000Y110461000D03*
X27940000Y112011000D03*
%TD*%
%TO.C,C5*%
X27940000Y63733000D03*
X27940000Y65283000D03*
%TD*%
D15*
%TO.C,R3*%
X52570000Y148566500D03*
X52570000Y150216500D03*
%TD*%
%TO.C,R3*%
X52570000Y101838500D03*
X52570000Y103488500D03*
%TD*%
%TO.C,R3*%
X52570000Y55110500D03*
X52570000Y56760500D03*
%TD*%
%TO.C,R3*%
X52570000Y8382500D03*
X52570000Y10032500D03*
%TD*%
%TO.C,R3*%
X8890000Y148566500D03*
X8890000Y150216500D03*
%TD*%
%TO.C,R3*%
X8890000Y101838500D03*
X8890000Y103488500D03*
%TD*%
%TO.C,R3*%
X8890000Y55110500D03*
X8890000Y56760500D03*
%TD*%
%TO.C,R8*%
X59872500Y150789000D03*
X59872500Y152439000D03*
%TD*%
%TO.C,R8*%
X59872500Y104061000D03*
X59872500Y105711000D03*
%TD*%
%TO.C,R8*%
X59872500Y57333000D03*
X59872500Y58983000D03*
%TD*%
%TO.C,R8*%
X59872500Y10605000D03*
X59872500Y12255000D03*
%TD*%
%TO.C,R8*%
X16192500Y150789000D03*
X16192500Y152439000D03*
%TD*%
%TO.C,R8*%
X16192500Y104061000D03*
X16192500Y105711000D03*
%TD*%
%TO.C,R8*%
X16192500Y57333000D03*
X16192500Y58983000D03*
%TD*%
D16*
%TO.C,R11*%
X57205000Y159234000D03*
X55555000Y159234000D03*
%TD*%
%TO.C,R11*%
X57205000Y112506000D03*
X55555000Y112506000D03*
%TD*%
%TO.C,R11*%
X57205000Y65778000D03*
X55555000Y65778000D03*
%TD*%
%TO.C,R11*%
X57205000Y19050000D03*
X55555000Y19050000D03*
%TD*%
%TO.C,R11*%
X13525000Y159234000D03*
X11875000Y159234000D03*
%TD*%
%TO.C,R11*%
X13525000Y112506000D03*
X11875000Y112506000D03*
%TD*%
%TO.C,R11*%
X13525000Y65778000D03*
X11875000Y65778000D03*
%TD*%
D36*
%TO.C,D4*%
X54157500Y144794000D03*
X54157500Y146369000D03*
%TD*%
%TO.C,D4*%
X54157500Y98066000D03*
X54157500Y99641000D03*
%TD*%
%TO.C,D4*%
X54157500Y51338000D03*
X54157500Y52913000D03*
%TD*%
%TO.C,D4*%
X54157500Y4610000D03*
X54157500Y6185000D03*
%TD*%
%TO.C,D4*%
X10477500Y144794000D03*
X10477500Y146369000D03*
%TD*%
%TO.C,D4*%
X10477500Y98066000D03*
X10477500Y99641000D03*
%TD*%
%TO.C,D4*%
X10477500Y51338000D03*
X10477500Y52913000D03*
%TD*%
D15*
%TO.C,R14*%
X57332500Y148566500D03*
X57332500Y150216500D03*
%TD*%
%TO.C,R14*%
X57332500Y101838500D03*
X57332500Y103488500D03*
%TD*%
%TO.C,R14*%
X57332500Y55110500D03*
X57332500Y56760500D03*
%TD*%
%TO.C,R14*%
X57332500Y8382500D03*
X57332500Y10032500D03*
%TD*%
%TO.C,R14*%
X13652500Y148566500D03*
X13652500Y150216500D03*
%TD*%
%TO.C,R14*%
X13652500Y101838500D03*
X13652500Y103488500D03*
%TD*%
%TO.C,R14*%
X13652500Y55110500D03*
X13652500Y56760500D03*
%TD*%
D16*
%TO.C,R12*%
X67365000Y180189000D03*
X65715000Y180189000D03*
%TD*%
%TO.C,R12*%
X67365000Y133461000D03*
X65715000Y133461000D03*
%TD*%
%TO.C,R12*%
X67365000Y86733000D03*
X65715000Y86733000D03*
%TD*%
%TO.C,R12*%
X67365000Y40005000D03*
X65715000Y40005000D03*
%TD*%
%TO.C,R12*%
X23685000Y180189000D03*
X22035000Y180189000D03*
%TD*%
%TO.C,R12*%
X23685000Y133461000D03*
X22035000Y133461000D03*
%TD*%
%TO.C,R12*%
X23685000Y86733000D03*
X22035000Y86733000D03*
%TD*%
D44*
%TO.C,R20*%
X74285000Y175744000D03*
X75305000Y175744000D03*
%TD*%
%TO.C,R20*%
X74285000Y129016000D03*
X75305000Y129016000D03*
%TD*%
%TO.C,R20*%
X74285000Y82288000D03*
X75305000Y82288000D03*
%TD*%
%TO.C,R20*%
X74285000Y35560000D03*
X75305000Y35560000D03*
%TD*%
%TO.C,R20*%
X30605000Y175744000D03*
X31625000Y175744000D03*
%TD*%
%TO.C,R20*%
X30605000Y129016000D03*
X31625000Y129016000D03*
%TD*%
%TO.C,R20*%
X30605000Y82288000D03*
X31625000Y82288000D03*
%TD*%
D20*
%TO.C,D7*%
X79875000Y157189000D03*
X79875000Y158739000D03*
%TD*%
%TO.C,D7*%
X79875000Y110461000D03*
X79875000Y112011000D03*
%TD*%
%TO.C,D7*%
X79875000Y63733000D03*
X79875000Y65283000D03*
%TD*%
%TO.C,D7*%
X79875000Y17005000D03*
X79875000Y18555000D03*
%TD*%
%TO.C,D7*%
X36195000Y157189000D03*
X36195000Y158739000D03*
%TD*%
%TO.C,D7*%
X36195000Y110461000D03*
X36195000Y112011000D03*
%TD*%
%TO.C,D7*%
X36195000Y63733000D03*
X36195000Y65283000D03*
%TD*%
D45*
%TO.C,U3*%
X79572500Y171904000D03*
X78472500Y171904000D03*
X77372500Y171904000D03*
X76272500Y171904000D03*
X75172500Y171904000D03*
X74072500Y171904000D03*
X72972500Y171904000D03*
X69972500Y171904000D03*
X68872500Y171904000D03*
X67772500Y171904000D03*
X66672500Y171904000D03*
X65572500Y171904000D03*
X65572500Y161804000D03*
X66672500Y161804000D03*
X67772500Y161804000D03*
X68872500Y161804000D03*
X69972500Y161804000D03*
X72972500Y161804000D03*
X74072500Y161804000D03*
X75172500Y161804000D03*
X76272500Y161804000D03*
X77372500Y161804000D03*
X78472500Y161804000D03*
X79572500Y161804000D03*
D46*
X79672500Y169854000D03*
D47*
X78272500Y169854000D03*
X76872500Y169854000D03*
X75472500Y169854000D03*
X74072500Y169854000D03*
X72572500Y169854000D03*
X71172500Y169854000D03*
X69772500Y169854000D03*
X68372500Y169854000D03*
X66972500Y169854000D03*
X65572500Y169854000D03*
X79672500Y168354000D03*
X78272500Y168354000D03*
X76872500Y168354000D03*
X75472500Y168354000D03*
X74072500Y168354000D03*
X72572500Y168354000D03*
X71172500Y168354000D03*
X69772500Y168354000D03*
X68372500Y168354000D03*
X66972500Y168354000D03*
X65572500Y168354000D03*
X79672500Y166854000D03*
X78272500Y166854000D03*
X76872500Y166854000D03*
X75472500Y166854000D03*
X74072500Y166854000D03*
X72572500Y166854000D03*
X71172500Y166854000D03*
X69772500Y166854000D03*
X68372500Y166854000D03*
X66972500Y166854000D03*
X65572500Y166854000D03*
X79672500Y165354000D03*
X78272500Y165354000D03*
X76872500Y165354000D03*
X75472500Y165354000D03*
X74072500Y165354000D03*
X72572500Y165354000D03*
X71172500Y165354000D03*
X69772500Y165354000D03*
X68372500Y165354000D03*
X66972500Y165354000D03*
X65572500Y165354000D03*
X79672500Y163854000D03*
X78272500Y163854000D03*
X76872500Y163854000D03*
X75472500Y163854000D03*
X74072500Y163854000D03*
X72572500Y163854000D03*
X71172500Y163854000D03*
X69772500Y163854000D03*
X68372500Y163854000D03*
X66972500Y163854000D03*
X65572500Y163854000D03*
%TD*%
D45*
%TO.C,U3*%
X79572500Y125176000D03*
X78472500Y125176000D03*
X77372500Y125176000D03*
X76272500Y125176000D03*
X75172500Y125176000D03*
X74072500Y125176000D03*
X72972500Y125176000D03*
X69972500Y125176000D03*
X68872500Y125176000D03*
X67772500Y125176000D03*
X66672500Y125176000D03*
X65572500Y125176000D03*
X65572500Y115076000D03*
X66672500Y115076000D03*
X67772500Y115076000D03*
X68872500Y115076000D03*
X69972500Y115076000D03*
X72972500Y115076000D03*
X74072500Y115076000D03*
X75172500Y115076000D03*
X76272500Y115076000D03*
X77372500Y115076000D03*
X78472500Y115076000D03*
X79572500Y115076000D03*
D46*
X79672500Y123126000D03*
D47*
X78272500Y123126000D03*
X76872500Y123126000D03*
X75472500Y123126000D03*
X74072500Y123126000D03*
X72572500Y123126000D03*
X71172500Y123126000D03*
X69772500Y123126000D03*
X68372500Y123126000D03*
X66972500Y123126000D03*
X65572500Y123126000D03*
X79672500Y121626000D03*
X78272500Y121626000D03*
X76872500Y121626000D03*
X75472500Y121626000D03*
X74072500Y121626000D03*
X72572500Y121626000D03*
X71172500Y121626000D03*
X69772500Y121626000D03*
X68372500Y121626000D03*
X66972500Y121626000D03*
X65572500Y121626000D03*
X79672500Y120126000D03*
X78272500Y120126000D03*
X76872500Y120126000D03*
X75472500Y120126000D03*
X74072500Y120126000D03*
X72572500Y120126000D03*
X71172500Y120126000D03*
X69772500Y120126000D03*
X68372500Y120126000D03*
X66972500Y120126000D03*
X65572500Y120126000D03*
X79672500Y118626000D03*
X78272500Y118626000D03*
X76872500Y118626000D03*
X75472500Y118626000D03*
X74072500Y118626000D03*
X72572500Y118626000D03*
X71172500Y118626000D03*
X69772500Y118626000D03*
X68372500Y118626000D03*
X66972500Y118626000D03*
X65572500Y118626000D03*
X79672500Y117126000D03*
X78272500Y117126000D03*
X76872500Y117126000D03*
X75472500Y117126000D03*
X74072500Y117126000D03*
X72572500Y117126000D03*
X71172500Y117126000D03*
X69772500Y117126000D03*
X68372500Y117126000D03*
X66972500Y117126000D03*
X65572500Y117126000D03*
%TD*%
D45*
%TO.C,U3*%
X79572500Y78448000D03*
X78472500Y78448000D03*
X77372500Y78448000D03*
X76272500Y78448000D03*
X75172500Y78448000D03*
X74072500Y78448000D03*
X72972500Y78448000D03*
X69972500Y78448000D03*
X68872500Y78448000D03*
X67772500Y78448000D03*
X66672500Y78448000D03*
X65572500Y78448000D03*
X65572500Y68348000D03*
X66672500Y68348000D03*
X67772500Y68348000D03*
X68872500Y68348000D03*
X69972500Y68348000D03*
X72972500Y68348000D03*
X74072500Y68348000D03*
X75172500Y68348000D03*
X76272500Y68348000D03*
X77372500Y68348000D03*
X78472500Y68348000D03*
X79572500Y68348000D03*
D46*
X79672500Y76398000D03*
D47*
X78272500Y76398000D03*
X76872500Y76398000D03*
X75472500Y76398000D03*
X74072500Y76398000D03*
X72572500Y76398000D03*
X71172500Y76398000D03*
X69772500Y76398000D03*
X68372500Y76398000D03*
X66972500Y76398000D03*
X65572500Y76398000D03*
X79672500Y74898000D03*
X78272500Y74898000D03*
X76872500Y74898000D03*
X75472500Y74898000D03*
X74072500Y74898000D03*
X72572500Y74898000D03*
X71172500Y74898000D03*
X69772500Y74898000D03*
X68372500Y74898000D03*
X66972500Y74898000D03*
X65572500Y74898000D03*
X79672500Y73398000D03*
X78272500Y73398000D03*
X76872500Y73398000D03*
X75472500Y73398000D03*
X74072500Y73398000D03*
X72572500Y73398000D03*
X71172500Y73398000D03*
X69772500Y73398000D03*
X68372500Y73398000D03*
X66972500Y73398000D03*
X65572500Y73398000D03*
X79672500Y71898000D03*
X78272500Y71898000D03*
X76872500Y71898000D03*
X75472500Y71898000D03*
X74072500Y71898000D03*
X72572500Y71898000D03*
X71172500Y71898000D03*
X69772500Y71898000D03*
X68372500Y71898000D03*
X66972500Y71898000D03*
X65572500Y71898000D03*
X79672500Y70398000D03*
X78272500Y70398000D03*
X76872500Y70398000D03*
X75472500Y70398000D03*
X74072500Y70398000D03*
X72572500Y70398000D03*
X71172500Y70398000D03*
X69772500Y70398000D03*
X68372500Y70398000D03*
X66972500Y70398000D03*
X65572500Y70398000D03*
%TD*%
D45*
%TO.C,U3*%
X79572500Y31720000D03*
X78472500Y31720000D03*
X77372500Y31720000D03*
X76272500Y31720000D03*
X75172500Y31720000D03*
X74072500Y31720000D03*
X72972500Y31720000D03*
X69972500Y31720000D03*
X68872500Y31720000D03*
X67772500Y31720000D03*
X66672500Y31720000D03*
X65572500Y31720000D03*
X65572500Y21620000D03*
X66672500Y21620000D03*
X67772500Y21620000D03*
X68872500Y21620000D03*
X69972500Y21620000D03*
X72972500Y21620000D03*
X74072500Y21620000D03*
X75172500Y21620000D03*
X76272500Y21620000D03*
X77372500Y21620000D03*
X78472500Y21620000D03*
X79572500Y21620000D03*
D46*
X79672500Y29670000D03*
D47*
X78272500Y29670000D03*
X76872500Y29670000D03*
X75472500Y29670000D03*
X74072500Y29670000D03*
X72572500Y29670000D03*
X71172500Y29670000D03*
X69772500Y29670000D03*
X68372500Y29670000D03*
X66972500Y29670000D03*
X65572500Y29670000D03*
X79672500Y28170000D03*
X78272500Y28170000D03*
X76872500Y28170000D03*
X75472500Y28170000D03*
X74072500Y28170000D03*
X72572500Y28170000D03*
X71172500Y28170000D03*
X69772500Y28170000D03*
X68372500Y28170000D03*
X66972500Y28170000D03*
X65572500Y28170000D03*
X79672500Y26670000D03*
X78272500Y26670000D03*
X76872500Y26670000D03*
X75472500Y26670000D03*
X74072500Y26670000D03*
X72572500Y26670000D03*
X71172500Y26670000D03*
X69772500Y26670000D03*
X68372500Y26670000D03*
X66972500Y26670000D03*
X65572500Y26670000D03*
X79672500Y25170000D03*
X78272500Y25170000D03*
X76872500Y25170000D03*
X75472500Y25170000D03*
X74072500Y25170000D03*
X72572500Y25170000D03*
X71172500Y25170000D03*
X69772500Y25170000D03*
X68372500Y25170000D03*
X66972500Y25170000D03*
X65572500Y25170000D03*
X79672500Y23670000D03*
X78272500Y23670000D03*
X76872500Y23670000D03*
X75472500Y23670000D03*
X74072500Y23670000D03*
X72572500Y23670000D03*
X71172500Y23670000D03*
X69772500Y23670000D03*
X68372500Y23670000D03*
X66972500Y23670000D03*
X65572500Y23670000D03*
%TD*%
D45*
%TO.C,U3*%
X35892500Y171904000D03*
X34792500Y171904000D03*
X33692500Y171904000D03*
X32592500Y171904000D03*
X31492500Y171904000D03*
X30392500Y171904000D03*
X29292500Y171904000D03*
X26292500Y171904000D03*
X25192500Y171904000D03*
X24092500Y171904000D03*
X22992500Y171904000D03*
X21892500Y171904000D03*
X21892500Y161804000D03*
X22992500Y161804000D03*
X24092500Y161804000D03*
X25192500Y161804000D03*
X26292500Y161804000D03*
X29292500Y161804000D03*
X30392500Y161804000D03*
X31492500Y161804000D03*
X32592500Y161804000D03*
X33692500Y161804000D03*
X34792500Y161804000D03*
X35892500Y161804000D03*
D46*
X35992500Y169854000D03*
D47*
X34592500Y169854000D03*
X33192500Y169854000D03*
X31792500Y169854000D03*
X30392500Y169854000D03*
X28892500Y169854000D03*
X27492500Y169854000D03*
X26092500Y169854000D03*
X24692500Y169854000D03*
X23292500Y169854000D03*
X21892500Y169854000D03*
X35992500Y168354000D03*
X34592500Y168354000D03*
X33192500Y168354000D03*
X31792500Y168354000D03*
X30392500Y168354000D03*
X28892500Y168354000D03*
X27492500Y168354000D03*
X26092500Y168354000D03*
X24692500Y168354000D03*
X23292500Y168354000D03*
X21892500Y168354000D03*
X35992500Y166854000D03*
X34592500Y166854000D03*
X33192500Y166854000D03*
X31792500Y166854000D03*
X30392500Y166854000D03*
X28892500Y166854000D03*
X27492500Y166854000D03*
X26092500Y166854000D03*
X24692500Y166854000D03*
X23292500Y166854000D03*
X21892500Y166854000D03*
X35992500Y165354000D03*
X34592500Y165354000D03*
X33192500Y165354000D03*
X31792500Y165354000D03*
X30392500Y165354000D03*
X28892500Y165354000D03*
X27492500Y165354000D03*
X26092500Y165354000D03*
X24692500Y165354000D03*
X23292500Y165354000D03*
X21892500Y165354000D03*
X35992500Y163854000D03*
X34592500Y163854000D03*
X33192500Y163854000D03*
X31792500Y163854000D03*
X30392500Y163854000D03*
X28892500Y163854000D03*
X27492500Y163854000D03*
X26092500Y163854000D03*
X24692500Y163854000D03*
X23292500Y163854000D03*
X21892500Y163854000D03*
%TD*%
D45*
%TO.C,U3*%
X35892500Y125176000D03*
X34792500Y125176000D03*
X33692500Y125176000D03*
X32592500Y125176000D03*
X31492500Y125176000D03*
X30392500Y125176000D03*
X29292500Y125176000D03*
X26292500Y125176000D03*
X25192500Y125176000D03*
X24092500Y125176000D03*
X22992500Y125176000D03*
X21892500Y125176000D03*
X21892500Y115076000D03*
X22992500Y115076000D03*
X24092500Y115076000D03*
X25192500Y115076000D03*
X26292500Y115076000D03*
X29292500Y115076000D03*
X30392500Y115076000D03*
X31492500Y115076000D03*
X32592500Y115076000D03*
X33692500Y115076000D03*
X34792500Y115076000D03*
X35892500Y115076000D03*
D46*
X35992500Y123126000D03*
D47*
X34592500Y123126000D03*
X33192500Y123126000D03*
X31792500Y123126000D03*
X30392500Y123126000D03*
X28892500Y123126000D03*
X27492500Y123126000D03*
X26092500Y123126000D03*
X24692500Y123126000D03*
X23292500Y123126000D03*
X21892500Y123126000D03*
X35992500Y121626000D03*
X34592500Y121626000D03*
X33192500Y121626000D03*
X31792500Y121626000D03*
X30392500Y121626000D03*
X28892500Y121626000D03*
X27492500Y121626000D03*
X26092500Y121626000D03*
X24692500Y121626000D03*
X23292500Y121626000D03*
X21892500Y121626000D03*
X35992500Y120126000D03*
X34592500Y120126000D03*
X33192500Y120126000D03*
X31792500Y120126000D03*
X30392500Y120126000D03*
X28892500Y120126000D03*
X27492500Y120126000D03*
X26092500Y120126000D03*
X24692500Y120126000D03*
X23292500Y120126000D03*
X21892500Y120126000D03*
X35992500Y118626000D03*
X34592500Y118626000D03*
X33192500Y118626000D03*
X31792500Y118626000D03*
X30392500Y118626000D03*
X28892500Y118626000D03*
X27492500Y118626000D03*
X26092500Y118626000D03*
X24692500Y118626000D03*
X23292500Y118626000D03*
X21892500Y118626000D03*
X35992500Y117126000D03*
X34592500Y117126000D03*
X33192500Y117126000D03*
X31792500Y117126000D03*
X30392500Y117126000D03*
X28892500Y117126000D03*
X27492500Y117126000D03*
X26092500Y117126000D03*
X24692500Y117126000D03*
X23292500Y117126000D03*
X21892500Y117126000D03*
%TD*%
D45*
%TO.C,U3*%
X35892500Y78448000D03*
X34792500Y78448000D03*
X33692500Y78448000D03*
X32592500Y78448000D03*
X31492500Y78448000D03*
X30392500Y78448000D03*
X29292500Y78448000D03*
X26292500Y78448000D03*
X25192500Y78448000D03*
X24092500Y78448000D03*
X22992500Y78448000D03*
X21892500Y78448000D03*
X21892500Y68348000D03*
X22992500Y68348000D03*
X24092500Y68348000D03*
X25192500Y68348000D03*
X26292500Y68348000D03*
X29292500Y68348000D03*
X30392500Y68348000D03*
X31492500Y68348000D03*
X32592500Y68348000D03*
X33692500Y68348000D03*
X34792500Y68348000D03*
X35892500Y68348000D03*
D46*
X35992500Y76398000D03*
D47*
X34592500Y76398000D03*
X33192500Y76398000D03*
X31792500Y76398000D03*
X30392500Y76398000D03*
X28892500Y76398000D03*
X27492500Y76398000D03*
X26092500Y76398000D03*
X24692500Y76398000D03*
X23292500Y76398000D03*
X21892500Y76398000D03*
X35992500Y74898000D03*
X34592500Y74898000D03*
X33192500Y74898000D03*
X31792500Y74898000D03*
X30392500Y74898000D03*
X28892500Y74898000D03*
X27492500Y74898000D03*
X26092500Y74898000D03*
X24692500Y74898000D03*
X23292500Y74898000D03*
X21892500Y74898000D03*
X35992500Y73398000D03*
X34592500Y73398000D03*
X33192500Y73398000D03*
X31792500Y73398000D03*
X30392500Y73398000D03*
X28892500Y73398000D03*
X27492500Y73398000D03*
X26092500Y73398000D03*
X24692500Y73398000D03*
X23292500Y73398000D03*
X21892500Y73398000D03*
X35992500Y71898000D03*
X34592500Y71898000D03*
X33192500Y71898000D03*
X31792500Y71898000D03*
X30392500Y71898000D03*
X28892500Y71898000D03*
X27492500Y71898000D03*
X26092500Y71898000D03*
X24692500Y71898000D03*
X23292500Y71898000D03*
X21892500Y71898000D03*
X35992500Y70398000D03*
X34592500Y70398000D03*
X33192500Y70398000D03*
X31792500Y70398000D03*
X30392500Y70398000D03*
X28892500Y70398000D03*
X27492500Y70398000D03*
X26092500Y70398000D03*
X24692500Y70398000D03*
X23292500Y70398000D03*
X21892500Y70398000D03*
%TD*%
D45*
%TO.C,U3*%
X35892500Y31720000D03*
X34792500Y31720000D03*
X33692500Y31720000D03*
X32592500Y31720000D03*
X31492500Y31720000D03*
X30392500Y31720000D03*
X29292500Y31720000D03*
X26292500Y31720000D03*
X25192500Y31720000D03*
X24092500Y31720000D03*
X22992500Y31720000D03*
X21892500Y31720000D03*
X21892500Y21620000D03*
X22992500Y21620000D03*
X24092500Y21620000D03*
X25192500Y21620000D03*
X26292500Y21620000D03*
X29292500Y21620000D03*
X30392500Y21620000D03*
X31492500Y21620000D03*
X32592500Y21620000D03*
X33692500Y21620000D03*
X34792500Y21620000D03*
X35892500Y21620000D03*
D46*
X35992500Y29670000D03*
D47*
X34592500Y29670000D03*
X33192500Y29670000D03*
X31792500Y29670000D03*
X30392500Y29670000D03*
X28892500Y29670000D03*
X27492500Y29670000D03*
X26092500Y29670000D03*
X24692500Y29670000D03*
X23292500Y29670000D03*
X21892500Y29670000D03*
X35992500Y28170000D03*
X34592500Y28170000D03*
X33192500Y28170000D03*
X31792500Y28170000D03*
X30392500Y28170000D03*
X28892500Y28170000D03*
X27492500Y28170000D03*
X26092500Y28170000D03*
X24692500Y28170000D03*
X23292500Y28170000D03*
X21892500Y28170000D03*
X35992500Y26670000D03*
X34592500Y26670000D03*
X33192500Y26670000D03*
X31792500Y26670000D03*
X30392500Y26670000D03*
X28892500Y26670000D03*
X27492500Y26670000D03*
X26092500Y26670000D03*
X24692500Y26670000D03*
X23292500Y26670000D03*
X21892500Y26670000D03*
X35992500Y25170000D03*
X34592500Y25170000D03*
X33192500Y25170000D03*
X31792500Y25170000D03*
X30392500Y25170000D03*
X28892500Y25170000D03*
X27492500Y25170000D03*
X26092500Y25170000D03*
X24692500Y25170000D03*
X23292500Y25170000D03*
X21892500Y25170000D03*
X35992500Y23670000D03*
X34592500Y23670000D03*
X33192500Y23670000D03*
X31792500Y23670000D03*
X30392500Y23670000D03*
X28892500Y23670000D03*
X27492500Y23670000D03*
X26092500Y23670000D03*
X24692500Y23670000D03*
X23292500Y23670000D03*
X21892500Y23670000D03*
%TD*%
D20*
%TO.C,D7*%
X36195000Y17005000D03*
X36195000Y18555000D03*
%TD*%
D44*
%TO.C,R20*%
X30605000Y35560000D03*
X31625000Y35560000D03*
%TD*%
D16*
%TO.C,R12*%
X23685000Y40005000D03*
X22035000Y40005000D03*
%TD*%
D15*
%TO.C,R14*%
X13652500Y8382500D03*
X13652500Y10032500D03*
%TD*%
D36*
%TO.C,D4*%
X10477500Y4610000D03*
X10477500Y6185000D03*
%TD*%
D16*
%TO.C,R11*%
X13525000Y19050000D03*
X11875000Y19050000D03*
%TD*%
D15*
%TO.C,R8*%
X16192500Y10605000D03*
X16192500Y12255000D03*
%TD*%
%TO.C,R3*%
X8890000Y8382500D03*
X8890000Y10032500D03*
%TD*%
D20*
%TO.C,C5*%
X27940000Y17005000D03*
X27940000Y18555000D03*
%TD*%
D40*
%TO.C,J1*%
X29230000Y6010000D03*
X30230000Y6010000D03*
X30730000Y6010000D03*
X31730000Y6010000D03*
X32230000Y6010000D03*
X31230000Y6010000D03*
X29730000Y6010000D03*
X28730000Y6010000D03*
D41*
X27255000Y6010000D03*
X33705000Y6010000D03*
D42*
X26162000Y1255000D03*
D43*
X26162000Y5435000D03*
X34798000Y5435000D03*
D42*
X34798000Y1255000D03*
D41*
X28030000Y6010000D03*
X32930000Y6010000D03*
%TD*%
D30*
%TO.C,C9*%
X24130000Y18555000D03*
X24130000Y17005000D03*
%TD*%
D39*
%TO.C,D5*%
X20320000Y16630000D03*
X20320000Y18930000D03*
%TD*%
D37*
%TO.C,J8*%
X17492500Y4570000D03*
X18742500Y4570000D03*
X19992500Y4570000D03*
X21242500Y4570000D03*
D38*
X23092500Y1370000D03*
X15642500Y1370000D03*
%TD*%
D15*
%TO.C,R2*%
X24765000Y2350000D03*
X24765000Y4000000D03*
%TD*%
%TO.C,R5*%
X10477500Y8382500D03*
X10477500Y10032500D03*
%TD*%
D36*
%TO.C,D1*%
X12065000Y4610000D03*
X12065000Y6185000D03*
%TD*%
D15*
%TO.C,R4*%
X12065000Y8382500D03*
X12065000Y10032500D03*
%TD*%
D20*
%TO.C,C2*%
X29845000Y17005000D03*
X29845000Y18555000D03*
%TD*%
D36*
%TO.C,D2*%
X8890000Y4610000D03*
X8890000Y6185000D03*
%TD*%
D30*
%TO.C,C12*%
X5080000Y27445000D03*
X5080000Y25895000D03*
%TD*%
D14*
%TO.C,D3*%
X29210000Y36357500D03*
X29210000Y35397500D03*
%TD*%
D25*
%TO.C,R15*%
X22035000Y41910000D03*
X23685000Y41910000D03*
%TD*%
D36*
%TO.C,D6*%
X13652500Y4610000D03*
X13652500Y6185000D03*
%TD*%
%TO.C,D9*%
X7302500Y4610000D03*
X7302500Y6185000D03*
%TD*%
D15*
%TO.C,R1*%
X36195000Y2350000D03*
X36195000Y4000000D03*
%TD*%
D27*
%TO.C,J7*%
X5080000Y10390000D03*
X5080000Y9390000D03*
X5080000Y8390000D03*
X5080000Y7390000D03*
D28*
X1405000Y6090000D03*
X1405000Y11690000D03*
%TD*%
D26*
%TO.C,U2*%
X34320100Y16830000D03*
X34320100Y17780000D03*
X34320100Y18730000D03*
X31719900Y18730000D03*
X31719900Y16830000D03*
%TD*%
D13*
%TO.C,C4*%
X23635000Y36195000D03*
X22085000Y36195000D03*
%TD*%
D20*
%TO.C,C8*%
X26035000Y17005000D03*
X26035000Y18555000D03*
%TD*%
D35*
%TO.C,F1*%
X31880000Y8890000D03*
X29080000Y8890000D03*
%TD*%
D20*
%TO.C,C7*%
X34290000Y12560000D03*
X34290000Y14110000D03*
%TD*%
D25*
%TO.C,R10*%
X11875000Y13970000D03*
X13525000Y13970000D03*
%TD*%
D24*
%TO.C,SW5*%
X15392500Y14460000D03*
X15392500Y18560000D03*
X16992500Y14460000D03*
X16992500Y18560000D03*
%TD*%
D34*
%TO.C,R19*%
X30480000Y36478750D03*
X30480000Y37498750D03*
%TD*%
D31*
%TO.C,U4*%
X29805000Y12660000D03*
X31155000Y12660000D03*
X29805000Y14010000D03*
X31155000Y14010000D03*
D32*
X29230000Y11372500D03*
X29730000Y11372500D03*
X30230000Y11372500D03*
X30730000Y11372500D03*
X31230000Y11372500D03*
X31730000Y11372500D03*
D33*
X32442500Y12085000D03*
X32442500Y12585000D03*
X32442500Y13085000D03*
X32442500Y13585000D03*
X32442500Y14085000D03*
X32442500Y14585000D03*
D32*
X31730000Y15297500D03*
X31230000Y15297500D03*
X30730000Y15297500D03*
X30230000Y15297500D03*
X29730000Y15297500D03*
X29230000Y15297500D03*
D33*
X28517500Y14585000D03*
X28517500Y14085000D03*
X28517500Y13585000D03*
X28517500Y13085000D03*
X28517500Y12585000D03*
X28517500Y12085000D03*
%TD*%
D30*
%TO.C,C10*%
X26670000Y14110000D03*
X26670000Y12560000D03*
%TD*%
D29*
%TO.C,C6*%
X26832500Y35242500D03*
X25872500Y35242500D03*
%TD*%
D27*
%TO.C,J4*%
X38100000Y7390000D03*
X38100000Y8390000D03*
X38100000Y9390000D03*
X38100000Y10390000D03*
D28*
X41775000Y11690000D03*
X41775000Y6090000D03*
%TD*%
D26*
%TO.C,U1*%
X24099900Y9840000D03*
X24099900Y8890000D03*
X24099900Y7940000D03*
X26700100Y7940000D03*
X26700000Y8890000D03*
X26700100Y9840000D03*
%TD*%
D25*
%TO.C,R13*%
X11875000Y12065000D03*
X13525000Y12065000D03*
%TD*%
D24*
%TO.C,SW4*%
X10007500Y18560000D03*
X10007500Y14460000D03*
X8407500Y18560000D03*
X8407500Y14460000D03*
%TD*%
D11*
%TO.C,R17*%
X36195000Y9397500D03*
X36195000Y7747500D03*
%TD*%
D23*
%TO.C,Q1*%
X12050000Y15622500D03*
X12700000Y15622500D03*
X13350000Y15622500D03*
X13350000Y17462500D03*
X12700000Y17462500D03*
X12050000Y17462500D03*
%TD*%
D16*
%TO.C,R6*%
X23685000Y34290000D03*
X22035000Y34290000D03*
%TD*%
D21*
%TO.C,J6*%
X34035000Y35560000D03*
D22*
X35560000Y34185000D03*
X35560000Y36935000D03*
%TD*%
D20*
%TO.C,C1*%
X36195000Y12560000D03*
X36195000Y14110000D03*
%TD*%
D17*
%TO.C,U5*%
X6800000Y30670000D03*
X6800000Y29870000D03*
X6800000Y29070000D03*
X6800000Y28270000D03*
X6800000Y27470000D03*
X6800000Y26670000D03*
X6800000Y25870000D03*
X6800000Y25070000D03*
X6800000Y24270000D03*
X6800000Y23470000D03*
X6800000Y22670000D03*
D18*
X7900000Y21770000D03*
X8700000Y21770000D03*
X9500000Y21770000D03*
X10300000Y21770000D03*
X11100000Y21770000D03*
X11900000Y21770000D03*
X12700000Y21770000D03*
X13500000Y21770000D03*
X14300000Y21770000D03*
X15100000Y21770000D03*
X15900000Y21770000D03*
X16700000Y21770000D03*
X17500000Y21770000D03*
D17*
X18600000Y22670000D03*
X18600000Y23470000D03*
X18600000Y24270000D03*
X18600000Y25070000D03*
X18600000Y25870000D03*
X18600000Y26670000D03*
X18600000Y27470000D03*
X18600000Y28270000D03*
X18600000Y29070000D03*
X18600000Y29870000D03*
X18600000Y30670000D03*
D18*
X17500000Y31570000D03*
X16700000Y31570000D03*
X15900000Y31570000D03*
X15100000Y31570000D03*
X14300000Y31570000D03*
X13500000Y31570000D03*
X12700000Y31570000D03*
X11900000Y31570000D03*
X11100000Y31570000D03*
X10300000Y31570000D03*
X9500000Y31570000D03*
X8700000Y31570000D03*
X7900000Y31570000D03*
D19*
X18650000Y31620000D03*
X18650000Y21720000D03*
X6750000Y21720000D03*
X6750000Y31620000D03*
%TD*%
D16*
%TO.C,R9*%
X36067500Y15557500D03*
X34417500Y15557500D03*
%TD*%
D13*
%TO.C,C3*%
X23635000Y38100000D03*
X22085000Y38100000D03*
%TD*%
D15*
%TO.C,R16*%
X7302500Y8382500D03*
X7302500Y10032500D03*
%TD*%
D14*
%TO.C,L1*%
X27940000Y36357500D03*
X27940000Y35397500D03*
%TD*%
D13*
%TO.C,C11*%
X9842500Y12065000D03*
X8292500Y12065000D03*
%TD*%
D11*
%TO.C,R7*%
X22225000Y18605000D03*
X22225000Y16955000D03*
%TD*%
D12*
%TO.C,D8*%
X36392500Y10953750D03*
X34092500Y10953750D03*
%TD*%
D11*
%TO.C,R18*%
X34290000Y9397500D03*
X34290000Y7747500D03*
%TD*%
M02*
