M48
; DRILL file {KiCad 8.0.7} date 2025-01-02T13:45:23-0700
; FORMAT={-:-/ absolute / metric / decimal}
; #@! TF.CreationDate,2025-01-02T13:45:23-07:00
; #@! TF.GenerationSoftware,Kicad,Pcbnew,8.0.7
; #@! TF.FileFunction,MixedPlating,1,4
FMAT,2
METRIC
; #@! TA.AperFunction,Plated,PTH,ViaDrill
T1C0.300
; #@! TA.AperFunction,Plated,PTH,ComponentDrill
T2C0.600
; #@! TA.AperFunction,Plated,PTH,ComponentDrill
T3C1.016
; #@! TA.AperFunction,NonPlated,NPTH,ComponentDrill
T4C0.650
; #@! TA.AperFunction,NonPlated,NPTH,ComponentDrill
T5C3.100
%
G90
G05
T1
X2.699Y149.074
X2.699Y102.346
X2.699Y55.618
X2.699Y8.89
X2.857Y147.645
X2.857Y100.917
X2.857Y54.189
X2.857Y7.461
X3.81Y150.661
X3.81Y147.487
X3.81Y103.933
X3.81Y100.758
X3.81Y57.206
X3.81Y54.03
X3.81Y10.477
X3.81Y7.302
X5.08Y168.759
X5.08Y165.108
X5.08Y122.031
X5.08Y118.38
X5.08Y75.303
X5.08Y71.652
X5.08Y28.575
X5.08Y24.924
X5.397Y162.409
X5.397Y153.201
X5.397Y115.681
X5.397Y106.474
X5.397Y68.953
X5.397Y59.745
X5.397Y22.225
X5.397Y13.018
X5.715Y170.981
X5.715Y124.253
X5.715Y77.525
X5.715Y30.797
X5.874Y161.139
X5.874Y114.411
X5.874Y67.683
X5.874Y20.955
X6.35Y147.963
X6.35Y101.235
X6.35Y54.507
X6.35Y7.779
X6.985Y152.249
X6.985Y105.521
X6.985Y58.793
X6.985Y12.065
X7.302Y154.789
X7.302Y151.296
X7.302Y143.359
X7.302Y108.061
X7.302Y104.569
X7.302Y96.631
X7.302Y61.333
X7.302Y57.84
X7.302Y49.903
X7.302Y14.605
X7.302Y11.112
X7.302Y3.175
X7.62Y164.314
X7.62Y117.586
X7.62Y70.858
X7.62Y24.13
X7.779Y149.391
X7.779Y102.663
X7.779Y55.935
X7.779Y9.207
X7.938Y170.664
X7.938Y123.936
X7.938Y77.208
X7.938Y30.48
X8.255Y169.394
X8.255Y122.666
X8.255Y75.938
X8.255Y29.21
X8.731Y160.98
X8.731Y114.252
X8.731Y67.524
X8.731Y20.796
X8.89Y170.664
X8.89Y151.296
X8.89Y123.936
X8.89Y104.569
X8.89Y77.208
X8.89Y57.84
X8.89Y30.48
X8.89Y11.112
X9.207Y168.759
X9.207Y166.854
X9.207Y164.949
X9.207Y163.679
X9.207Y122.031
X9.207Y120.126
X9.207Y118.221
X9.207Y116.951
X9.207Y75.303
X9.207Y73.398
X9.207Y71.493
X9.207Y70.223
X9.207Y28.575
X9.207Y26.67
X9.207Y24.765
X9.207Y23.495
X9.842Y170.664
X9.842Y123.936
X9.842Y77.208
X9.842Y30.48
X10.477Y151.296
X10.477Y104.569
X10.477Y57.84
X10.477Y11.112
X10.795Y170.664
X10.795Y123.936
X10.795Y77.208
X10.795Y30.48
X11.043Y159.556
X11.043Y112.828
X11.043Y66.1
X11.043Y19.372
X11.112Y154.154
X11.112Y152.249
X11.112Y107.426
X11.112Y105.521
X11.112Y60.698
X11.112Y58.793
X11.112Y13.97
X11.112Y12.065
X11.271Y147.645
X11.271Y100.917
X11.271Y54.189
X11.271Y7.461
X11.747Y170.664
X11.747Y123.936
X11.747Y77.208
X11.747Y30.48
X12.065Y151.296
X12.065Y104.569
X12.065Y57.84
X12.065Y11.112
X12.7Y170.664
X12.7Y160.98
X12.7Y123.936
X12.7Y114.252
X12.7Y77.208
X12.7Y67.524
X12.7Y30.48
X12.7Y20.796
X13.652Y170.664
X13.652Y151.296
X13.652Y123.936
X13.652Y104.569
X13.652Y77.208
X13.652Y57.84
X13.652Y30.48
X13.652Y11.112
X14.287Y160.98
X14.287Y157.647
X14.287Y114.252
X14.287Y110.918
X14.287Y67.524
X14.287Y64.191
X14.287Y20.796
X14.287Y17.462
X14.605Y170.664
X14.605Y152.249
X14.605Y151.296
X14.605Y123.936
X14.605Y105.521
X14.605Y104.569
X14.605Y77.208
X14.605Y58.793
X14.605Y57.84
X14.605Y30.48
X14.605Y12.065
X14.605Y11.112
X14.922Y144.629
X14.922Y97.901
X14.922Y51.173
X14.922Y4.445
X15.24Y148.28
X15.24Y101.552
X15.24Y54.824
X15.24Y8.096
X15.557Y170.664
X15.557Y123.936
X15.557Y77.208
X15.557Y30.48
X16.192Y168.759
X16.192Y166.854
X16.192Y122.031
X16.192Y120.126
X16.192Y75.303
X16.192Y73.398
X16.192Y28.575
X16.192Y26.67
X16.51Y170.664
X16.51Y123.936
X16.51Y77.208
X16.51Y30.48
X17.145Y164.949
X17.145Y155.742
X17.145Y118.221
X17.145Y109.013
X17.145Y71.493
X17.145Y62.285
X17.145Y24.765
X17.145Y15.557
X17.462Y170.664
X17.462Y163.044
X17.462Y143.041
X17.462Y123.936
X17.462Y116.316
X17.462Y96.313
X17.462Y77.208
X17.462Y69.588
X17.462Y49.585
X17.462Y30.48
X17.462Y22.86
X17.462Y2.857
X17.78Y169.235
X17.78Y122.507
X17.78Y75.779
X17.78Y29.051
X18.098Y160.821
X18.098Y114.093
X18.098Y67.365
X18.098Y20.637
X18.732Y158.281
X18.732Y111.553
X18.732Y64.825
X18.732Y18.098
X18.936Y155.664
X18.936Y108.936
X18.936Y62.208
X18.936Y15.48
X18.999Y160.821
X18.999Y114.093
X18.999Y67.365
X18.999Y20.637
X19.367Y147.487
X19.367Y100.758
X19.367Y54.03
X19.367Y7.302
X19.595Y166.854
X19.595Y120.126
X19.595Y73.398
X19.595Y26.67
X20.002Y159.961
X20.002Y113.233
X20.002Y66.505
X20.002Y19.777
X20.206Y167.806
X20.206Y121.078
X20.206Y74.35
X20.206Y27.622
X20.32Y170.981
X20.32Y157.964
X20.32Y124.253
X20.32Y111.236
X20.32Y77.525
X20.32Y64.508
X20.32Y30.797
X20.32Y17.78
X20.637Y171.694
X20.637Y165.584
X20.637Y162.726
X20.637Y161.774
X20.637Y124.966
X20.637Y118.856
X20.637Y115.998
X20.637Y115.046
X20.637Y78.238
X20.637Y72.128
X20.637Y69.27
X20.637Y68.318
X20.637Y31.51
X20.637Y25.4
X20.637Y22.543
X20.637Y21.59
X20.955Y180.189
X20.955Y174.156
X20.955Y169.394
X20.955Y133.461
X20.955Y127.428
X20.955Y122.666
X20.955Y86.733
X20.955Y80.7
X20.955Y75.938
X20.955Y40.005
X20.955Y33.972
X20.955Y29.21
X21.069Y158.281
X21.069Y111.553
X21.069Y64.825
X21.069Y18.098
X21.272Y143.359
X21.272Y96.631
X21.272Y49.903
X21.272Y3.175
X21.907Y173.522
X21.907Y126.793
X21.907Y80.066
X21.907Y33.337
X22.225Y153.201
X22.225Y106.474
X22.225Y59.745
X22.225Y13.018
X22.384Y162.959
X22.384Y116.231
X22.384Y69.503
X22.384Y22.775
X22.545Y170.664
X22.545Y169.159
X22.545Y167.659
X22.545Y166.159
X22.545Y164.659
X22.545Y123.936
X22.545Y122.431
X22.545Y120.931
X22.545Y119.431
X22.545Y117.931
X22.545Y77.208
X22.545Y75.703
X22.545Y74.203
X22.545Y72.703
X22.545Y71.203
X22.545Y30.48
X22.545Y28.975
X22.545Y27.475
X22.545Y25.975
X22.545Y24.475
X22.701Y173.522
X22.701Y126.793
X22.701Y80.066
X22.701Y33.337
X22.86Y150.026
X22.86Y103.298
X22.86Y56.57
X22.86Y9.842
X23.177Y158.739
X23.177Y112.011
X23.177Y65.283
X23.177Y18.555
X23.945Y170.664
X23.945Y169.159
X23.945Y167.659
X23.945Y166.159
X23.945Y164.659
X23.945Y123.936
X23.945Y122.431
X23.945Y120.931
X23.945Y119.431
X23.945Y117.931
X23.945Y77.208
X23.945Y75.703
X23.945Y74.203
X23.945Y72.703
X23.945Y71.203
X23.945Y30.48
X23.945Y28.975
X23.945Y27.475
X23.945Y25.975
X23.945Y24.475
X24.13Y173.045
X24.13Y147.169
X24.13Y126.317
X24.13Y100.441
X24.13Y79.589
X24.13Y53.713
X24.13Y32.861
X24.13Y6.985
X24.606Y174.315
X24.606Y127.587
X24.606Y80.859
X24.606Y34.131
X24.765Y182.094
X24.765Y145.264
X24.765Y141.454
X24.765Y135.366
X24.765Y98.536
X24.765Y94.726
X24.765Y88.638
X24.765Y51.808
X24.765Y47.998
X24.765Y41.91
X24.765Y5.08
X24.765Y1.27
X25.082Y174.95
X25.082Y157.011
X25.082Y128.222
X25.082Y110.283
X25.082Y81.494
X25.082Y63.555
X25.082Y34.766
X25.082Y16.828
X25.345Y170.664
X25.345Y169.159
X25.345Y167.659
X25.345Y166.159
X25.345Y164.659
X25.345Y123.936
X25.345Y122.431
X25.345Y120.931
X25.345Y119.431
X25.345Y117.931
X25.345Y77.208
X25.345Y75.703
X25.345Y74.203
X25.345Y72.703
X25.345Y71.203
X25.345Y30.48
X25.345Y28.975
X25.345Y27.475
X25.345Y25.975
X25.345Y24.475
X25.4Y155.74
X25.4Y149.074
X25.4Y147.487
X25.4Y109.012
X25.4Y102.346
X25.4Y100.758
X25.4Y62.284
X25.4Y55.618
X25.4Y54.03
X25.4Y15.556
X25.4Y8.89
X25.4Y7.302
X25.717Y173.204
X25.717Y126.476
X25.717Y79.748
X25.717Y33.02
X26.035Y159.869
X26.035Y150.979
X26.035Y113.141
X26.035Y104.251
X26.035Y66.413
X26.035Y57.523
X26.035Y19.685
X26.035Y10.795
X26.194Y173.998
X26.194Y155.742
X26.194Y127.27
X26.194Y109.013
X26.194Y80.542
X26.194Y62.285
X26.194Y33.814
X26.194Y15.557
X26.511Y182.094
X26.511Y180.665
X26.511Y179.395
X26.511Y135.366
X26.511Y133.937
X26.511Y132.667
X26.511Y88.638
X26.511Y87.209
X26.511Y85.939
X26.511Y41.91
X26.511Y40.481
X26.511Y39.211
X26.67Y173.204
X26.67Y151.614
X26.67Y126.476
X26.67Y104.886
X26.67Y79.748
X26.67Y58.158
X26.67Y33.02
X26.67Y11.43
X26.745Y170.664
X26.745Y169.159
X26.745Y167.659
X26.745Y166.159
X26.745Y164.659
X26.745Y123.936
X26.745Y122.431
X26.745Y120.931
X26.745Y119.431
X26.745Y117.931
X26.745Y77.208
X26.745Y75.703
X26.745Y74.203
X26.745Y72.703
X26.745Y71.203
X26.745Y30.48
X26.745Y28.975
X26.745Y27.475
X26.745Y25.975
X26.745Y24.475
X26.987Y176.22
X26.987Y174.633
X26.987Y156.059
X26.987Y143.677
X26.987Y129.492
X26.987Y127.905
X26.987Y109.331
X26.987Y96.948
X26.987Y82.764
X26.987Y81.177
X26.987Y62.603
X26.987Y50.221
X26.987Y36.036
X26.987Y34.449
X26.987Y15.875
X26.987Y3.492
X27.146Y178.443
X27.146Y131.715
X27.146Y84.987
X27.146Y38.259
X27.279Y147.234
X27.279Y100.506
X27.279Y53.778
X27.279Y7.05
X27.625Y155.74
X27.625Y109.012
X27.625Y62.284
X27.625Y15.556
X27.94Y162.409
X27.94Y159.869
X27.94Y115.681
X27.94Y113.141
X27.94Y68.953
X27.94Y66.413
X27.94Y22.225
X27.94Y19.685
X28.099Y170.664
X28.099Y123.936
X28.099Y77.208
X28.099Y30.48
X28.145Y169.159
X28.145Y167.659
X28.145Y166.159
X28.145Y164.659
X28.145Y122.431
X28.145Y120.931
X28.145Y119.431
X28.145Y117.931
X28.145Y75.703
X28.145Y74.203
X28.145Y72.703
X28.145Y71.203
X28.145Y28.975
X28.145Y27.475
X28.145Y25.975
X28.145Y24.475
X28.258Y150.979
X28.258Y104.251
X28.258Y57.523
X28.258Y10.795
X28.575Y174.791
X28.575Y128.064
X28.575Y81.335
X28.575Y34.608
X28.734Y178.443
X28.734Y131.715
X28.734Y84.987
X28.734Y38.259
X28.892Y141.454
X28.892Y94.726
X28.892Y47.998
X28.892Y1.27
X28.918Y157.19
X28.918Y110.462
X28.918Y63.734
X28.918Y17.006
X29.21Y181.141
X29.21Y159.869
X29.21Y144.946
X29.21Y134.413
X29.21Y113.141
X29.21Y98.218
X29.21Y87.685
X29.21Y66.413
X29.21Y51.49
X29.21Y40.957
X29.21Y19.685
X29.21Y4.763
X29.369Y173.045
X29.369Y126.317
X29.369Y79.589
X29.369Y32.861
X29.545Y169.159
X29.545Y167.659
X29.545Y166.159
X29.545Y164.659
X29.545Y122.431
X29.545Y120.931
X29.545Y119.431
X29.545Y117.931
X29.545Y75.703
X29.545Y74.203
X29.545Y72.703
X29.545Y71.203
X29.545Y28.975
X29.545Y27.475
X29.545Y25.975
X29.545Y24.475
X29.686Y177.173
X29.686Y170.664
X29.686Y130.445
X29.686Y123.936
X29.686Y83.717
X29.686Y77.208
X29.686Y36.989
X29.686Y30.48
X29.745Y147.487
X29.745Y100.758
X29.745Y54.03
X29.745Y7.302
X29.845Y178.443
X29.845Y131.715
X29.845Y84.987
X29.845Y38.259
X30.154Y150.335
X30.154Y103.607
X30.154Y56.879
X30.154Y10.151
X30.162Y174.791
X30.162Y160.39
X30.162Y128.064
X30.162Y113.662
X30.162Y81.335
X30.162Y66.934
X30.162Y34.608
X30.162Y20.206
X30.266Y145.215
X30.266Y98.487
X30.266Y51.759
X30.266Y5.031
X30.392Y172.886
X30.392Y126.158
X30.392Y79.43
X30.392Y32.703
X30.48Y153.519
X30.48Y106.791
X30.48Y60.063
X30.48Y13.335
X31.115Y178.443
X31.115Y170.664
X31.115Y131.715
X31.115Y123.936
X31.115Y84.987
X31.115Y77.208
X31.115Y38.259
X31.115Y30.48
X31.145Y169.159
X31.145Y167.659
X31.145Y166.159
X31.145Y164.659
X31.145Y122.431
X31.145Y120.931
X31.145Y119.431
X31.145Y117.931
X31.145Y75.703
X31.145Y74.203
X31.145Y72.703
X31.145Y71.203
X31.145Y28.975
X31.145Y27.475
X31.145Y25.975
X31.145Y24.475
X31.274Y177.173
X31.274Y130.445
X31.274Y83.717
X31.274Y36.989
X31.432Y160.186
X31.432Y113.459
X31.432Y66.73
X31.432Y20.002
X31.75Y181.141
X31.75Y134.413
X31.75Y87.685
X31.75Y40.957
X32.014Y145.133
X32.014Y98.405
X32.014Y51.677
X32.014Y4.949
X32.067Y150.661
X32.067Y103.933
X32.067Y57.206
X32.067Y10.477
X32.226Y178.443
X32.226Y131.715
X32.226Y84.987
X32.226Y38.259
X32.385Y176.379
X32.385Y175.109
X32.385Y129.651
X32.385Y128.381
X32.385Y82.923
X32.385Y81.653
X32.385Y36.195
X32.385Y34.925
X32.545Y170.664
X32.545Y169.159
X32.545Y167.659
X32.545Y166.159
X32.545Y164.659
X32.545Y123.936
X32.545Y122.431
X32.545Y120.931
X32.545Y119.431
X32.545Y117.931
X32.545Y77.208
X32.545Y75.703
X32.545Y74.203
X32.545Y72.703
X32.545Y71.203
X32.545Y30.48
X32.545Y28.975
X32.545Y27.475
X32.545Y25.975
X32.545Y24.475
X32.703Y173.522
X32.703Y126.793
X32.703Y80.066
X32.703Y33.337
X33.02Y147.169
X33.02Y100.441
X33.02Y53.713
X33.02Y6.985
X33.179Y158.916
X33.179Y157.964
X33.179Y157.011
X33.179Y151.614
X33.179Y112.188
X33.179Y111.236
X33.179Y110.283
X33.179Y104.886
X33.179Y65.46
X33.179Y64.508
X33.179Y63.555
X33.179Y58.158
X33.179Y18.732
X33.179Y17.78
X33.179Y16.828
X33.179Y11.43
X33.337Y155.106
X33.337Y153.519
X33.337Y108.378
X33.337Y106.791
X33.337Y61.65
X33.337Y60.063
X33.337Y14.922
X33.337Y13.335
X33.655Y177.014
X33.655Y174.474
X33.655Y160.186
X33.655Y130.286
X33.655Y127.746
X33.655Y113.459
X33.655Y83.558
X33.655Y81.018
X33.655Y66.73
X33.655Y36.83
X33.655Y34.29
X33.655Y20.002
X33.814Y178.443
X33.814Y131.715
X33.814Y84.987
X33.814Y38.259
X33.945Y170.664
X33.945Y169.159
X33.945Y167.659
X33.945Y166.159
X33.945Y164.659
X33.945Y123.936
X33.945Y122.431
X33.945Y120.931
X33.945Y119.431
X33.945Y117.931
X33.945Y77.208
X33.945Y75.703
X33.945Y74.203
X33.945Y72.703
X33.945Y71.203
X33.945Y30.48
X33.945Y28.975
X33.945Y27.475
X33.945Y25.975
X33.945Y24.475
X33.972Y143.677
X33.972Y96.948
X33.972Y50.221
X33.972Y3.492
X34.449Y182.094
X34.449Y180.665
X34.449Y179.395
X34.449Y135.366
X34.449Y133.937
X34.449Y132.667
X34.449Y88.638
X34.449Y87.209
X34.449Y85.939
X34.449Y41.91
X34.449Y40.481
X34.449Y39.211
X34.608Y160.504
X34.608Y113.776
X34.608Y67.048
X34.608Y20.32
X35.242Y151.138
X35.242Y104.41
X35.242Y57.682
X35.242Y10.954
X35.345Y170.664
X35.345Y169.159
X35.345Y167.659
X35.345Y166.159
X35.345Y164.659
X35.345Y123.936
X35.345Y122.431
X35.345Y120.931
X35.345Y119.431
X35.345Y117.931
X35.345Y77.208
X35.345Y75.703
X35.345Y74.203
X35.345Y72.703
X35.345Y71.203
X35.345Y30.48
X35.345Y28.975
X35.345Y27.475
X35.345Y25.975
X35.345Y24.475
X35.56Y160.504
X35.56Y113.776
X35.56Y67.048
X35.56Y20.32
X35.877Y141.454
X35.877Y94.726
X35.877Y47.998
X35.877Y1.27
X36.036Y147.01
X36.036Y100.282
X36.036Y53.554
X36.036Y6.826
X36.195Y159.869
X36.195Y145.264
X36.195Y113.141
X36.195Y98.536
X36.195Y66.413
X36.195Y51.808
X36.195Y19.685
X36.195Y5.08
X36.83Y147.01
X36.83Y100.282
X36.83Y53.554
X36.83Y6.826
X37.148Y157.011
X37.148Y154.471
X37.148Y110.283
X37.148Y107.743
X37.148Y63.555
X37.148Y61.015
X37.148Y16.828
X37.148Y14.287
X37.306Y177.014
X37.306Y174.474
X37.306Y130.286
X37.306Y127.746
X37.306Y83.558
X37.306Y81.018
X37.306Y36.83
X37.306Y34.29
X38.1Y164.314
X38.1Y117.586
X38.1Y70.858
X38.1Y24.13
X38.417Y171.934
X38.417Y125.206
X38.417Y78.478
X38.417Y31.75
X38.735Y168.124
X38.735Y121.396
X38.735Y74.668
X38.735Y27.94
X39.37Y163.362
X39.37Y116.633
X39.37Y69.906
X39.37Y23.177
X39.688Y148.574
X39.688Y147.487
X39.688Y101.846
X39.688Y100.758
X39.688Y55.118
X39.688Y54.03
X39.688Y8.39
X39.688Y7.302
X39.846Y150.503
X39.846Y149.55
X39.846Y103.775
X39.846Y102.822
X39.846Y57.047
X39.846Y56.094
X39.846Y10.319
X39.846Y9.366
X40.005Y162.726
X40.005Y115.998
X40.005Y69.27
X40.005Y22.543
X46.379Y149.074
X46.379Y102.346
X46.379Y55.618
X46.379Y8.89
X46.538Y147.645
X46.538Y100.917
X46.538Y54.189
X46.538Y7.461
X47.49Y150.661
X47.49Y147.487
X47.49Y103.933
X47.49Y100.758
X47.49Y57.206
X47.49Y54.03
X47.49Y10.477
X47.49Y7.302
X48.76Y168.759
X48.76Y165.108
X48.76Y122.031
X48.76Y118.38
X48.76Y75.303
X48.76Y71.652
X48.76Y28.575
X48.76Y24.924
X49.078Y162.409
X49.078Y153.201
X49.078Y115.681
X49.078Y106.474
X49.078Y68.953
X49.078Y59.745
X49.078Y22.225
X49.078Y13.018
X49.395Y170.981
X49.395Y124.253
X49.395Y77.525
X49.395Y30.797
X49.554Y161.139
X49.554Y114.411
X49.554Y67.683
X49.554Y20.955
X50.03Y147.963
X50.03Y101.235
X50.03Y54.507
X50.03Y7.779
X50.665Y152.249
X50.665Y105.521
X50.665Y58.793
X50.665Y12.065
X50.982Y154.789
X50.982Y151.296
X50.982Y143.359
X50.982Y108.061
X50.982Y104.569
X50.982Y96.631
X50.982Y61.333
X50.982Y57.84
X50.982Y49.903
X50.982Y14.605
X50.982Y11.112
X50.982Y3.175
X51.3Y164.314
X51.3Y117.586
X51.3Y70.858
X51.3Y24.13
X51.459Y149.391
X51.459Y102.663
X51.459Y55.935
X51.459Y9.207
X51.617Y170.664
X51.617Y123.936
X51.617Y77.208
X51.617Y30.48
X51.935Y169.394
X51.935Y122.666
X51.935Y75.938
X51.935Y29.21
X52.411Y160.98
X52.411Y114.252
X52.411Y67.524
X52.411Y20.796
X52.57Y170.664
X52.57Y151.296
X52.57Y123.936
X52.57Y104.569
X52.57Y77.208
X52.57Y57.84
X52.57Y30.48
X52.57Y11.112
X52.887Y168.759
X52.887Y166.854
X52.887Y164.949
X52.887Y163.679
X52.887Y122.031
X52.887Y120.126
X52.887Y118.221
X52.887Y116.951
X52.887Y75.303
X52.887Y73.398
X52.887Y71.493
X52.887Y70.223
X52.887Y28.575
X52.887Y26.67
X52.887Y24.765
X52.887Y23.495
X53.523Y170.664
X53.523Y123.936
X53.523Y77.208
X53.523Y30.48
X54.157Y151.296
X54.157Y104.569
X54.157Y57.84
X54.157Y11.112
X54.475Y170.664
X54.475Y123.936
X54.475Y77.208
X54.475Y30.48
X54.723Y159.556
X54.723Y112.828
X54.723Y66.1
X54.723Y19.372
X54.792Y154.154
X54.792Y152.249
X54.792Y107.426
X54.792Y105.521
X54.792Y60.698
X54.792Y58.793
X54.792Y13.97
X54.792Y12.065
X54.951Y147.645
X54.951Y100.917
X54.951Y54.189
X54.951Y7.461
X55.427Y170.664
X55.427Y123.936
X55.427Y77.208
X55.427Y30.48
X55.745Y151.296
X55.745Y104.569
X55.745Y57.84
X55.745Y11.112
X56.38Y170.664
X56.38Y160.98
X56.38Y123.936
X56.38Y114.252
X56.38Y77.208
X56.38Y67.524
X56.38Y30.48
X56.38Y20.796
X57.332Y170.664
X57.332Y151.296
X57.332Y123.936
X57.332Y104.569
X57.332Y77.208
X57.332Y57.84
X57.332Y30.48
X57.332Y11.112
X57.967Y160.98
X57.967Y157.647
X57.967Y114.252
X57.967Y110.918
X57.967Y67.524
X57.967Y64.191
X57.967Y20.796
X57.967Y17.462
X58.285Y170.664
X58.285Y152.249
X58.285Y151.296
X58.285Y123.936
X58.285Y105.521
X58.285Y104.569
X58.285Y77.208
X58.285Y58.793
X58.285Y57.84
X58.285Y30.48
X58.285Y12.065
X58.285Y11.112
X58.602Y144.629
X58.602Y97.901
X58.602Y51.173
X58.602Y4.445
X58.92Y148.28
X58.92Y101.552
X58.92Y54.824
X58.92Y8.096
X59.237Y170.664
X59.237Y123.936
X59.237Y77.208
X59.237Y30.48
X59.872Y168.759
X59.872Y166.854
X59.872Y122.031
X59.872Y120.126
X59.872Y75.303
X59.872Y73.398
X59.872Y28.575
X59.872Y26.67
X60.19Y170.664
X60.19Y123.936
X60.19Y77.208
X60.19Y30.48
X60.825Y164.949
X60.825Y155.742
X60.825Y118.221
X60.825Y109.013
X60.825Y71.493
X60.825Y62.285
X60.825Y24.765
X60.825Y15.557
X61.142Y170.664
X61.142Y163.044
X61.142Y143.041
X61.142Y123.936
X61.142Y116.316
X61.142Y96.313
X61.142Y77.208
X61.142Y69.588
X61.142Y49.585
X61.142Y30.48
X61.142Y22.86
X61.142Y2.857
X61.46Y169.235
X61.46Y122.507
X61.46Y75.779
X61.46Y29.051
X61.777Y160.821
X61.777Y114.093
X61.777Y67.365
X61.777Y20.637
X62.412Y158.281
X62.412Y111.553
X62.412Y64.825
X62.412Y18.098
X62.616Y155.664
X62.616Y108.936
X62.616Y62.208
X62.616Y15.48
X62.679Y160.821
X62.679Y114.093
X62.679Y67.365
X62.679Y20.637
X63.047Y147.487
X63.047Y100.758
X63.047Y54.03
X63.047Y7.302
X63.275Y166.854
X63.275Y120.126
X63.275Y73.398
X63.275Y26.67
X63.682Y159.961
X63.682Y113.233
X63.682Y66.505
X63.682Y19.777
X63.886Y167.806
X63.886Y121.078
X63.886Y74.35
X63.886Y27.622
X64.0Y170.981
X64.0Y157.964
X64.0Y124.253
X64.0Y111.236
X64.0Y77.525
X64.0Y64.508
X64.0Y30.797
X64.0Y17.78
X64.317Y171.694
X64.317Y165.584
X64.317Y162.726
X64.317Y161.774
X64.317Y124.966
X64.317Y118.856
X64.317Y115.998
X64.317Y115.046
X64.317Y78.238
X64.317Y72.128
X64.317Y69.27
X64.317Y68.318
X64.317Y31.51
X64.317Y25.4
X64.317Y22.543
X64.317Y21.59
X64.635Y180.189
X64.635Y174.156
X64.635Y169.394
X64.635Y133.461
X64.635Y127.428
X64.635Y122.666
X64.635Y86.733
X64.635Y80.7
X64.635Y75.938
X64.635Y40.005
X64.635Y33.972
X64.635Y29.21
X64.749Y158.281
X64.749Y111.553
X64.749Y64.825
X64.749Y18.098
X64.953Y143.359
X64.953Y96.631
X64.953Y49.903
X64.953Y3.175
X65.587Y173.522
X65.587Y126.793
X65.587Y80.066
X65.587Y33.337
X65.905Y153.201
X65.905Y106.474
X65.905Y59.745
X65.905Y13.018
X66.064Y162.959
X66.064Y116.231
X66.064Y69.503
X66.064Y22.775
X66.225Y170.664
X66.225Y169.159
X66.225Y167.659
X66.225Y166.159
X66.225Y164.659
X66.225Y123.936
X66.225Y122.431
X66.225Y120.931
X66.225Y119.431
X66.225Y117.931
X66.225Y77.208
X66.225Y75.703
X66.225Y74.203
X66.225Y72.703
X66.225Y71.203
X66.225Y30.48
X66.225Y28.975
X66.225Y27.475
X66.225Y25.975
X66.225Y24.475
X66.381Y173.522
X66.381Y126.793
X66.381Y80.066
X66.381Y33.337
X66.54Y150.026
X66.54Y103.298
X66.54Y56.57
X66.54Y9.842
X66.858Y158.739
X66.858Y112.011
X66.858Y65.283
X66.858Y18.555
X67.625Y170.664
X67.625Y169.159
X67.625Y167.659
X67.625Y166.159
X67.625Y164.659
X67.625Y123.936
X67.625Y122.431
X67.625Y120.931
X67.625Y119.431
X67.625Y117.931
X67.625Y77.208
X67.625Y75.703
X67.625Y74.203
X67.625Y72.703
X67.625Y71.203
X67.625Y30.48
X67.625Y28.975
X67.625Y27.475
X67.625Y25.975
X67.625Y24.475
X67.81Y173.045
X67.81Y147.169
X67.81Y126.317
X67.81Y100.441
X67.81Y79.589
X67.81Y53.713
X67.81Y32.861
X67.81Y6.985
X68.286Y174.315
X68.286Y127.587
X68.286Y80.859
X68.286Y34.131
X68.445Y182.094
X68.445Y145.264
X68.445Y141.454
X68.445Y135.366
X68.445Y98.536
X68.445Y94.726
X68.445Y88.638
X68.445Y51.808
X68.445Y47.998
X68.445Y41.91
X68.445Y5.08
X68.445Y1.27
X68.763Y174.95
X68.763Y157.011
X68.763Y128.222
X68.763Y110.283
X68.763Y81.494
X68.763Y63.555
X68.763Y34.766
X68.763Y16.828
X69.025Y170.664
X69.025Y169.159
X69.025Y167.659
X69.025Y166.159
X69.025Y164.659
X69.025Y123.936
X69.025Y122.431
X69.025Y120.931
X69.025Y119.431
X69.025Y117.931
X69.025Y77.208
X69.025Y75.703
X69.025Y74.203
X69.025Y72.703
X69.025Y71.203
X69.025Y30.48
X69.025Y28.975
X69.025Y27.475
X69.025Y25.975
X69.025Y24.475
X69.08Y155.74
X69.08Y149.074
X69.08Y147.487
X69.08Y109.012
X69.08Y102.346
X69.08Y100.758
X69.08Y62.284
X69.08Y55.618
X69.08Y54.03
X69.08Y15.556
X69.08Y8.89
X69.08Y7.302
X69.397Y173.204
X69.397Y126.476
X69.397Y79.748
X69.397Y33.02
X69.715Y159.869
X69.715Y150.979
X69.715Y113.141
X69.715Y104.251
X69.715Y66.413
X69.715Y57.523
X69.715Y19.685
X69.715Y10.795
X69.874Y173.998
X69.874Y155.742
X69.874Y127.27
X69.874Y109.013
X69.874Y80.542
X69.874Y62.285
X69.874Y33.814
X69.874Y15.557
X70.191Y182.094
X70.191Y180.665
X70.191Y179.395
X70.191Y135.366
X70.191Y133.937
X70.191Y132.667
X70.191Y88.638
X70.191Y87.209
X70.191Y85.939
X70.191Y41.91
X70.191Y40.481
X70.191Y39.211
X70.35Y173.204
X70.35Y151.614
X70.35Y126.476
X70.35Y104.886
X70.35Y79.748
X70.35Y58.158
X70.35Y33.02
X70.35Y11.43
X70.425Y170.664
X70.425Y169.159
X70.425Y167.659
X70.425Y166.159
X70.425Y164.659
X70.425Y123.936
X70.425Y122.431
X70.425Y120.931
X70.425Y119.431
X70.425Y117.931
X70.425Y77.208
X70.425Y75.703
X70.425Y74.203
X70.425Y72.703
X70.425Y71.203
X70.425Y30.48
X70.425Y28.975
X70.425Y27.475
X70.425Y25.975
X70.425Y24.475
X70.667Y176.22
X70.667Y174.633
X70.667Y156.059
X70.667Y143.677
X70.667Y129.492
X70.667Y127.905
X70.667Y109.331
X70.667Y96.948
X70.667Y82.764
X70.667Y81.177
X70.667Y62.603
X70.667Y50.221
X70.667Y36.036
X70.667Y34.449
X70.667Y15.875
X70.667Y3.492
X70.826Y178.443
X70.826Y131.715
X70.826Y84.987
X70.826Y38.259
X70.959Y147.234
X70.959Y100.506
X70.959Y53.778
X70.959Y7.05
X71.305Y155.74
X71.305Y109.012
X71.305Y62.284
X71.305Y15.556
X71.62Y162.409
X71.62Y159.869
X71.62Y115.681
X71.62Y113.141
X71.62Y68.953
X71.62Y66.413
X71.62Y22.225
X71.62Y19.685
X71.779Y170.664
X71.779Y123.936
X71.779Y77.208
X71.779Y30.48
X71.825Y169.159
X71.825Y167.659
X71.825Y166.159
X71.825Y164.659
X71.825Y122.431
X71.825Y120.931
X71.825Y119.431
X71.825Y117.931
X71.825Y75.703
X71.825Y74.203
X71.825Y72.703
X71.825Y71.203
X71.825Y28.975
X71.825Y27.475
X71.825Y25.975
X71.825Y24.475
X71.938Y150.979
X71.938Y104.251
X71.938Y57.523
X71.938Y10.795
X72.255Y174.791
X72.255Y128.064
X72.255Y81.335
X72.255Y34.608
X72.414Y178.443
X72.414Y131.715
X72.414Y84.987
X72.414Y38.259
X72.572Y141.454
X72.572Y94.726
X72.572Y47.998
X72.572Y1.27
X72.598Y157.19
X72.598Y110.462
X72.598Y63.734
X72.598Y17.006
X72.89Y181.141
X72.89Y159.869
X72.89Y144.946
X72.89Y134.413
X72.89Y113.141
X72.89Y98.218
X72.89Y87.685
X72.89Y66.413
X72.89Y51.49
X72.89Y40.957
X72.89Y19.685
X72.89Y4.763
X73.049Y173.045
X73.049Y126.317
X73.049Y79.589
X73.049Y32.861
X73.225Y169.159
X73.225Y167.659
X73.225Y166.159
X73.225Y164.659
X73.225Y122.431
X73.225Y120.931
X73.225Y119.431
X73.225Y117.931
X73.225Y75.703
X73.225Y74.203
X73.225Y72.703
X73.225Y71.203
X73.225Y28.975
X73.225Y27.475
X73.225Y25.975
X73.225Y24.475
X73.366Y177.173
X73.366Y170.664
X73.366Y130.445
X73.366Y123.936
X73.366Y83.717
X73.366Y77.208
X73.366Y36.989
X73.366Y30.48
X73.425Y147.487
X73.425Y100.758
X73.425Y54.03
X73.425Y7.302
X73.525Y178.443
X73.525Y131.715
X73.525Y84.987
X73.525Y38.259
X73.834Y150.335
X73.834Y103.607
X73.834Y56.879
X73.834Y10.151
X73.843Y174.791
X73.843Y160.39
X73.843Y128.064
X73.843Y113.662
X73.843Y81.335
X73.843Y66.934
X73.843Y34.608
X73.843Y20.206
X73.946Y145.215
X73.946Y98.487
X73.946Y51.759
X73.946Y5.031
X74.072Y172.886
X74.072Y126.158
X74.072Y79.43
X74.072Y32.703
X74.16Y153.519
X74.16Y106.791
X74.16Y60.063
X74.16Y13.335
X74.795Y178.443
X74.795Y170.664
X74.795Y131.715
X74.795Y123.936
X74.795Y84.987
X74.795Y77.208
X74.795Y38.259
X74.795Y30.48
X74.825Y169.159
X74.825Y167.659
X74.825Y166.159
X74.825Y164.659
X74.825Y122.431
X74.825Y120.931
X74.825Y119.431
X74.825Y117.931
X74.825Y75.703
X74.825Y74.203
X74.825Y72.703
X74.825Y71.203
X74.825Y28.975
X74.825Y27.475
X74.825Y25.975
X74.825Y24.475
X74.954Y177.173
X74.954Y130.445
X74.954Y83.717
X74.954Y36.989
X75.112Y160.186
X75.112Y113.459
X75.112Y66.73
X75.112Y20.002
X75.43Y181.141
X75.43Y134.413
X75.43Y87.685
X75.43Y40.957
X75.694Y145.133
X75.694Y98.405
X75.694Y51.677
X75.694Y4.949
X75.748Y150.661
X75.748Y103.933
X75.748Y57.206
X75.748Y10.477
X75.906Y178.443
X75.906Y131.715
X75.906Y84.987
X75.906Y38.259
X76.065Y176.379
X76.065Y175.109
X76.065Y129.651
X76.065Y128.381
X76.065Y82.923
X76.065Y81.653
X76.065Y36.195
X76.065Y34.925
X76.225Y170.664
X76.225Y169.159
X76.225Y167.659
X76.225Y166.159
X76.225Y164.659
X76.225Y123.936
X76.225Y122.431
X76.225Y120.931
X76.225Y119.431
X76.225Y117.931
X76.225Y77.208
X76.225Y75.703
X76.225Y74.203
X76.225Y72.703
X76.225Y71.203
X76.225Y30.48
X76.225Y28.975
X76.225Y27.475
X76.225Y25.975
X76.225Y24.475
X76.382Y173.522
X76.382Y126.793
X76.382Y80.066
X76.382Y33.337
X76.7Y147.169
X76.7Y100.441
X76.7Y53.713
X76.7Y6.985
X76.859Y158.916
X76.859Y157.964
X76.859Y157.011
X76.859Y151.614
X76.859Y112.188
X76.859Y111.236
X76.859Y110.283
X76.859Y104.886
X76.859Y65.46
X76.859Y64.508
X76.859Y63.555
X76.859Y58.158
X76.859Y18.732
X76.859Y17.78
X76.859Y16.828
X76.859Y11.43
X77.017Y155.106
X77.017Y153.519
X77.017Y108.378
X77.017Y106.791
X77.017Y61.65
X77.017Y60.063
X77.017Y14.922
X77.017Y13.335
X77.335Y177.014
X77.335Y174.474
X77.335Y160.186
X77.335Y130.286
X77.335Y127.746
X77.335Y113.459
X77.335Y83.558
X77.335Y81.018
X77.335Y66.73
X77.335Y36.83
X77.335Y34.29
X77.335Y20.002
X77.494Y178.443
X77.494Y131.715
X77.494Y84.987
X77.494Y38.259
X77.625Y170.664
X77.625Y169.159
X77.625Y167.659
X77.625Y166.159
X77.625Y164.659
X77.625Y123.936
X77.625Y122.431
X77.625Y120.931
X77.625Y119.431
X77.625Y117.931
X77.625Y77.208
X77.625Y75.703
X77.625Y74.203
X77.625Y72.703
X77.625Y71.203
X77.625Y30.48
X77.625Y28.975
X77.625Y27.475
X77.625Y25.975
X77.625Y24.475
X77.653Y143.677
X77.653Y96.948
X77.653Y50.221
X77.653Y3.492
X78.129Y182.094
X78.129Y180.665
X78.129Y179.395
X78.129Y135.366
X78.129Y133.937
X78.129Y132.667
X78.129Y88.638
X78.129Y87.209
X78.129Y85.939
X78.129Y41.91
X78.129Y40.481
X78.129Y39.211
X78.287Y160.504
X78.287Y113.776
X78.287Y67.048
X78.287Y20.32
X78.922Y151.138
X78.922Y104.41
X78.922Y57.682
X78.922Y10.954
X79.025Y170.664
X79.025Y169.159
X79.025Y167.659
X79.025Y166.159
X79.025Y164.659
X79.025Y123.936
X79.025Y122.431
X79.025Y120.931
X79.025Y119.431
X79.025Y117.931
X79.025Y77.208
X79.025Y75.703
X79.025Y74.203
X79.025Y72.703
X79.025Y71.203
X79.025Y30.48
X79.025Y28.975
X79.025Y27.475
X79.025Y25.975
X79.025Y24.475
X79.24Y160.504
X79.24Y113.776
X79.24Y67.048
X79.24Y20.32
X79.557Y141.454
X79.557Y94.726
X79.557Y47.998
X79.557Y1.27
X79.716Y147.01
X79.716Y100.282
X79.716Y53.554
X79.716Y6.826
X79.875Y159.869
X79.875Y145.264
X79.875Y113.141
X79.875Y98.536
X79.875Y66.413
X79.875Y51.808
X79.875Y19.685
X79.875Y5.08
X80.51Y147.01
X80.51Y100.282
X80.51Y53.554
X80.51Y6.826
X80.828Y157.011
X80.828Y154.471
X80.828Y110.283
X80.828Y107.743
X80.828Y63.555
X80.828Y61.015
X80.828Y16.828
X80.828Y14.287
X80.986Y177.014
X80.986Y174.474
X80.986Y130.286
X80.986Y127.746
X80.986Y83.558
X80.986Y81.018
X80.986Y36.83
X80.986Y34.29
X81.78Y164.314
X81.78Y117.586
X81.78Y70.858
X81.78Y24.13
X82.097Y171.934
X82.097Y125.206
X82.097Y78.478
X82.097Y31.75
X82.415Y168.124
X82.415Y121.396
X82.415Y74.668
X82.415Y27.94
X83.05Y163.362
X83.05Y116.633
X83.05Y69.906
X83.05Y23.177
X83.367Y148.574
X83.367Y147.487
X83.367Y101.846
X83.367Y100.758
X83.367Y55.118
X83.367Y54.03
X83.367Y8.39
X83.367Y7.302
X83.526Y150.503
X83.526Y149.55
X83.526Y103.775
X83.526Y102.822
X83.526Y57.047
X83.526Y56.094
X83.526Y10.319
X83.526Y9.366
X83.685Y162.726
X83.685Y115.998
X83.685Y69.27
X83.685Y22.543
T3
X1.27Y174.474
X1.27Y171.934
X1.27Y169.394
X1.27Y166.854
X1.27Y164.314
X1.27Y161.774
X1.27Y159.234
X1.27Y156.694
X1.27Y154.154
X1.27Y127.746
X1.27Y125.206
X1.27Y122.666
X1.27Y120.126
X1.27Y117.586
X1.27Y115.046
X1.27Y112.506
X1.27Y109.966
X1.27Y107.426
X1.27Y81.018
X1.27Y78.478
X1.27Y75.938
X1.27Y73.398
X1.27Y70.858
X1.27Y68.318
X1.27Y65.778
X1.27Y63.238
X1.27Y60.698
X1.27Y34.29
X1.27Y31.75
X1.27Y29.21
X1.27Y26.67
X1.27Y24.13
X1.27Y21.59
X1.27Y19.05
X1.27Y16.51
X1.27Y13.97
X41.91Y177.014
X41.91Y174.474
X41.91Y171.934
X41.91Y169.394
X41.91Y166.854
X41.91Y164.314
X41.91Y161.774
X41.91Y159.234
X41.91Y156.694
X41.91Y154.154
X41.91Y130.286
X41.91Y127.746
X41.91Y125.206
X41.91Y122.666
X41.91Y120.126
X41.91Y117.586
X41.91Y115.046
X41.91Y112.506
X41.91Y109.966
X41.91Y107.426
X41.91Y83.558
X41.91Y81.018
X41.91Y78.478
X41.91Y75.938
X41.91Y73.398
X41.91Y70.858
X41.91Y68.318
X41.91Y65.778
X41.91Y63.238
X41.91Y60.698
X41.91Y36.83
X41.91Y34.29
X41.91Y31.75
X41.91Y29.21
X41.91Y26.67
X41.91Y24.13
X41.91Y21.59
X41.91Y19.05
X41.91Y16.51
X41.91Y13.97
X44.95Y174.474
X44.95Y171.934
X44.95Y169.394
X44.95Y166.854
X44.95Y164.314
X44.95Y161.774
X44.95Y159.234
X44.95Y156.694
X44.95Y154.154
X44.95Y127.746
X44.95Y125.206
X44.95Y122.666
X44.95Y120.126
X44.95Y117.586
X44.95Y115.046
X44.95Y112.506
X44.95Y109.966
X44.95Y107.426
X44.95Y81.018
X44.95Y78.478
X44.95Y75.938
X44.95Y73.398
X44.95Y70.858
X44.95Y68.318
X44.95Y65.778
X44.95Y63.238
X44.95Y60.698
X44.95Y34.29
X44.95Y31.75
X44.95Y29.21
X44.95Y26.67
X44.95Y24.13
X44.95Y21.59
X44.95Y19.05
X44.95Y16.51
X44.95Y13.97
X85.59Y177.014
X85.59Y174.474
X85.59Y171.934
X85.59Y169.394
X85.59Y166.854
X85.59Y164.314
X85.59Y161.774
X85.59Y159.234
X85.59Y156.694
X85.59Y154.154
X85.59Y130.286
X85.59Y127.746
X85.59Y125.206
X85.59Y122.666
X85.59Y120.126
X85.59Y117.586
X85.59Y115.046
X85.59Y112.506
X85.59Y109.966
X85.59Y107.426
X85.59Y83.558
X85.59Y81.018
X85.59Y78.478
X85.59Y75.938
X85.59Y73.398
X85.59Y70.858
X85.59Y68.318
X85.59Y65.778
X85.59Y63.238
X85.59Y60.698
X85.59Y36.83
X85.59Y34.29
X85.59Y31.75
X85.59Y29.21
X85.59Y26.67
X85.59Y24.13
X85.59Y21.59
X85.59Y19.05
X85.59Y16.51
X85.59Y13.97
T4
X27.59Y145.089
X27.59Y98.361
X27.59Y51.633
X27.59Y4.905
X33.37Y145.089
X33.37Y98.361
X33.37Y51.633
X33.37Y4.905
X71.27Y145.089
X71.27Y98.361
X71.27Y51.633
X71.27Y4.905
X77.05Y145.089
X77.05Y98.361
X77.05Y51.633
X77.05Y4.905
T5
X2.54Y180.824
X2.54Y142.724
X2.54Y134.096
X2.54Y95.996
X2.54Y87.368
X2.54Y49.268
X2.54Y40.64
X2.54Y2.54
X40.64Y180.824
X40.64Y142.724
X40.64Y134.096
X40.64Y95.996
X40.64Y87.368
X40.64Y49.268
X40.64Y40.64
X40.64Y2.54
X46.22Y180.824
X46.22Y142.724
X46.22Y134.096
X46.22Y95.996
X46.22Y87.368
X46.22Y49.268
X46.22Y40.64
X46.22Y2.54
X84.32Y180.824
X84.32Y142.724
X84.32Y134.096
X84.32Y95.996
X84.32Y87.368
X84.32Y49.268
X84.32Y40.64
X84.32Y2.54
T2
G00X26.162Y146.169
M15
G01X26.162Y145.069
M16
G05
G00X26.162Y141.739
M15
G01X26.162Y141.139
M16
G05
G00X26.162Y99.441
M15
G01X26.162Y98.341
M16
G05
G00X26.162Y95.011
M15
G01X26.162Y94.411
M16
G05
G00X26.162Y52.713
M15
G01X26.162Y51.613
M16
G05
G00X26.162Y48.283
M15
G01X26.162Y47.683
M16
G05
G00X26.162Y5.985
M15
G01X26.162Y4.885
M16
G05
G00X26.162Y1.555
M15
G01X26.162Y0.955
M16
G05
G00X34.798Y146.169
M15
G01X34.798Y145.069
M16
G05
G00X34.798Y141.739
M15
G01X34.798Y141.139
M16
G05
G00X34.798Y99.441
M15
G01X34.798Y98.341
M16
G05
G00X34.798Y95.011
M15
G01X34.798Y94.411
M16
G05
G00X34.798Y52.713
M15
G01X34.798Y51.613
M16
G05
G00X34.798Y48.283
M15
G01X34.798Y47.683
M16
G05
G00X34.798Y5.985
M15
G01X34.798Y4.885
M16
G05
G00X34.798Y1.555
M15
G01X34.798Y0.955
M16
G05
G00X69.842Y146.169
M15
G01X69.842Y145.069
M16
G05
G00X69.842Y141.739
M15
G01X69.842Y141.139
M16
G05
G00X69.842Y99.441
M15
G01X69.842Y98.341
M16
G05
G00X69.842Y95.011
M15
G01X69.842Y94.411
M16
G05
G00X69.842Y52.713
M15
G01X69.842Y51.613
M16
G05
G00X69.842Y48.283
M15
G01X69.842Y47.683
M16
G05
G00X69.842Y5.985
M15
G01X69.842Y4.885
M16
G05
G00X69.842Y1.555
M15
G01X69.842Y0.955
M16
G05
G00X78.478Y146.169
M15
G01X78.478Y145.069
M16
G05
G00X78.478Y141.739
M15
G01X78.478Y141.139
M16
G05
G00X78.478Y99.441
M15
G01X78.478Y98.341
M16
G05
G00X78.478Y95.011
M15
G01X78.478Y94.411
M16
G05
G00X78.478Y52.713
M15
G01X78.478Y51.613
M16
G05
G00X78.478Y48.283
M15
G01X78.478Y47.683
M16
G05
G00X78.478Y5.985
M15
G01X78.478Y4.885
M16
G05
G00X78.478Y1.555
M15
G01X78.478Y0.955
M16
G05
M30
